<svg xmlns="http://www.w3.org/2000/svg" xmlns:xlink="http://www.w3.org/1999/xlink" width="500" zoomAndPan="magnify" viewBox="0 0 375 374.999991" height="500" preserveAspectRatio="xMidYMid meet" version="1.2"><defs><clipPath id="8a271f0b1d"><path d="M 6.355469 6.355469 L 368.644531 6.355469 L 368.644531 368.644531 L 6.355469 368.644531 Z M 6.355469 6.355469 "/></clipPath><clipPath id="f37671be7f"><path d="M 187.5 6.355469 C 87.457031 6.355469 6.355469 87.457031 6.355469 187.5 C 6.355469 287.542969 87.457031 368.644531 187.5 368.644531 C 287.542969 368.644531 368.644531 287.542969 368.644531 187.5 C 368.644531 87.457031 287.542969 6.355469 187.5 6.355469 Z M 187.5 6.355469 "/></clipPath></defs><g id="63cd410228"><g clip-rule="nonzero" clip-path="url(#8a271f0b1d)"><g clip-rule="nonzero" clip-path="url(#f37671be7f)"><path style=" stroke:none;fill-rule:nonzero;fill:#e1f7ff;fill-opacity:1;" d="M 6.355469 6.355469 L 368.644531 6.355469 L 368.644531 368.644531 L 6.355469 368.644531 Z M 6.355469 6.355469 "/></g></g><path style=" stroke:none;fill-rule:evenodd;fill:#8b5cf6;fill-opacity:1;" d="M 275.574219 82.644531 C 278.171875 82.625 279.273438 83.441406 279.683594 84.730469 C 280.441406 87.015625 281.273438 91.539062 277.230469 93.023438 C 273.894531 94.230469 266.890625 95.109375 263.152344 95.683594 C 259.550781 96.214844 258.65625 94.085938 259.917969 90.925781 C 262.234375 85.054688 267.507812 83.832031 272.425781 82.972656 C 273.675781 82.769531 274.695312 82.644531 275.574219 82.644531 Z M 232.820312 38.074219 C 223.871094 38.074219 214.738281 38.03125 205.992188 39.261719 C 201.921875 39.8125 199.332031 42.203125 197.445312 44.960938 C 194.441406 49.398438 192.195312 53.996094 190.296875 58.691406 C 192.339844 59.671875 194.058594 60.984375 195.546875 62.414062 C 197.492188 57.671875 200.082031 53.199219 202.96875 48.5 C 204.621094 45.839844 207.074219 44.390625 209.734375 44.230469 C 216.785156 43.734375 225.125 43.472656 232.824219 43.449219 C 240.550781 43.472656 248.890625 43.734375 255.925781 44.230469 C 258.601562 44.390625 261.054688 45.839844 262.707031 48.5 C 266.238281 54.21875 269.390625 59.613281 271.375 65.605469 C 271.375 65.605469 249.242188 67.816406 232.828125 67.816406 C 219.160156 67.816406 204.136719 66.488281 198.667969 65.976562 C 202.421875 72.085938 205.507812 78.871094 207.863281 84.898438 L 253.414062 84.898438 C 255.132812 85.144531 255.535156 86.921875 254.738281 88.863281 C 253.042969 92.988281 248.691406 95.765625 244.277344 95.765625 L 226.761719 95.765625 C 226.785156 96.894531 226.722656 98.019531 226.4375 99.058594 C 226.132812 100.097656 225.777344 101.269531 225.226562 102.433594 C 234.285156 101.941406 243.25 101.898438 251.941406 101.898438 C 263.117188 101.898438 274.808594 101.917969 286.496094 103.003906 L 286.496094 84.039062 C 286.496094 81.527344 285.476562 78.707031 284.085938 76.050781 L 285.863281 75.644531 C 290.542969 74.558594 291.523438 72.988281 292.382812 69.800781 C 293.15625 66.921875 291.363281 64.605469 288.378906 64.605469 L 277.648438 64.605469 C 275.261719 57.882812 272.5 51.246094 268.234375 44.96875 C 266.371094 42.210938 263.738281 39.820312 259.6875 39.269531 C 250.929688 38.035156 241.796875 38.074219 232.820312 38.074219 Z M 232.820312 38.074219 "/><path style=" stroke:none;fill-rule:evenodd;fill:#8b5cf6;fill-opacity:1;" d="M 131.417969 114.035156 L 176.871094 114.035156 C 178.792969 114.316406 179.242188 116.257812 178.367188 118.425781 C 176.480469 122.980469 171.683594 126.046875 166.792969 126.046875 L 141.523438 126.046875 C 136.632812 126.046875 131.8125 122.980469 129.953125 118.425781 C 129.050781 116.261719 129.503906 114.035156 131.417969 114.035156 Z M 110.375 111.910156 C 115.835938 112.851562 121.65625 114.21875 124.230469 120.722656 C 125.621094 124.21875 124.617188 126.5625 120.652344 125.953125 C 116.519531 125.339844 108.761719 124.375 105.078125 123.023438 C 100.601562 121.371094 101.546875 116.386719 102.359375 113.871094 C 104.871094 110.910156 107.082031 111.539062 110.375 111.910156 Z M 154.148438 68.238281 C 162.671875 68.238281 171.882812 68.542969 179.667969 69.074219 C 182.632812 69.277344 185.332031 70.871094 187.171875 73.8125 C 191.070312 80.148438 194.550781 86.097656 196.734375 92.695312 C 196.734375 92.695312 172.296875 95.152344 154.148438 95.152344 C 136.019531 95.152344 111.578125 92.695312 111.578125 92.695312 C 113.761719 86.078125 117.238281 80.152344 121.144531 73.8125 C 122.960938 70.871094 125.679688 69.277344 128.621094 69.074219 C 136.40625 68.542969 145.625 68.238281 154.148438 68.238281 Z M 154.148438 62.289062 C 144.257812 62.289062 134.160156 62.246094 124.472656 63.597656 C 119.996094 64.210938 117.117188 66.847656 115.035156 69.890625 C 110.328125 76.839844 107.285156 84.175781 104.628906 91.589844 L 92.777344 91.589844 C 89.46875 91.589844 87.503906 94.148438 88.363281 97.355469 C 89.296875 100.871094 90.367188 102.605469 95.539062 103.8125 L 97.515625 104.261719 C 95.980469 107.207031 94.839844 110.316406 94.839844 113.09375 L 94.839844 135.898438 C 94.839844 137.023438 95.121094 138.0625 95.515625 139.027344 C 108.105469 137.941406 120.648438 137.941406 132.667969 137.941406 C 147.527344 137.941406 163.15625 137.878906 178.648438 139.96875 C 180.527344 135.222656 182.71875 130.566406 184.863281 125.699219 C 190.195312 113.523438 199.34375 105.40625 209.609375 103.8125 C 211.144531 103.585938 212.714844 103.527344 214.269531 103.324219 C 218.035156 102.808594 219.136719 100.464844 219.949219 97.355469 C 220.808594 94.152344 218.832031 91.589844 215.535156 91.589844 L 203.683594 91.589844 C 201.023438 84.175781 197.984375 76.835938 193.265625 69.890625 C 191.195312 66.847656 188.3125 64.210938 183.839844 63.597656 C 174.152344 62.25 164.054688 62.289062 154.148438 62.289062 Z M 154.148438 62.289062 "/><path style=" stroke:none;fill-rule:evenodd;fill:#8b5cf6;fill-opacity:1;" d="M 317.261719 179.304688 C 321.25 179.265625 322.925781 180.53125 323.554688 182.492188 C 324.707031 185.972656 325.992188 192.898438 319.800781 195.160156 C 314.710938 197.023438 304 198.355469 298.285156 199.214844 C 292.808594 200.050781 291.433594 196.800781 293.332031 191.957031 C 296.886719 182.980469 304.941406 181.105469 312.484375 179.796875 C 314.359375 179.464844 315.9375 179.324219 317.261719 179.304688 Z M 251.933594 111.15625 C 238.242188 111.15625 224.261719 111.09375 210.898438 112.953125 C 204.683594 113.828125 200.695312 117.46875 197.839844 121.675781 C 193.328125 128.316406 189.96875 135.246094 187.074219 142.253906 C 190.199219 143.648438 192.910156 145.484375 195.226562 147.550781 C 198.167969 140.601562 202.027344 134 206.273438 127.117188 C 208.789062 123.027344 212.550781 120.820312 216.636719 120.558594 C 227.410156 119.820312 240.140625 119.386719 251.933594 119.367188 C 263.722656 119.386719 276.457031 119.816406 287.246094 120.558594 C 291.308594 120.816406 295.070312 123.023438 297.585938 127.117188 C 303.003906 135.859375 307.804688 144.078125 310.828125 153.234375 C 310.828125 153.234375 277.027344 156.621094 251.933594 156.621094 C 231.703125 156.621094 210.101562 154.742188 200.820312 153.90625 C 200.84375 153.941406 200.902344 154.007812 200.925781 154.050781 L 200.925781 154.09375 C 207.34375 163.527344 211.082031 173.195312 214.78125 182.738281 L 283.363281 182.738281 C 286.023438 183.132812 286.652344 185.828125 285.40625 188.8125 C 282.832031 195.125 276.167969 199.355469 269.40625 199.355469 L 243.757812 199.355469 C 243.796875 201.09375 243.597656 202.808594 243.167969 204.445312 L 243.144531 204.445312 C 242.285156 207.667969 240.902344 211.84375 237.382812 215.316406 C 235.75 216.933594 233.394531 217.277344 231.414062 218.238281 C 232.050781 220.589844 233.277344 222.570312 233.496094 225.105469 L 300.921875 225.105469 L 300.921875 239.128906 C 300.921875 242.023438 303.226562 244.339844 306.109375 244.339844 L 320.859375 244.339844 C 323.742188 244.339844 326.070312 242.023438 326.070312 239.128906 L 326.070312 224.367188 C 330.324219 222.71875 333.964844 218.253906 333.964844 212.988281 L 333.964844 181.433594 C 333.964844 177.589844 332.414062 173.300781 330.265625 169.234375 L 333 168.601562 C 340.15625 166.925781 341.644531 164.511719 342.929688 159.652344 C 344.121094 155.238281 341.398438 151.707031 336.824219 151.707031 L 320.453125 151.707031 C 316.773438 141.445312 312.566406 131.285156 306.023438 121.683594 C 303.160156 117.476562 299.179688 113.835938 292.964844 112.960938 C 279.601562 111.09375 265.621094 111.15625 251.933594 111.15625 Z M 251.933594 111.15625 "/><path style=" stroke:none;fill-rule:evenodd;fill:#8b5cf6;fill-opacity:1;" d="M 132.691406 148.164062 C 147.832031 148.164062 163.257812 148.101562 178.058594 150.167969 C 184.902344 151.101562 189.316406 155.152344 192.484375 159.8125 C 199.703125 170.417969 204.359375 181.636719 208.425781 192.976562 L 226.53125 192.976562 C 231.582031 192.976562 234.601562 196.898438 233.277344 201.785156 C 231.84375 207.15625 230.210938 209.816406 222.277344 211.660156 L 219.273438 212.355469 C 221.628906 216.851562 223.367188 221.609375 223.367188 225.863281 L 223.367188 260.726562 C 223.367188 266.546875 219.335938 271.472656 214.636719 273.3125 L 214.636719 289.640625 C 214.636719 292.824219 212.0625 295.382812 208.871094 295.382812 L 192.566406 295.382812 C 189.375 295.382812 186.824219 292.824219 186.824219 289.640625 L 186.824219 274.109375 L 78.554688 274.109375 L 78.554688 289.640625 C 78.554688 292.824219 75.980469 295.382812 72.808594 295.382812 L 56.5 295.382812 C 53.3125 295.382812 50.761719 292.824219 50.761719 289.640625 L 50.761719 273.3125 C 46.0625 271.472656 42.015625 266.566406 42.015625 260.726562 L 42.015625 225.863281 C 42.015625 221.609375 43.734375 216.851562 46.097656 212.355469 L 43.074219 211.660156 C 35.164062 209.816406 33.53125 207.160156 32.101562 201.785156 C 30.796875 196.898438 33.800781 192.976562 38.84375 192.976562 L 56.953125 192.976562 C 61.035156 181.632812 65.683594 170.417969 72.894531 159.8125 C 76.058594 155.152344 80.472656 151.101562 87.324219 150.167969 C 102.113281 148.101562 117.550781 148.164062 132.691406 148.164062 Z M 132.691406 157.253906 C 119.648438 157.273438 105.570312 157.726562 93.652344 158.539062 C 89.140625 158.847656 84.996094 161.304688 82.234375 165.796875 C 76.246094 175.488281 70.957031 184.554688 67.585938 194.695312 C 67.585938 194.695312 104.957031 198.429688 132.695312 198.429688 C 160.417969 198.429688 197.804688 194.695312 197.804688 194.695312 C 194.449219 184.574219 189.136719 175.484375 183.152344 165.796875 C 180.371094 161.304688 176.222656 158.847656 171.703125 158.539062 C 159.789062 157.726562 145.707031 157.273438 132.691406 157.253906 Z M 199.59375 224.039062 C 191.253906 225.492188 182.363281 227.578125 178.441406 237.507812 C 176.339844 242.84375 177.851562 246.4375 183.917969 245.515625 C 190.230469 244.558594 202.066406 243.089844 207.707031 241.019531 C 214.550781 238.507812 213.125 230.882812 211.855469 227.023438 C 210.921875 224.121094 207.929688 222.605469 199.59375 224.039062 Z M 53.519531 227.023438 C 52.253906 230.882812 50.800781 238.511719 57.667969 241.019531 C 63.292969 243.089844 75.136719 244.558594 81.457031 245.515625 C 87.523438 246.4375 89.042969 242.84375 86.933594 237.507812 C 83.007812 227.578125 74.117188 225.492188 65.761719 224.039062 C 57.421875 222.605469 54.464844 224.121094 53.519531 227.023438 Z M 167.429688 227.289062 L 97.929688 227.289062 C 94.988281 227.289062 94.328125 230.699219 95.679688 234.011719 C 98.542969 240.980469 105.898438 245.664062 113.359375 245.664062 L 152.007812 245.664062 C 159.484375 245.664062 166.84375 240.980469 169.703125 234.011719 C 171.046875 230.699219 170.351562 227.714844 167.429688 227.289062 Z M 167.429688 227.289062 "/></g></svg>