<svg xmlns="http://www.w3.org/2000/svg" xmlns:xlink="http://www.w3.org/1999/xlink" width="500" zoomAndPan="magnify" viewBox="0 0 375 374.999991" height="500" preserveAspectRatio="xMidYMid meet" version="1.2"><defs><clipPath id="dd467a9f80"><path d="M 6.355469 6.355469 L 368.644531 6.355469 L 368.644531 368.644531 L 6.355469 368.644531 Z M 6.355469 6.355469 "/></clipPath><clipPath id="ca72b62518"><path d="M 187.5 6.355469 C 87.457031 6.355469 6.355469 87.457031 6.355469 187.5 C 6.355469 287.542969 87.457031 368.644531 187.5 368.644531 C 287.542969 368.644531 368.644531 287.542969 368.644531 187.5 C 368.644531 87.457031 287.542969 6.355469 187.5 6.355469 Z M 187.5 6.355469 "/></clipPath><clipPath id="7238db56aa"><path d="M 70.480469 39.011719 L 304.480469 39.011719 L 304.480469 329.859375 L 70.480469 329.859375 Z M 70.480469 39.011719 "/></clipPath></defs><g id="ff29113073"><g clip-rule="nonzero" clip-path="url(#dd467a9f80)"><g clip-rule="nonzero" clip-path="url(#ca72b62518)"><path style=" stroke:none;fill-rule:nonzero;fill:#e1f7ff;fill-opacity:1;" d="M 6.355469 6.355469 L 368.644531 6.355469 L 368.644531 368.644531 L 6.355469 368.644531 Z M 6.355469 6.355469 "/></g></g><g clip-rule="nonzero" clip-path="url(#7238db56aa)"><path style=" stroke:none;fill-rule:nonzero;fill:#8b5cf6;fill-opacity:1;" d="M 177.71875 148.417969 L 200.878906 148.417969 L 200.878906 162.773438 C 213.683594 167.601562 222.15625 179.867188 222.15625 193.550781 L 199.355469 193.550781 C 199.355469 187.972656 194.863281 183.480469 189.285156 183.480469 C 183.734375 183.480469 179.242188 187.972656 179.242188 193.550781 C 179.242188 197.476562 181.539062 201.089844 185.152344 202.71875 L 203.019531 212.21875 C 219.054688 220.691406 225.175781 240.597656 216.65625 256.632812 C 213.222656 263.164062 207.644531 268.355469 200.878906 271.324219 L 200.878906 286.351562 L 177.71875 286.351562 L 177.71875 272.5625 C 164.058594 268.25 154.761719 255.574219 154.761719 241.242188 L 177.585938 241.242188 C 177.585938 246.792969 182.082031 251.289062 187.632812 251.289062 C 193.183594 251.289062 197.675781 246.792969 197.675781 241.242188 C 197.675781 237.523438 195.636719 234.089844 192.332031 232.359375 L 173.894531 222.574219 C 157.859375 214.078125 151.742188 194.195312 160.261719 178.164062 C 164.007812 171.0625 170.230469 165.613281 177.71875 162.773438 Z M 198.039062 39.039062 C 196.203125 39.117188 194.371094 39.660156 192.796875 40.613281 L 183.011719 46.554688 C 180.660156 47.945312 177.769531 48.152344 175.265625 47.070312 L 165.710938 42.964844 C 163.875 42.164062 161.734375 42.316406 160.03125 43.402344 L 146.859375 51.664062 C 144.949219 52.851562 142.601562 53.214844 140.40625 52.621094 L 133.847656 50.863281 C 131.34375 50.195312 128.683594 50.8125 126.746094 52.515625 L 111.796875 65.738281 C 110.195312 67.15625 110.039062 69.609375 111.460938 71.210938 C 111.820312 71.652344 112.3125 71.988281 112.828125 72.21875 C 127.855469 78.621094 141.050781 88.691406 151.199219 101.472656 C 151.871094 102.328125 151.742188 103.539062 150.890625 104.210938 C 150.554688 104.46875 150.113281 104.625 149.675781 104.625 L 143.890625 104.625 C 140.792969 104.648438 138.289062 107.207031 138.3125 110.304688 C 138.339844 113.378906 140.820312 115.882812 143.890625 115.90625 L 146.472656 115.90625 C 147.53125 115.90625 148.410156 116.761719 148.410156 117.84375 C 148.410156 118.488281 148.101562 119.058594 147.558594 119.445312 C 105.726562 148.417969 77.996094 193.628906 71.078125 244.03125 C 67.304688 271.582031 81.558594 298.460938 106.476562 310.832031 C 157.601562 336.1875 217.660156 336.1875 268.8125 310.832031 C 293.730469 298.460938 307.957031 271.582031 304.164062 244.03125 C 297.269531 193.628906 269.511719 148.417969 227.679688 119.445312 C 226.828125 118.824219 226.597656 117.613281 227.214844 116.734375 C 227.578125 116.21875 228.171875 115.90625 228.816406 115.90625 L 231.371094 115.90625 C 234.472656 115.882812 237 113.324219 236.949219 110.226562 C 236.925781 107.128906 234.445312 104.648438 231.371094 104.625 L 220.890625 104.625 C 219.804688 104.625 218.925781 103.746094 218.953125 102.6875 C 218.953125 102.429688 218.980469 102.195312 219.082031 101.964844 C 226.570312 83.246094 241.105469 68.191406 259.542969 60.058594 C 261.53125 59.179688 262.410156 56.90625 261.558594 54.945312 C 261.53125 54.894531 261.480469 54.816406 261.453125 54.765625 C 256.910156 45.648438 246.582031 40.949219 236.71875 43.480469 L 223.730469 48.746094 C 221.226562 49.78125 218.410156 49.523438 216.136719 48.078125 L 204.441406 40.71875 C 202.53125 39.503906 200.308594 38.910156 198.039062 39.011719 L 198.039062 39.039062 "/></g></g></svg>