<svg xmlns="http://www.w3.org/2000/svg" xmlns:xlink="http://www.w3.org/1999/xlink" width="500" zoomAndPan="magnify" viewBox="0 0 375 374.999991" height="500" preserveAspectRatio="xMidYMid meet" version="1.2"><defs><clipPath id="73b1856749"><path d="M 6.355469 6.355469 L 368.644531 6.355469 L 368.644531 368.644531 L 6.355469 368.644531 Z M 6.355469 6.355469 "/></clipPath><clipPath id="eb335b1386"><path d="M 187.5 6.355469 C 87.457031 6.355469 6.355469 87.457031 6.355469 187.5 C 6.355469 287.542969 87.457031 368.644531 187.5 368.644531 C 287.542969 368.644531 368.644531 287.542969 368.644531 187.5 C 368.644531 87.457031 287.542969 6.355469 187.5 6.355469 Z M 187.5 6.355469 "/></clipPath><clipPath id="ff364bc1e1"><path d="M 53.335938 202 L 134 202 L 134 306 L 53.335938 306 Z M 53.335938 202 "/></clipPath><clipPath id="732beac762"><path d="M 241 202 L 321.835938 202 L 321.835938 306 L 241 306 Z M 241 202 "/></clipPath><clipPath id="a42706fa86"><path d="M 106 37.5 L 269 37.5 L 269 193 L 106 193 Z M 106 37.5 "/></clipPath></defs><g id="a97021ad19"><g clip-rule="nonzero" clip-path="url(#73b1856749)"><g clip-rule="nonzero" clip-path="url(#eb335b1386)"><path style=" stroke:none;fill-rule:nonzero;fill:#e1f7ff;fill-opacity:1;" d="M 6.355469 6.355469 L 368.644531 6.355469 L 368.644531 368.644531 L 6.355469 368.644531 Z M 6.355469 6.355469 "/></g></g><path style=" stroke:none;fill-rule:nonzero;fill:#8b5cf6;fill-opacity:1;" d="M 75.695312 171.171875 C 75.695312 172.050781 75.738281 172.925781 75.824219 173.800781 C 75.910156 174.675781 76.039062 175.542969 76.210938 176.40625 C 76.382812 177.265625 76.597656 178.117188 76.851562 178.960938 C 77.105469 179.800781 77.402344 180.625 77.738281 181.4375 C 78.074219 182.25 78.449219 183.042969 78.863281 183.820312 C 79.277344 184.59375 79.730469 185.347656 80.21875 186.078125 C 80.707031 186.808594 81.230469 187.511719 81.785156 188.191406 C 82.34375 188.871094 82.933594 189.523438 83.554688 190.144531 C 84.175781 190.765625 84.828125 191.355469 85.507812 191.910156 C 86.183594 192.46875 86.890625 192.992188 87.621094 193.480469 C 88.351562 193.96875 89.105469 194.421875 89.878906 194.835938 C 90.65625 195.25 91.449219 195.625 92.261719 195.960938 C 93.070312 196.296875 93.898438 196.59375 94.738281 196.847656 C 95.582031 197.101562 96.433594 197.316406 97.292969 197.488281 C 98.15625 197.660156 99.023438 197.789062 99.898438 197.875 C 100.773438 197.960938 101.648438 198.003906 102.527344 198.003906 C 103.40625 198.003906 104.285156 197.960938 105.160156 197.875 C 106.03125 197.789062 106.902344 197.660156 107.761719 197.488281 C 108.625 197.316406 109.476562 197.101562 110.316406 196.847656 C 111.160156 196.59375 111.984375 196.296875 112.796875 195.960938 C 113.609375 195.625 114.402344 195.25 115.175781 194.835938 C 115.953125 194.421875 116.703125 193.96875 117.4375 193.480469 C 118.167969 192.992188 118.871094 192.46875 119.550781 191.910156 C 120.230469 191.355469 120.878906 190.765625 121.5 190.144531 C 122.125 189.523438 122.710938 188.871094 123.269531 188.191406 C 123.828125 187.511719 124.351562 186.808594 124.839844 186.078125 C 125.328125 185.347656 125.777344 184.59375 126.191406 183.820312 C 126.605469 183.042969 126.980469 182.25 127.316406 181.4375 C 127.65625 180.625 127.949219 179.800781 128.207031 178.960938 C 128.460938 178.117188 128.671875 177.265625 128.84375 176.40625 C 129.015625 175.542969 129.144531 174.675781 129.230469 173.800781 C 129.316406 172.925781 129.359375 172.050781 129.359375 171.171875 C 129.359375 170.292969 129.316406 169.414062 129.230469 168.539062 C 129.144531 167.664062 129.015625 166.796875 128.84375 165.933594 C 128.671875 165.074219 128.460938 164.222656 128.207031 163.382812 C 127.949219 162.539062 127.65625 161.714844 127.316406 160.902344 C 126.980469 160.089844 126.605469 159.296875 126.191406 158.519531 C 125.777344 157.746094 125.328125 156.992188 124.839844 156.261719 C 124.351562 155.53125 123.828125 154.828125 123.269531 154.148438 C 122.710938 153.46875 122.125 152.816406 121.5 152.195312 C 120.878906 151.574219 120.230469 150.984375 119.550781 150.429688 C 118.871094 149.871094 118.167969 149.347656 117.4375 148.859375 C 116.703125 148.371094 115.953125 147.921875 115.175781 147.507812 C 114.402344 147.09375 113.609375 146.714844 112.796875 146.378906 C 111.984375 146.042969 111.160156 145.75 110.316406 145.492188 C 109.476562 145.238281 108.625 145.023438 107.761719 144.851562 C 106.902344 144.683594 106.03125 144.554688 105.160156 144.46875 C 104.285156 144.378906 103.40625 144.335938 102.527344 144.335938 C 101.648438 144.335938 100.773438 144.378906 99.898438 144.46875 C 99.023438 144.554688 98.15625 144.683594 97.292969 144.851562 C 96.433594 145.023438 95.582031 145.238281 94.738281 145.492188 C 93.898438 145.75 93.070312 146.042969 92.261719 146.378906 C 91.449219 146.714844 90.65625 147.09375 89.878906 147.507812 C 89.105469 147.921875 88.351562 148.371094 87.621094 148.859375 C 86.890625 149.347656 86.183594 149.871094 85.507812 150.429688 C 84.828125 150.984375 84.175781 151.574219 83.554688 152.195312 C 82.933594 152.816406 82.34375 153.46875 81.785156 154.148438 C 81.230469 154.828125 80.707031 155.53125 80.21875 156.261719 C 79.730469 156.992188 79.277344 157.746094 78.863281 158.519531 C 78.449219 159.296875 78.074219 160.089844 77.738281 160.902344 C 77.402344 161.714844 77.105469 162.539062 76.851562 163.382812 C 76.597656 164.222656 76.382812 165.074219 76.210938 165.933594 C 76.039062 166.796875 75.910156 167.664062 75.824219 168.539062 C 75.738281 169.414062 75.695312 170.292969 75.695312 171.171875 Z M 102.527344 153.28125 C 103.113281 153.28125 103.699219 153.3125 104.28125 153.367188 C 104.863281 153.425781 105.445312 153.511719 106.019531 153.625 C 106.59375 153.738281 107.160156 153.882812 107.722656 154.050781 C 108.28125 154.222656 108.832031 154.417969 109.375 154.644531 C 109.914062 154.867188 110.445312 155.117188 110.960938 155.394531 C 111.476562 155.671875 111.980469 155.972656 112.464844 156.296875 C 112.953125 156.621094 113.421875 156.96875 113.875 157.34375 C 114.328125 157.714844 114.761719 158.105469 115.175781 158.519531 C 115.589844 158.933594 115.984375 159.367188 116.355469 159.820312 C 116.726562 160.273438 117.078125 160.746094 117.402344 161.230469 C 117.726562 161.71875 118.027344 162.222656 118.304688 162.738281 C 118.582031 163.253906 118.832031 163.785156 119.054688 164.324219 C 119.277344 164.867188 119.476562 165.417969 119.644531 165.976562 C 119.816406 166.539062 119.957031 167.105469 120.074219 167.679688 C 120.1875 168.253906 120.273438 168.832031 120.332031 169.417969 C 120.386719 170 120.417969 170.585938 120.417969 171.171875 C 120.417969 171.757812 120.386719 172.339844 120.332031 172.921875 C 120.273438 173.507812 120.1875 174.085938 120.074219 174.660156 C 119.957031 175.234375 119.816406 175.800781 119.644531 176.363281 C 119.476562 176.921875 119.277344 177.472656 119.054688 178.015625 C 118.832031 178.558594 118.582031 179.085938 118.304688 179.601562 C 118.027344 180.121094 117.726562 180.621094 117.402344 181.109375 C 117.078125 181.59375 116.726562 182.066406 116.355469 182.519531 C 115.984375 182.972656 115.589844 183.40625 115.175781 183.820312 C 114.761719 184.234375 114.328125 184.625 113.875 184.996094 C 113.421875 185.371094 112.953125 185.71875 112.464844 186.042969 C 111.980469 186.371094 111.476562 186.671875 110.960938 186.945312 C 110.445312 187.222656 109.914062 187.472656 109.375 187.695312 C 108.832031 187.921875 108.28125 188.117188 107.722656 188.289062 C 107.160156 188.457031 106.59375 188.601562 106.019531 188.714844 C 105.445312 188.828125 104.863281 188.914062 104.28125 188.972656 C 103.699219 189.03125 103.113281 189.058594 102.527344 189.058594 C 101.941406 189.058594 101.359375 189.03125 100.773438 188.972656 C 100.191406 188.914062 99.613281 188.828125 99.039062 188.714844 C 98.464844 188.601562 97.894531 188.457031 97.335938 188.289062 C 96.773438 188.117188 96.222656 187.921875 95.683594 187.695312 C 95.140625 187.472656 94.613281 187.222656 94.097656 186.945312 C 93.578125 186.671875 93.078125 186.371094 92.589844 186.042969 C 92.101562 185.71875 91.632812 185.371094 91.179688 184.996094 C 90.726562 184.625 90.292969 184.234375 89.878906 183.820312 C 89.464844 183.40625 89.070312 182.972656 88.699219 182.519531 C 88.328125 182.066406 87.980469 181.59375 87.65625 181.109375 C 87.328125 180.621094 87.027344 180.121094 86.753906 179.601562 C 86.476562 179.085938 86.226562 178.558594 86 178.015625 C 85.777344 177.472656 85.582031 176.921875 85.410156 176.363281 C 85.242188 175.800781 85.097656 175.234375 84.984375 174.660156 C 84.871094 174.085938 84.785156 173.507812 84.726562 172.921875 C 84.667969 172.339844 84.640625 171.757812 84.640625 171.171875 C 84.640625 170.585938 84.667969 170 84.726562 169.417969 C 84.785156 168.832031 84.871094 168.253906 84.984375 167.679688 C 85.097656 167.105469 85.242188 166.539062 85.410156 165.976562 C 85.582031 165.417969 85.777344 164.867188 86 164.324219 C 86.226562 163.785156 86.476562 163.253906 86.753906 162.738281 C 87.027344 162.222656 87.328125 161.71875 87.65625 161.230469 C 87.980469 160.746094 88.328125 160.273438 88.699219 159.820312 C 89.070312 159.367188 89.464844 158.933594 89.878906 158.519531 C 90.292969 158.105469 90.726562 157.714844 91.179688 157.34375 C 91.632812 156.96875 92.101562 156.621094 92.589844 156.296875 C 93.078125 155.972656 93.578125 155.671875 94.097656 155.394531 C 94.613281 155.117188 95.140625 154.867188 95.683594 154.644531 C 96.222656 154.417969 96.773438 154.222656 97.335938 154.050781 C 97.894531 153.882812 98.464844 153.738281 99.039062 153.625 C 99.613281 153.511719 100.191406 153.425781 100.773438 153.367188 C 101.359375 153.3125 101.941406 153.28125 102.527344 153.28125 Z M 102.527344 153.28125 "/><path style=" stroke:none;fill-rule:nonzero;fill:#8b5cf6;fill-opacity:1;" d="M 129.359375 305.332031 C 129.65625 305.332031 129.945312 305.304688 130.234375 305.246094 C 130.519531 305.1875 130.800781 305.105469 131.070312 304.992188 C 131.34375 304.878906 131.601562 304.742188 131.84375 304.578125 C 132.089844 304.414062 132.316406 304.230469 132.523438 304.023438 C 132.730469 303.816406 132.914062 303.589844 133.078125 303.34375 C 133.242188 303.101562 133.378906 302.84375 133.492188 302.570312 C 133.605469 302.300781 133.691406 302.019531 133.746094 301.734375 C 133.804688 301.445312 133.832031 301.152344 133.832031 300.859375 L 133.832031 296.03125 C 144.027344 294.375 151.722656 287.085938 151.722656 278.5 L 151.722656 274.027344 C 151.722656 273.734375 151.691406 273.441406 151.636719 273.15625 C 151.578125 272.867188 151.492188 272.585938 151.378906 272.316406 C 151.269531 272.046875 151.128906 271.789062 150.96875 271.542969 C 150.804688 271.300781 150.617188 271.074219 150.410156 270.867188 C 150.203125 270.65625 149.976562 270.472656 149.734375 270.308594 C 149.488281 270.144531 149.230469 270.007812 148.960938 269.894531 C 148.6875 269.785156 148.410156 269.699219 148.121094 269.640625 C 147.832031 269.585938 147.542969 269.554688 147.25 269.554688 C 146.957031 269.554688 146.664062 269.585938 146.375 269.640625 C 146.089844 269.699219 145.808594 269.785156 145.539062 269.894531 C 145.265625 270.007812 145.007812 270.144531 144.765625 270.308594 C 144.519531 270.472656 144.292969 270.65625 144.085938 270.867188 C 143.878906 271.074219 143.695312 271.300781 143.53125 271.542969 C 143.367188 271.789062 143.230469 272.046875 143.117188 272.316406 C 143.003906 272.585938 142.921875 272.867188 142.863281 273.15625 C 142.804688 273.441406 142.777344 273.734375 142.777344 274.027344 L 142.777344 278.5 C 142.777344 282.300781 138.976562 285.609375 133.832031 286.863281 L 133.832031 238.25 C 133.832031 237.957031 133.804688 237.667969 133.746094 237.378906 C 133.691406 237.089844 133.605469 236.8125 133.492188 236.539062 C 133.378906 236.269531 133.242188 236.011719 133.078125 235.765625 C 132.914062 235.523438 132.730469 235.296875 132.523438 235.089844 C 132.316406 234.882812 132.089844 234.695312 131.84375 234.53125 C 131.601562 234.371094 131.34375 234.230469 131.070312 234.121094 C 130.800781 234.007812 130.519531 233.921875 130.234375 233.863281 C 129.945312 233.808594 129.65625 233.777344 129.359375 233.777344 C 129.066406 233.777344 128.777344 233.808594 128.488281 233.863281 C 128.199219 233.921875 127.921875 234.007812 127.648438 234.121094 C 127.378906 234.230469 127.121094 234.371094 126.875 234.53125 C 126.632812 234.695312 126.40625 234.882812 126.199219 235.089844 C 125.992188 235.296875 125.804688 235.523438 125.640625 235.765625 C 125.480469 236.011719 125.339844 236.269531 125.230469 236.539062 C 125.117188 236.8125 125.03125 237.089844 124.972656 237.378906 C 124.917969 237.667969 124.886719 237.957031 124.890625 238.25 L 124.890625 300.859375 C 124.886719 301.152344 124.917969 301.445312 124.972656 301.734375 C 125.03125 302.019531 125.117188 302.300781 125.230469 302.570312 C 125.339844 302.84375 125.480469 303.101562 125.640625 303.34375 C 125.804688 303.589844 125.992188 303.816406 126.199219 304.023438 C 126.40625 304.230469 126.632812 304.414062 126.875 304.578125 C 127.121094 304.742188 127.378906 304.878906 127.648438 304.992188 C 127.921875 305.105469 128.199219 305.1875 128.488281 305.246094 C 128.777344 305.304688 129.066406 305.332031 129.359375 305.332031 Z M 129.359375 305.332031 "/><g clip-rule="nonzero" clip-path="url(#ff364bc1e1)"><path style=" stroke:none;fill-rule:nonzero;fill:#8b5cf6;fill-opacity:1;" d="M 84.640625 211.417969 L 120.417969 211.417969 C 123.03125 211.410156 125.59375 211.769531 128.109375 212.492188 C 128.390625 212.574219 128.675781 212.628906 128.96875 212.652344 C 129.261719 212.679688 129.554688 212.675781 129.847656 212.644531 C 130.140625 212.613281 130.425781 212.550781 130.703125 212.464844 C 130.984375 212.375 131.253906 212.261719 131.511719 212.121094 C 131.769531 211.980469 132.007812 211.8125 132.234375 211.625 C 132.460938 211.4375 132.664062 211.226562 132.847656 211 C 133.03125 210.769531 133.191406 210.523438 133.328125 210.265625 C 133.460938 210.003906 133.570312 209.734375 133.652344 209.449219 C 133.734375 209.167969 133.789062 208.882812 133.816406 208.589844 C 133.839844 208.296875 133.839844 208.003906 133.804688 207.710938 C 133.773438 207.421875 133.714844 207.136719 133.625 206.855469 C 133.539062 206.574219 133.421875 206.304688 133.28125 206.046875 C 133.140625 205.792969 132.976562 205.550781 132.785156 205.324219 C 132.597656 205.101562 132.390625 204.894531 132.160156 204.710938 C 131.929688 204.527344 131.6875 204.367188 131.425781 204.234375 C 131.164062 204.097656 130.894531 203.988281 130.613281 203.90625 C 127.28125 202.949219 123.882812 202.472656 120.417969 202.476562 L 84.640625 202.476562 C 67.378906 202.476562 53.335938 214.503906 53.335938 229.308594 L 53.335938 278.5 C 53.335938 287.132812 61.027344 294.375 71.222656 296.03125 L 71.222656 300.859375 C 71.222656 301.152344 71.253906 301.445312 71.308594 301.734375 C 71.367188 302.019531 71.453125 302.300781 71.5625 302.570312 C 71.675781 302.84375 71.8125 303.101562 71.976562 303.34375 C 72.140625 303.589844 72.324219 303.816406 72.535156 304.023438 C 72.742188 304.230469 72.96875 304.414062 73.210938 304.578125 C 73.457031 304.742188 73.714844 304.878906 73.984375 304.992188 C 74.253906 305.105469 74.535156 305.1875 74.824219 305.246094 C 75.113281 305.304688 75.402344 305.332031 75.695312 305.332031 C 75.988281 305.332031 76.28125 305.304688 76.570312 305.246094 C 76.855469 305.1875 77.136719 305.105469 77.40625 304.992188 C 77.679688 304.878906 77.9375 304.742188 78.179688 304.578125 C 78.425781 304.414062 78.652344 304.230469 78.859375 304.023438 C 79.066406 303.816406 79.25 303.589844 79.414062 303.34375 C 79.578125 303.101562 79.714844 302.84375 79.828125 302.570312 C 79.941406 302.300781 80.023438 302.019531 80.082031 301.734375 C 80.140625 301.445312 80.167969 301.152344 80.167969 300.859375 L 80.167969 238.25 C 80.167969 237.957031 80.140625 237.667969 80.082031 237.378906 C 80.023438 237.089844 79.941406 236.8125 79.828125 236.539062 C 79.714844 236.269531 79.578125 236.011719 79.414062 235.765625 C 79.25 235.523438 79.066406 235.296875 78.859375 235.089844 C 78.652344 234.882812 78.425781 234.695312 78.179688 234.53125 C 77.9375 234.371094 77.679688 234.230469 77.40625 234.121094 C 77.136719 234.007812 76.855469 233.921875 76.570312 233.863281 C 76.28125 233.808594 75.988281 233.777344 75.695312 233.777344 C 75.402344 233.777344 75.113281 233.808594 74.824219 233.863281 C 74.535156 233.921875 74.253906 234.007812 73.984375 234.121094 C 73.714844 234.230469 73.457031 234.371094 73.210938 234.53125 C 72.96875 234.695312 72.742188 234.882812 72.535156 235.089844 C 72.324219 235.296875 72.140625 235.523438 71.976562 235.765625 C 71.8125 236.011719 71.675781 236.269531 71.5625 236.539062 C 71.453125 236.8125 71.367188 237.089844 71.308594 237.378906 C 71.253906 237.667969 71.222656 237.957031 71.222656 238.25 L 71.222656 286.863281 C 66.082031 285.609375 62.28125 282.390625 62.28125 278.5 L 62.28125 229.308594 C 62.28125 219.421875 72.296875 211.417969 84.640625 211.417969 Z M 84.640625 211.417969 "/></g><path style=" stroke:none;fill-rule:nonzero;fill:#8b5cf6;fill-opacity:1;" d="M 272.46875 198.003906 C 273.347656 198.003906 274.222656 197.960938 275.097656 197.875 C 275.972656 197.789062 276.839844 197.660156 277.703125 197.488281 C 278.5625 197.316406 279.414062 197.101562 280.257812 196.847656 C 281.097656 196.59375 281.921875 196.296875 282.734375 195.960938 C 283.546875 195.625 284.339844 195.25 285.117188 194.835938 C 285.890625 194.421875 286.644531 193.96875 287.375 193.480469 C 288.105469 192.992188 288.808594 192.46875 289.488281 191.910156 C 290.167969 191.355469 290.820312 190.765625 291.441406 190.144531 C 292.0625 189.523438 292.652344 188.871094 293.207031 188.191406 C 293.765625 187.511719 294.289062 186.808594 294.777344 186.078125 C 295.265625 185.347656 295.71875 184.59375 296.132812 183.820312 C 296.546875 183.042969 296.921875 182.25 297.257812 181.4375 C 297.59375 180.625 297.890625 179.800781 298.144531 178.960938 C 298.398438 178.117188 298.613281 177.265625 298.785156 176.40625 C 298.957031 175.542969 299.085938 174.675781 299.171875 173.800781 C 299.257812 172.925781 299.300781 172.050781 299.300781 171.171875 C 299.300781 170.292969 299.257812 169.414062 299.171875 168.539062 C 299.085938 167.664062 298.957031 166.796875 298.785156 165.933594 C 298.613281 165.074219 298.398438 164.222656 298.144531 163.382812 C 297.890625 162.539062 297.59375 161.714844 297.257812 160.902344 C 296.921875 160.089844 296.546875 159.296875 296.132812 158.519531 C 295.71875 157.746094 295.265625 156.992188 294.777344 156.261719 C 294.289062 155.53125 293.765625 154.828125 293.207031 154.148438 C 292.652344 153.46875 292.0625 152.816406 291.441406 152.195312 C 290.820312 151.574219 290.167969 150.984375 289.488281 150.429688 C 288.808594 149.871094 288.105469 149.347656 287.375 148.859375 C 286.644531 148.371094 285.890625 147.921875 285.117188 147.507812 C 284.339844 147.09375 283.546875 146.714844 282.734375 146.378906 C 281.921875 146.042969 281.097656 145.75 280.257812 145.492188 C 279.414062 145.238281 278.5625 145.023438 277.703125 144.851562 C 276.839844 144.683594 275.972656 144.554688 275.097656 144.46875 C 274.222656 144.378906 273.347656 144.335938 272.46875 144.335938 C 271.589844 144.335938 270.710938 144.378906 269.835938 144.46875 C 268.960938 144.554688 268.09375 144.683594 267.230469 144.851562 C 266.371094 145.023438 265.519531 145.238281 264.679688 145.492188 C 263.835938 145.75 263.011719 146.042969 262.199219 146.378906 C 261.386719 146.714844 260.59375 147.09375 259.816406 147.507812 C 259.042969 147.921875 258.289062 148.371094 257.558594 148.859375 C 256.828125 149.347656 256.125 149.871094 255.445312 150.429688 C 254.765625 150.984375 254.113281 151.574219 253.492188 152.195312 C 252.871094 152.816406 252.28125 153.46875 251.726562 154.148438 C 251.167969 154.828125 250.644531 155.53125 250.15625 156.261719 C 249.667969 156.992188 249.21875 157.746094 248.804688 158.519531 C 248.386719 159.296875 248.011719 160.089844 247.675781 160.902344 C 247.339844 161.714844 247.046875 162.539062 246.789062 163.382812 C 246.535156 164.222656 246.320312 165.074219 246.148438 165.933594 C 245.980469 166.796875 245.851562 167.664062 245.765625 168.539062 C 245.675781 169.414062 245.632812 170.292969 245.632812 171.171875 C 245.632812 172.050781 245.675781 172.925781 245.765625 173.800781 C 245.851562 174.675781 245.980469 175.542969 246.148438 176.40625 C 246.320312 177.265625 246.535156 178.117188 246.789062 178.960938 C 247.046875 179.800781 247.339844 180.625 247.675781 181.4375 C 248.011719 182.25 248.386719 183.042969 248.804688 183.820312 C 249.21875 184.59375 249.667969 185.347656 250.15625 186.078125 C 250.644531 186.808594 251.167969 187.511719 251.726562 188.191406 C 252.28125 188.871094 252.871094 189.523438 253.492188 190.144531 C 254.113281 190.765625 254.765625 191.355469 255.445312 191.910156 C 256.125 192.46875 256.828125 192.992188 257.558594 193.480469 C 258.289062 193.96875 259.042969 194.421875 259.816406 194.835938 C 260.59375 195.25 261.386719 195.625 262.199219 195.960938 C 263.011719 196.296875 263.835938 196.59375 264.679688 196.847656 C 265.519531 197.101562 266.371094 197.316406 267.230469 197.488281 C 268.09375 197.660156 268.960938 197.789062 269.835938 197.875 C 270.710938 197.960938 271.589844 198.003906 272.46875 198.003906 Z M 272.46875 153.28125 C 273.054688 153.28125 273.636719 153.3125 274.21875 153.367188 C 274.804688 153.425781 275.382812 153.511719 275.957031 153.625 C 276.53125 153.738281 277.097656 153.882812 277.660156 154.050781 C 278.21875 154.222656 278.769531 154.417969 279.3125 154.644531 C 279.855469 154.867188 280.382812 155.117188 280.898438 155.394531 C 281.417969 155.671875 281.917969 155.972656 282.40625 156.296875 C 282.890625 156.621094 283.363281 156.96875 283.816406 157.34375 C 284.269531 157.714844 284.703125 158.105469 285.117188 158.519531 C 285.53125 158.933594 285.921875 159.367188 286.292969 159.820312 C 286.667969 160.273438 287.015625 160.746094 287.339844 161.230469 C 287.667969 161.71875 287.96875 162.222656 288.242188 162.738281 C 288.519531 163.253906 288.769531 163.785156 288.992188 164.324219 C 289.21875 164.867188 289.414062 165.417969 289.585938 165.976562 C 289.753906 166.539062 289.898438 167.105469 290.011719 167.679688 C 290.125 168.253906 290.210938 168.832031 290.269531 169.417969 C 290.328125 170 290.355469 170.585938 290.355469 171.171875 C 290.355469 171.757812 290.328125 172.339844 290.269531 172.921875 C 290.210938 173.507812 290.125 174.085938 290.011719 174.660156 C 289.898438 175.234375 289.753906 175.800781 289.585938 176.363281 C 289.414062 176.921875 289.21875 177.472656 288.992188 178.015625 C 288.769531 178.558594 288.519531 179.085938 288.242188 179.601562 C 287.96875 180.121094 287.667969 180.621094 287.339844 181.109375 C 287.015625 181.59375 286.667969 182.066406 286.292969 182.519531 C 285.921875 182.972656 285.53125 183.40625 285.117188 183.820312 C 284.703125 184.234375 284.269531 184.625 283.816406 184.996094 C 283.363281 185.371094 282.890625 185.71875 282.40625 186.042969 C 281.917969 186.371094 281.417969 186.671875 280.898438 186.945312 C 280.382812 187.222656 279.855469 187.472656 279.3125 187.695312 C 278.769531 187.921875 278.21875 188.117188 277.660156 188.289062 C 277.097656 188.457031 276.53125 188.601562 275.957031 188.714844 C 275.382812 188.828125 274.804688 188.914062 274.21875 188.972656 C 273.636719 189.03125 273.054688 189.058594 272.46875 189.058594 C 271.882812 189.058594 271.296875 189.03125 270.714844 188.972656 C 270.128906 188.914062 269.550781 188.828125 268.976562 188.714844 C 268.402344 188.601562 267.835938 188.457031 267.273438 188.289062 C 266.714844 188.117188 266.164062 187.921875 265.621094 187.695312 C 265.082031 187.472656 264.550781 187.222656 264.035156 186.945312 C 263.519531 186.671875 263.015625 186.371094 262.527344 186.042969 C 262.042969 185.71875 261.570312 185.371094 261.117188 184.996094 C 260.664062 184.625 260.230469 184.234375 259.816406 183.820312 C 259.402344 183.40625 259.011719 182.972656 258.640625 182.519531 C 258.265625 182.066406 257.917969 181.59375 257.59375 181.109375 C 257.269531 180.621094 256.96875 180.121094 256.691406 179.601562 C 256.414062 179.085938 256.164062 178.558594 255.941406 178.015625 C 255.714844 177.472656 255.519531 176.921875 255.347656 176.363281 C 255.179688 175.800781 255.035156 175.234375 254.921875 174.660156 C 254.808594 174.085938 254.722656 173.507812 254.664062 172.921875 C 254.609375 172.339844 254.578125 171.757812 254.578125 171.171875 C 254.578125 170.585938 254.609375 170 254.664062 169.417969 C 254.722656 168.832031 254.808594 168.253906 254.921875 167.679688 C 255.035156 167.105469 255.179688 166.539062 255.347656 165.976562 C 255.519531 165.417969 255.714844 164.867188 255.941406 164.324219 C 256.164062 163.785156 256.414062 163.253906 256.691406 162.738281 C 256.96875 162.222656 257.269531 161.71875 257.59375 161.230469 C 257.917969 160.746094 258.265625 160.273438 258.640625 159.820312 C 259.011719 159.367188 259.402344 158.933594 259.816406 158.519531 C 260.230469 158.105469 260.664062 157.714844 261.117188 157.34375 C 261.570312 156.96875 262.042969 156.621094 262.527344 156.296875 C 263.015625 155.972656 263.519531 155.671875 264.035156 155.394531 C 264.550781 155.117188 265.082031 154.867188 265.621094 154.644531 C 266.164062 154.417969 266.714844 154.222656 267.273438 154.050781 C 267.835938 153.882812 268.402344 153.738281 268.976562 153.625 C 269.550781 153.511719 270.128906 153.425781 270.714844 153.367188 C 271.296875 153.3125 271.882812 153.28125 272.46875 153.28125 Z M 272.46875 153.28125 "/><path style=" stroke:none;fill-rule:nonzero;fill:#8b5cf6;fill-opacity:1;" d="M 245.632812 305.332031 C 245.929688 305.332031 246.21875 305.304688 246.507812 305.246094 C 246.796875 305.1875 247.074219 305.105469 247.347656 304.992188 C 247.617188 304.878906 247.875 304.742188 248.117188 304.578125 C 248.363281 304.414062 248.589844 304.230469 248.796875 304.023438 C 249.003906 303.816406 249.191406 303.589844 249.351562 303.34375 C 249.515625 303.101562 249.652344 302.84375 249.765625 302.570312 C 249.878906 302.300781 249.964844 302.019531 250.019531 301.734375 C 250.078125 301.445312 250.105469 301.152344 250.105469 300.859375 L 250.105469 238.25 C 250.105469 237.957031 250.078125 237.667969 250.019531 237.378906 C 249.964844 237.089844 249.878906 236.8125 249.765625 236.539062 C 249.652344 236.269531 249.515625 236.011719 249.351562 235.765625 C 249.191406 235.523438 249.003906 235.296875 248.796875 235.089844 C 248.589844 234.882812 248.363281 234.695312 248.117188 234.53125 C 247.875 234.371094 247.617188 234.230469 247.347656 234.121094 C 247.074219 234.007812 246.796875 233.921875 246.507812 233.863281 C 246.21875 233.808594 245.929688 233.777344 245.632812 233.777344 C 245.339844 233.777344 245.050781 233.808594 244.761719 233.863281 C 244.472656 233.921875 244.195312 234.007812 243.921875 234.121094 C 243.652344 234.230469 243.394531 234.371094 243.148438 234.53125 C 242.90625 234.695312 242.679688 234.882812 242.472656 235.089844 C 242.265625 235.296875 242.078125 235.523438 241.917969 235.765625 C 241.753906 236.011719 241.617188 236.269531 241.503906 236.539062 C 241.390625 236.8125 241.304688 237.089844 241.25 237.378906 C 241.191406 237.667969 241.164062 237.957031 241.164062 238.25 L 241.164062 286.863281 C 236.019531 285.609375 232.21875 282.390625 232.21875 278.5 L 232.21875 274.027344 C 232.21875 273.734375 232.191406 273.441406 232.132812 273.15625 C 232.074219 272.867188 231.992188 272.585938 231.878906 272.316406 C 231.765625 272.046875 231.628906 271.789062 231.464844 271.542969 C 231.300781 271.300781 231.117188 271.074219 230.910156 270.867188 C 230.699219 270.65625 230.476562 270.472656 230.230469 270.308594 C 229.988281 270.144531 229.730469 270.007812 229.457031 269.894531 C 229.1875 269.785156 228.90625 269.699219 228.617188 269.640625 C 228.332031 269.585938 228.039062 269.554688 227.746094 269.554688 C 227.453125 269.554688 227.160156 269.585938 226.875 269.640625 C 226.585938 269.699219 226.304688 269.785156 226.035156 269.894531 C 225.761719 270.007812 225.507812 270.144531 225.261719 270.308594 C 225.015625 270.472656 224.792969 270.65625 224.585938 270.867188 C 224.375 271.074219 224.191406 271.300781 224.027344 271.542969 C 223.863281 271.789062 223.726562 272.046875 223.613281 272.316406 C 223.503906 272.585938 223.417969 272.867188 223.359375 273.15625 C 223.304688 273.441406 223.273438 273.734375 223.273438 274.027344 L 223.273438 278.5 C 223.273438 287.132812 230.964844 294.375 241.164062 296.03125 L 241.164062 300.859375 C 241.164062 301.152344 241.191406 301.445312 241.25 301.734375 C 241.304688 302.019531 241.390625 302.300781 241.503906 302.570312 C 241.617188 302.84375 241.753906 303.101562 241.917969 303.34375 C 242.078125 303.589844 242.265625 303.816406 242.472656 304.023438 C 242.679688 304.230469 242.90625 304.414062 243.148438 304.578125 C 243.394531 304.742188 243.652344 304.878906 243.921875 304.992188 C 244.195312 305.105469 244.472656 305.1875 244.761719 305.246094 C 245.050781 305.304688 245.339844 305.332031 245.632812 305.332031 Z M 245.632812 305.332031 "/><g clip-rule="nonzero" clip-path="url(#732beac762)"><path style=" stroke:none;fill-rule:nonzero;fill:#8b5cf6;fill-opacity:1;" d="M 290.355469 202.476562 L 254.578125 202.476562 C 251.113281 202.472656 247.714844 202.949219 244.382812 203.90625 C 244.101562 203.988281 243.828125 204.097656 243.566406 204.230469 C 243.308594 204.367188 243.0625 204.527344 242.832031 204.710938 C 242.601562 204.894531 242.394531 205.097656 242.207031 205.324219 C 242.015625 205.550781 241.851562 205.789062 241.710938 206.046875 C 241.566406 206.304688 241.453125 206.574219 241.363281 206.855469 C 241.277344 207.132812 241.214844 207.421875 241.183594 207.714844 C 241.152344 208.003906 241.148438 208.296875 241.175781 208.589844 C 241.199219 208.882812 241.253906 209.171875 241.335938 209.453125 C 241.417969 209.734375 241.527344 210.007812 241.664062 210.265625 C 241.800781 210.527344 241.960938 210.773438 242.144531 211 C 242.328125 211.230469 242.53125 211.4375 242.757812 211.628906 C 242.980469 211.816406 243.222656 211.980469 243.480469 212.121094 C 243.738281 212.265625 244.007812 212.378906 244.289062 212.464844 C 244.570312 212.554688 244.855469 212.613281 245.148438 212.644531 C 245.441406 212.679688 245.730469 212.679688 246.023438 212.65625 C 246.316406 212.628906 246.605469 212.574219 246.886719 212.492188 C 249.398438 211.769531 251.964844 211.410156 254.578125 211.417969 L 290.355469 211.417969 C 302.699219 211.417969 312.714844 219.421875 312.714844 229.308594 L 312.714844 278.5 C 312.714844 282.300781 308.914062 285.609375 303.773438 286.863281 L 303.773438 238.25 C 303.769531 237.957031 303.742188 237.667969 303.683594 237.378906 C 303.628906 237.089844 303.542969 236.8125 303.429688 236.539062 C 303.320312 236.269531 303.179688 236.011719 303.019531 235.765625 C 302.855469 235.523438 302.667969 235.296875 302.460938 235.089844 C 302.253906 234.882812 302.027344 234.695312 301.785156 234.53125 C 301.539062 234.371094 301.28125 234.230469 301.011719 234.121094 C 300.738281 234.007812 300.460938 233.921875 300.171875 233.863281 C 299.882812 233.808594 299.59375 233.777344 299.300781 233.777344 C 299.003906 233.777344 298.714844 233.808594 298.425781 233.863281 C 298.140625 233.921875 297.859375 234.007812 297.589844 234.121094 C 297.316406 234.230469 297.058594 234.371094 296.816406 234.53125 C 296.570312 234.695312 296.34375 234.882812 296.136719 235.089844 C 295.929688 235.296875 295.742188 235.523438 295.582031 235.765625 C 295.417969 236.011719 295.28125 236.269531 295.167969 236.539062 C 295.054688 236.8125 294.96875 237.089844 294.914062 237.378906 C 294.855469 237.667969 294.828125 237.957031 294.828125 238.25 L 294.828125 300.859375 C 294.828125 301.152344 294.855469 301.445312 294.914062 301.734375 C 294.96875 302.019531 295.054688 302.300781 295.167969 302.570312 C 295.28125 302.84375 295.417969 303.101562 295.582031 303.34375 C 295.742188 303.589844 295.929688 303.816406 296.136719 304.023438 C 296.34375 304.230469 296.570312 304.414062 296.816406 304.578125 C 297.058594 304.742188 297.316406 304.878906 297.589844 304.992188 C 297.859375 305.105469 298.140625 305.1875 298.425781 305.246094 C 298.714844 305.304688 299.003906 305.332031 299.300781 305.332031 C 299.59375 305.332031 299.882812 305.304688 300.171875 305.246094 C 300.460938 305.1875 300.738281 305.105469 301.011719 304.992188 C 301.28125 304.878906 301.539062 304.742188 301.785156 304.578125 C 302.027344 304.414062 302.253906 304.230469 302.460938 304.023438 C 302.667969 303.816406 302.855469 303.589844 303.019531 303.34375 C 303.179688 303.101562 303.320312 302.84375 303.429688 302.570312 C 303.542969 302.300781 303.628906 302.019531 303.683594 301.734375 C 303.742188 301.445312 303.769531 301.152344 303.773438 300.859375 L 303.773438 296.03125 C 313.96875 294.375 321.660156 287.085938 321.660156 278.5 L 321.660156 229.308594 C 321.660156 214.503906 307.617188 202.476562 290.355469 202.476562 Z M 290.355469 202.476562 "/></g><path style=" stroke:none;fill-rule:nonzero;fill:#8b5cf6;fill-opacity:1;" d="M 214.332031 162.226562 C 214.332031 161.347656 214.285156 160.46875 214.199219 159.597656 C 214.113281 158.722656 213.984375 157.851562 213.816406 156.992188 C 213.644531 156.128906 213.429688 155.277344 213.175781 154.4375 C 212.917969 153.597656 212.625 152.769531 212.289062 151.957031 C 211.953125 151.144531 211.574219 150.351562 211.160156 149.578125 C 210.746094 148.800781 210.296875 148.050781 209.808594 147.320312 C 209.320312 146.589844 208.796875 145.882812 208.238281 145.203125 C 207.683594 144.523438 207.09375 143.875 206.472656 143.253906 C 205.851562 142.632812 205.199219 142.042969 204.519531 141.484375 C 203.839844 140.925781 203.136719 140.402344 202.40625 139.914062 C 201.675781 139.425781 200.921875 138.976562 200.144531 138.5625 C 199.371094 138.148438 198.578125 137.773438 197.765625 137.4375 C 196.953125 137.101562 196.128906 136.804688 195.285156 136.550781 C 194.445312 136.292969 193.59375 136.082031 192.730469 135.910156 C 191.871094 135.738281 191.003906 135.609375 190.128906 135.523438 C 189.253906 135.4375 188.375 135.394531 187.496094 135.394531 C 186.617188 135.394531 185.742188 135.4375 184.867188 135.523438 C 183.992188 135.609375 183.125 135.738281 182.261719 135.910156 C 181.402344 136.082031 180.550781 136.292969 179.707031 136.550781 C 178.867188 136.804688 178.042969 137.101562 177.230469 137.4375 C 176.417969 137.773438 175.625 138.148438 174.847656 138.5625 C 174.074219 138.976562 173.320312 139.425781 172.589844 139.914062 C 171.859375 140.402344 171.15625 140.925781 170.476562 141.484375 C 169.796875 142.042969 169.144531 142.632812 168.523438 143.253906 C 167.902344 143.875 167.3125 144.523438 166.757812 145.203125 C 166.199219 145.882812 165.675781 146.589844 165.1875 147.320312 C 164.699219 148.050781 164.246094 148.800781 163.832031 149.578125 C 163.417969 150.351562 163.042969 151.144531 162.707031 151.957031 C 162.371094 152.769531 162.074219 153.597656 161.820312 154.4375 C 161.566406 155.277344 161.351562 156.128906 161.179688 156.992188 C 161.007812 157.851562 160.878906 158.722656 160.792969 159.597656 C 160.707031 160.46875 160.664062 161.347656 160.664062 162.226562 C 160.664062 163.105469 160.707031 163.980469 160.792969 164.855469 C 160.878906 165.730469 161.007812 166.597656 161.179688 167.460938 C 161.351562 168.324219 161.566406 169.175781 161.820312 170.015625 C 162.074219 170.855469 162.371094 171.683594 162.707031 172.496094 C 163.042969 173.304688 163.417969 174.101562 163.832031 174.875 C 164.246094 175.648438 164.699219 176.402344 165.1875 177.132812 C 165.675781 177.863281 166.199219 178.570312 166.757812 179.25 C 167.3125 179.925781 167.902344 180.578125 168.523438 181.199219 C 169.144531 181.820312 169.796875 182.410156 170.476562 182.96875 C 171.15625 183.523438 171.859375 184.046875 172.589844 184.535156 C 173.320312 185.023438 174.074219 185.476562 174.847656 185.890625 C 175.625 186.304688 176.417969 186.679688 177.230469 187.015625 C 178.042969 187.351562 178.867188 187.648438 179.707031 187.902344 C 180.550781 188.15625 181.402344 188.371094 182.261719 188.542969 C 183.125 188.714844 183.992188 188.84375 184.867188 188.929688 C 185.742188 189.015625 186.617188 189.058594 187.496094 189.058594 C 188.375 189.058594 189.253906 189.015625 190.128906 188.929688 C 191.003906 188.84375 191.871094 188.714844 192.730469 188.542969 C 193.59375 188.371094 194.445312 188.15625 195.285156 187.902344 C 196.128906 187.648438 196.953125 187.351562 197.765625 187.015625 C 198.578125 186.679688 199.371094 186.304688 200.144531 185.890625 C 200.921875 185.476562 201.675781 185.023438 202.40625 184.535156 C 203.136719 184.046875 203.839844 183.523438 204.519531 182.96875 C 205.199219 182.410156 205.851562 181.820312 206.472656 181.199219 C 207.09375 180.578125 207.683594 179.925781 208.238281 179.25 C 208.796875 178.570312 209.320312 177.863281 209.808594 177.132812 C 210.296875 176.402344 210.746094 175.648438 211.160156 174.875 C 211.574219 174.101562 211.953125 173.304688 212.289062 172.496094 C 212.625 171.683594 212.917969 170.855469 213.175781 170.015625 C 213.429688 169.175781 213.644531 168.324219 213.816406 167.460938 C 213.984375 166.597656 214.113281 165.730469 214.199219 164.855469 C 214.285156 163.980469 214.332031 163.105469 214.332031 162.226562 Z M 169.609375 162.226562 C 169.609375 161.640625 169.636719 161.054688 169.695312 160.472656 C 169.753906 159.890625 169.839844 159.3125 169.953125 158.734375 C 170.066406 158.160156 170.210938 157.59375 170.378906 157.035156 C 170.550781 156.472656 170.746094 155.921875 170.972656 155.378906 C 171.195312 154.839844 171.445312 154.308594 171.722656 153.792969 C 171.996094 153.277344 172.296875 152.773438 172.625 152.289062 C 172.949219 151.800781 173.296875 151.332031 173.667969 150.878906 C 174.042969 150.425781 174.433594 149.992188 174.847656 149.578125 C 175.261719 149.164062 175.695312 148.769531 176.148438 148.398438 C 176.601562 148.027344 177.074219 147.679688 177.558594 147.351562 C 178.046875 147.027344 178.546875 146.726562 179.066406 146.449219 C 179.582031 146.171875 180.109375 145.921875 180.652344 145.699219 C 181.195312 145.476562 181.746094 145.277344 182.304688 145.109375 C 182.867188 144.9375 183.433594 144.796875 184.007812 144.679688 C 184.582031 144.566406 185.160156 144.480469 185.746094 144.425781 C 186.328125 144.367188 186.910156 144.335938 187.496094 144.335938 C 188.082031 144.335938 188.667969 144.367188 189.25 144.425781 C 189.835938 144.480469 190.414062 144.566406 190.988281 144.679688 C 191.5625 144.796875 192.128906 144.9375 192.691406 145.109375 C 193.25 145.277344 193.800781 145.476562 194.34375 145.699219 C 194.882812 145.921875 195.414062 146.171875 195.929688 146.449219 C 196.445312 146.726562 196.949219 147.027344 197.4375 147.351562 C 197.921875 147.679688 198.394531 148.027344 198.847656 148.398438 C 199.296875 148.769531 199.730469 149.164062 200.148438 149.578125 C 200.5625 149.992188 200.953125 150.425781 201.324219 150.878906 C 201.695312 151.332031 202.046875 151.800781 202.371094 152.289062 C 202.695312 152.773438 202.996094 153.277344 203.273438 153.792969 C 203.550781 154.308594 203.800781 154.839844 204.023438 155.378906 C 204.25 155.921875 204.445312 156.472656 204.617188 157.035156 C 204.785156 157.59375 204.929688 158.160156 205.042969 158.734375 C 205.15625 159.3125 205.242188 159.890625 205.300781 160.472656 C 205.355469 161.054688 205.386719 161.640625 205.386719 162.226562 C 205.386719 162.8125 205.355469 163.394531 205.300781 163.980469 C 205.242188 164.5625 205.15625 165.140625 205.042969 165.714844 C 204.929688 166.289062 204.785156 166.859375 204.617188 167.417969 C 204.445312 167.980469 204.25 168.53125 204.023438 169.070312 C 203.800781 169.613281 203.550781 170.140625 203.273438 170.660156 C 202.996094 171.175781 202.695312 171.675781 202.371094 172.164062 C 202.046875 172.652344 201.695312 173.121094 201.324219 173.574219 C 200.953125 174.027344 200.5625 174.460938 200.148438 174.875 C 199.730469 175.289062 199.296875 175.683594 198.847656 176.054688 C 198.394531 176.425781 197.921875 176.773438 197.4375 177.097656 C 196.949219 177.425781 196.445312 177.726562 195.929688 178.003906 C 195.414062 178.277344 194.882812 178.527344 194.34375 178.753906 C 193.800781 178.976562 193.25 179.175781 192.691406 179.34375 C 192.128906 179.515625 191.5625 179.65625 190.988281 179.769531 C 190.414062 179.886719 189.835938 179.972656 189.25 180.027344 C 188.667969 180.085938 188.082031 180.113281 187.496094 180.113281 C 186.910156 180.113281 186.328125 180.085938 185.746094 180.027344 C 185.160156 179.972656 184.582031 179.886719 184.007812 179.769531 C 183.433594 179.65625 182.867188 179.515625 182.304688 179.34375 C 181.746094 179.175781 181.195312 178.976562 180.652344 178.753906 C 180.109375 178.527344 179.582031 178.277344 179.066406 178.003906 C 178.546875 177.726562 178.046875 177.425781 177.558594 177.097656 C 177.074219 176.773438 176.601562 176.425781 176.148438 176.054688 C 175.695312 175.683594 175.261719 175.289062 174.847656 174.875 C 174.433594 174.460938 174.042969 174.027344 173.667969 173.574219 C 173.296875 173.121094 172.949219 172.652344 172.625 172.164062 C 172.296875 171.675781 171.996094 171.175781 171.722656 170.660156 C 171.445312 170.140625 171.195312 169.613281 170.972656 169.070312 C 170.746094 168.53125 170.550781 167.980469 170.378906 167.417969 C 170.210938 166.859375 170.066406 166.289062 169.953125 165.714844 C 169.839844 165.140625 169.753906 164.5625 169.695312 163.980469 C 169.636719 163.394531 169.609375 162.8125 169.609375 162.226562 Z M 169.609375 162.226562 "/><path style=" stroke:none;fill-rule:nonzero;fill:#8b5cf6;fill-opacity:1;" d="M 214.332031 305.332031 C 214.625 305.332031 214.914062 305.304688 215.203125 305.246094 C 215.492188 305.1875 215.769531 305.105469 216.042969 304.992188 C 216.3125 304.878906 216.570312 304.742188 216.816406 304.578125 C 217.058594 304.414062 217.285156 304.230469 217.492188 304.023438 C 217.699219 303.816406 217.886719 303.589844 218.046875 303.34375 C 218.210938 303.101562 218.347656 302.84375 218.460938 302.570312 C 218.574219 302.300781 218.660156 302.019531 218.714844 301.734375 C 218.773438 301.445312 218.800781 301.152344 218.800781 300.859375 L 218.800781 260.613281 L 223.273438 260.613281 C 224.15625 260.613281 225.027344 260.527344 225.890625 260.355469 C 226.753906 260.183594 227.59375 259.925781 228.410156 259.589844 C 229.222656 259.253906 229.996094 258.839844 230.726562 258.351562 C 231.460938 257.859375 232.136719 257.304688 232.761719 256.683594 C 233.382812 256.058594 233.941406 255.382812 234.429688 254.648438 C 234.917969 253.917969 235.332031 253.144531 235.667969 252.328125 C 236.007812 251.515625 236.261719 250.675781 236.433594 249.8125 C 236.605469 248.949219 236.691406 248.078125 236.691406 247.195312 L 236.691406 220.363281 C 236.691406 205.558594 222.648438 193.53125 205.386719 193.53125 L 169.609375 193.53125 C 152.347656 193.53125 138.304688 205.558594 138.304688 220.363281 L 138.304688 247.195312 C 138.304688 248.078125 138.390625 248.949219 138.5625 249.8125 C 138.734375 250.675781 138.988281 251.515625 139.324219 252.328125 C 139.664062 253.144531 140.078125 253.917969 140.566406 254.648438 C 141.054688 255.382812 141.613281 256.058594 142.234375 256.683594 C 142.855469 257.304688 143.535156 257.859375 144.265625 258.351562 C 145 258.839844 145.773438 259.253906 146.585938 259.589844 C 147.402344 259.925781 148.238281 260.183594 149.105469 260.355469 C 149.96875 260.527344 150.839844 260.613281 151.722656 260.613281 L 156.191406 260.613281 L 156.191406 300.859375 C 156.191406 301.152344 156.222656 301.445312 156.277344 301.734375 C 156.335938 302.019531 156.421875 302.300781 156.535156 302.570312 C 156.644531 302.84375 156.785156 303.101562 156.945312 303.34375 C 157.109375 303.589844 157.296875 303.816406 157.503906 304.023438 C 157.710938 304.230469 157.9375 304.414062 158.179688 304.578125 C 158.425781 304.742188 158.683594 304.878906 158.953125 304.992188 C 159.226562 305.105469 159.503906 305.1875 159.792969 305.246094 C 160.082031 305.304688 160.371094 305.332031 160.664062 305.332031 C 160.957031 305.332031 161.25 305.304688 161.539062 305.246094 C 161.824219 305.1875 162.105469 305.105469 162.375 304.992188 C 162.648438 304.878906 162.90625 304.742188 163.148438 304.578125 C 163.394531 304.414062 163.621094 304.230469 163.828125 304.023438 C 164.035156 303.816406 164.21875 303.589844 164.382812 303.34375 C 164.546875 303.101562 164.683594 302.84375 164.796875 302.570312 C 164.910156 302.300781 164.992188 302.019531 165.050781 301.734375 C 165.109375 301.445312 165.136719 301.152344 165.136719 300.859375 L 165.136719 260.613281 L 209.859375 260.613281 L 209.859375 300.859375 C 209.859375 301.152344 209.886719 301.445312 209.945312 301.734375 C 210 302.019531 210.085938 302.300781 210.199219 302.570312 C 210.3125 302.84375 210.449219 303.101562 210.613281 303.34375 C 210.773438 303.589844 210.960938 303.816406 211.167969 304.023438 C 211.375 304.230469 211.601562 304.414062 211.84375 304.578125 C 212.089844 304.742188 212.347656 304.878906 212.617188 304.992188 C 212.890625 305.105469 213.167969 305.1875 213.457031 305.246094 C 213.746094 305.304688 214.035156 305.332031 214.332031 305.332031 Z M 147.25 220.363281 C 147.25 210.480469 157.265625 202.476562 169.609375 202.476562 L 205.386719 202.476562 C 217.730469 202.476562 227.746094 210.480469 227.746094 220.363281 L 227.746094 247.195312 C 227.746094 247.488281 227.71875 247.78125 227.660156 248.066406 C 227.601562 248.355469 227.519531 248.636719 227.40625 248.90625 C 227.292969 249.179688 227.15625 249.4375 226.992188 249.679688 C 226.828125 249.925781 226.644531 250.148438 226.4375 250.359375 C 226.230469 250.566406 226.003906 250.75 225.757812 250.914062 C 225.515625 251.078125 225.257812 251.214844 224.984375 251.328125 C 224.714844 251.4375 224.433594 251.523438 224.148438 251.582031 C 223.859375 251.640625 223.566406 251.667969 223.273438 251.667969 L 201.851562 251.667969 L 165.136719 235.34375 L 165.136719 234.269531 L 200.421875 238.160156 L 214.332031 238.160156 C 214.625 238.160156 214.914062 238.132812 215.203125 238.074219 C 215.492188 238.019531 215.769531 237.933594 216.042969 237.820312 C 216.3125 237.707031 216.570312 237.570312 216.816406 237.40625 C 217.058594 237.246094 217.285156 237.058594 217.492188 236.851562 C 217.699219 236.644531 217.886719 236.417969 218.046875 236.175781 C 218.210938 235.929688 218.347656 235.671875 218.460938 235.402344 C 218.574219 235.128906 218.660156 234.851562 218.714844 234.5625 C 218.773438 234.273438 218.800781 233.984375 218.800781 233.691406 L 218.800781 224.746094 C 218.800781 224.453125 218.773438 224.160156 218.714844 223.875 C 218.660156 223.585938 218.574219 223.304688 218.460938 223.035156 C 218.347656 222.761719 218.210938 222.503906 218.046875 222.261719 C 217.886719 222.015625 217.699219 221.789062 217.492188 221.582031 C 217.285156 221.375 217.058594 221.191406 216.816406 221.027344 C 216.570312 220.863281 216.3125 220.726562 216.042969 220.613281 C 215.769531 220.5 215.492188 220.417969 215.203125 220.359375 C 214.914062 220.300781 214.625 220.273438 214.332031 220.273438 C 214.035156 220.273438 213.746094 220.300781 213.457031 220.359375 C 213.167969 220.417969 212.890625 220.5 212.617188 220.613281 C 212.347656 220.726562 212.089844 220.863281 211.84375 221.027344 C 211.601562 221.191406 211.375 221.375 211.167969 221.582031 C 210.960938 221.789062 210.773438 222.015625 210.613281 222.261719 C 210.449219 222.503906 210.3125 222.761719 210.199219 223.035156 C 210.085938 223.304688 210 223.585938 209.945312 223.875 C 209.886719 224.160156 209.859375 224.453125 209.859375 224.746094 L 209.859375 229.21875 L 201.183594 229.21875 L 165.136719 225.328125 L 165.136719 224.835938 C 165.136719 224.542969 165.109375 224.25 165.050781 223.960938 C 164.992188 223.675781 164.910156 223.394531 164.796875 223.125 C 164.683594 222.851562 164.546875 222.59375 164.382812 222.351562 C 164.21875 222.105469 164.035156 221.878906 163.828125 221.671875 C 163.621094 221.464844 163.394531 221.28125 163.148438 221.117188 C 162.90625 220.953125 162.648438 220.816406 162.375 220.703125 C 162.105469 220.589844 161.824219 220.507812 161.539062 220.449219 C 161.25 220.390625 160.957031 220.363281 160.664062 220.363281 C 160.371094 220.363281 160.082031 220.390625 159.792969 220.449219 C 159.503906 220.507812 159.226562 220.589844 158.953125 220.703125 C 158.683594 220.816406 158.425781 220.953125 158.179688 221.117188 C 157.9375 221.28125 157.710938 221.464844 157.503906 221.671875 C 157.296875 221.878906 157.109375 222.105469 156.945312 222.351562 C 156.785156 222.59375 156.644531 222.851562 156.535156 223.125 C 156.421875 223.394531 156.335938 223.675781 156.277344 223.960938 C 156.222656 224.25 156.191406 224.542969 156.191406 224.835938 L 156.191406 238.25 C 156.175781 238.414062 156.175781 238.578125 156.191406 238.742188 C 156.125 239.101562 156.125 239.457031 156.191406 239.816406 C 156.308594 240.089844 156.457031 240.34375 156.640625 240.578125 C 156.761719 240.816406 156.914062 241.042969 157.085938 241.246094 C 157.367188 241.496094 157.664062 241.71875 157.980469 241.917969 C 157.980469 241.917969 158.296875 242.1875 158.472656 242.230469 L 179.492188 251.578125 L 151.722656 251.578125 C 151.425781 251.578125 151.136719 251.550781 150.847656 251.492188 C 150.5625 251.433594 150.28125 251.351562 150.007812 251.238281 C 149.738281 251.125 149.480469 250.988281 149.238281 250.824219 C 148.992188 250.660156 148.765625 250.476562 148.558594 250.269531 C 148.351562 250.058594 148.164062 249.835938 148.003906 249.589844 C 147.839844 249.347656 147.703125 249.089844 147.589844 248.816406 C 147.476562 248.546875 147.390625 248.265625 147.335938 247.976562 C 147.277344 247.691406 147.25 247.398438 147.25 247.105469 Z M 147.25 220.363281 "/><path style=" stroke:none;fill-rule:nonzero;fill:#8b5cf6;fill-opacity:1;" d="M 183.027344 287.445312 L 183.027344 300.859375 C 183.027344 301.152344 183.054688 301.445312 183.113281 301.734375 C 183.167969 302.019531 183.253906 302.300781 183.367188 302.570312 C 183.476562 302.84375 183.617188 303.101562 183.777344 303.34375 C 183.941406 303.589844 184.128906 303.816406 184.335938 304.023438 C 184.542969 304.230469 184.769531 304.414062 185.011719 304.578125 C 185.257812 304.742188 185.515625 304.878906 185.785156 304.992188 C 186.058594 305.105469 186.335938 305.1875 186.625 305.246094 C 186.914062 305.304688 187.203125 305.332031 187.496094 305.332031 C 187.792969 305.332031 188.082031 305.304688 188.371094 305.246094 C 188.65625 305.1875 188.9375 305.105469 189.210938 304.992188 C 189.480469 304.878906 189.738281 304.742188 189.980469 304.578125 C 190.226562 304.414062 190.453125 304.230469 190.660156 304.023438 C 190.867188 303.816406 191.054688 303.589844 191.214844 303.34375 C 191.378906 303.101562 191.515625 302.84375 191.628906 302.570312 C 191.742188 302.300781 191.828125 302.019531 191.882812 301.734375 C 191.941406 301.445312 191.96875 301.152344 191.96875 300.859375 L 191.96875 287.445312 C 191.96875 287.148438 191.941406 286.859375 191.882812 286.570312 C 191.828125 286.285156 191.742188 286.003906 191.628906 285.734375 C 191.515625 285.460938 191.378906 285.203125 191.214844 284.960938 C 191.054688 284.714844 190.867188 284.488281 190.660156 284.28125 C 190.453125 284.074219 190.226562 283.890625 189.980469 283.726562 C 189.738281 283.5625 189.480469 283.425781 189.210938 283.3125 C 188.9375 283.199219 188.65625 283.113281 188.371094 283.058594 C 188.082031 283 187.792969 282.972656 187.496094 282.972656 C 187.203125 282.972656 186.914062 283 186.625 283.058594 C 186.335938 283.113281 186.058594 283.199219 185.785156 283.3125 C 185.515625 283.425781 185.257812 283.5625 185.011719 283.726562 C 184.769531 283.890625 184.542969 284.074219 184.335938 284.28125 C 184.128906 284.488281 183.941406 284.714844 183.777344 284.960938 C 183.617188 285.203125 183.476562 285.460938 183.367188 285.734375 C 183.253906 286.003906 183.167969 286.285156 183.113281 286.570312 C 183.054688 286.859375 183.027344 287.148438 183.027344 287.445312 Z M 183.027344 287.445312 "/><g clip-rule="nonzero" clip-path="url(#a42706fa86)"><path style=" stroke:none;fill-rule:nonzero;fill:#8b5cf6;fill-opacity:1;" d="M 267.546875 100.871094 C 268.015625 100.285156 268.316406 99.621094 268.449219 98.886719 C 268.585938 98.148438 268.539062 97.421875 268.308594 96.710938 C 268.074219 96.003906 267.6875 95.390625 267.152344 94.875 C 266.613281 94.363281 265.984375 94.003906 265.265625 93.804688 L 219.472656 80.921875 L 217.59375 79.582031 L 191.210938 39.960938 C 191.003906 39.65625 190.765625 39.378906 190.496094 39.132812 C 190.222656 38.890625 189.925781 38.679688 189.601562 38.507812 C 189.277344 38.335938 188.9375 38.203125 188.582031 38.113281 C 188.226562 38.027344 187.863281 37.980469 187.496094 37.980469 C 187.132812 37.980469 186.769531 38.027344 186.414062 38.113281 C 186.058594 38.203125 185.71875 38.335938 185.394531 38.507812 C 185.070312 38.679688 184.773438 38.890625 184.5 39.132812 C 184.230469 39.378906 183.992188 39.65625 183.785156 39.960938 L 157.402344 79.582031 L 155.523438 80.921875 L 109.726562 93.757812 C 109.371094 93.859375 109.03125 94 108.710938 94.183594 C 108.390625 94.367188 108.097656 94.585938 107.832031 94.84375 C 107.5625 95.101562 107.332031 95.386719 107.136719 95.699219 C 106.941406 96.015625 106.785156 96.347656 106.671875 96.699219 C 106.558594 97.050781 106.492188 97.414062 106.46875 97.78125 C 106.445312 98.152344 106.46875 98.519531 106.535156 98.882812 C 106.601562 99.246094 106.714844 99.597656 106.867188 99.933594 C 107.023438 100.269531 107.214844 100.582031 107.449219 100.871094 L 136.917969 138.167969 L 137.632812 140.359375 L 135.710938 187.894531 C 135.679688 188.644531 135.828125 189.351562 136.152344 190.027344 C 136.476562 190.699219 136.941406 191.257812 137.542969 191.695312 C 138.332031 192.265625 139.210938 192.550781 140.183594 192.546875 C 140.71875 192.546875 141.242188 192.457031 141.75 192.277344 L 153.285156 187.804688 C 153.578125 187.714844 153.855469 187.597656 154.121094 187.449219 C 154.390625 187.304688 154.636719 187.128906 154.867188 186.933594 C 155.101562 186.734375 155.308594 186.515625 155.496094 186.273438 C 155.683594 186.035156 155.84375 185.777344 155.976562 185.503906 C 156.109375 185.230469 156.214844 184.945312 156.292969 184.652344 C 156.367188 184.355469 156.414062 184.058594 156.425781 183.753906 C 156.441406 183.449219 156.425781 183.148438 156.378906 182.847656 C 156.332031 182.546875 156.253906 182.253906 156.148438 181.96875 C 156.042969 181.683594 155.90625 181.410156 155.746094 181.152344 C 155.582031 180.894531 155.398438 180.65625 155.1875 180.4375 C 154.976562 180.21875 154.746094 180.023438 154.492188 179.847656 C 154.242188 179.675781 153.976562 179.53125 153.695312 179.414062 C 153.414062 179.296875 153.125 179.207031 152.828125 179.148438 C 152.527344 179.089844 152.226562 179.0625 151.921875 179.0625 C 151.617188 179.066406 151.316406 179.097656 151.019531 179.164062 C 150.722656 179.226562 150.433594 179.320312 150.15625 179.445312 L 144.921875 181.367188 L 146.578125 139.730469 C 146.664062 139.210938 146.664062 138.6875 146.578125 138.167969 L 145.371094 134.453125 C 145.179688 133.957031 144.925781 133.496094 144.609375 133.066406 L 118.628906 100.554688 L 158.875 89.285156 C 159.398438 89.164062 159.878906 88.941406 160.308594 88.617188 L 163.484375 86.335938 C 163.910156 86.011719 164.269531 85.625 164.554688 85.171875 L 187.496094 50.515625 L 210.617188 85.171875 C 210.90625 85.625 211.265625 86.011719 211.691406 86.335938 L 214.867188 88.617188 C 215.304688 88.933594 215.78125 89.171875 216.296875 89.332031 L 256.546875 100.601562 L 230.742188 133.292969 C 230.40625 133.707031 230.152344 134.171875 229.980469 134.679688 L 228.773438 138.34375 C 228.710938 138.867188 228.710938 139.386719 228.773438 139.910156 L 230.472656 181.546875 L 225.242188 179.621094 C 224.964844 179.519531 224.683594 179.441406 224.390625 179.394531 C 224.101562 179.347656 223.808594 179.328125 223.511719 179.339844 C 223.21875 179.347656 222.929688 179.386719 222.640625 179.457031 C 222.355469 179.523438 222.078125 179.617188 221.808594 179.742188 C 221.539062 179.863281 221.285156 180.011719 221.046875 180.183594 C 220.808594 180.359375 220.589844 180.550781 220.390625 180.769531 C 220.1875 180.984375 220.011719 181.21875 219.855469 181.46875 C 219.703125 181.71875 219.574219 181.984375 219.472656 182.261719 C 219.371094 182.535156 219.300781 182.816406 219.253906 183.105469 C 219.210938 183.394531 219.195312 183.683594 219.207031 183.976562 C 219.21875 184.269531 219.257812 184.558594 219.324219 184.84375 C 219.394531 185.125 219.488281 185.402344 219.613281 185.667969 C 219.734375 185.933594 219.882812 186.183594 220.054688 186.421875 C 220.226562 186.65625 220.417969 186.875 220.632812 187.074219 C 220.847656 187.273438 221.078125 187.449219 221.328125 187.601562 C 221.574219 187.753906 221.835938 187.882812 222.113281 187.984375 L 233.648438 192.457031 C 234.355469 192.71875 235.078125 192.800781 235.824219 192.695312 C 236.570312 192.59375 237.246094 192.320312 237.851562 191.875 C 238.457031 191.433594 238.921875 190.878906 239.246094 190.207031 C 239.570312 189.53125 239.71875 188.820312 239.6875 188.074219 L 237.359375 140.359375 L 238.078125 138.167969 Z M 267.546875 100.871094 "/></g></g></svg>