<svg xmlns="http://www.w3.org/2000/svg" xmlns:xlink="http://www.w3.org/1999/xlink" width="500" zoomAndPan="magnify" viewBox="0 0 375 374.999991" height="500" preserveAspectRatio="xMidYMid meet" version="1.2"><defs><clipPath id="3c9f7879b8"><path d="M 6.355469 6.355469 L 368.644531 6.355469 L 368.644531 368.644531 L 6.355469 368.644531 Z M 6.355469 6.355469 "/></clipPath><clipPath id="7046207a92"><path d="M 187.5 6.355469 C 87.457031 6.355469 6.355469 87.457031 6.355469 187.5 C 6.355469 287.542969 87.457031 368.644531 187.5 368.644531 C 287.542969 368.644531 368.644531 287.542969 368.644531 187.5 C 368.644531 87.457031 287.542969 6.355469 187.5 6.355469 Z M 187.5 6.355469 "/></clipPath><clipPath id="d98941c5c8"><path d="M 66.273438 62.257812 L 230 62.257812 L 230 312.515625 L 66.273438 312.515625 Z M 66.273438 62.257812 "/></clipPath><clipPath id="1e254c3c4b"><path d="M 301 134 L 341.433594 134 L 341.433594 154 L 301 154 Z M 301 134 "/></clipPath></defs><g id="ebe6c805fd"><g clip-rule="nonzero" clip-path="url(#3c9f7879b8)"><g clip-rule="nonzero" clip-path="url(#7046207a92)"><path style=" stroke:none;fill-rule:nonzero;fill:#e1f7ff;fill-opacity:1;" d="M 6.355469 6.355469 L 368.644531 6.355469 L 368.644531 368.644531 L 6.355469 368.644531 Z M 6.355469 6.355469 "/></g></g><g clip-rule="nonzero" clip-path="url(#d98941c5c8)"><path style=" stroke:none;fill-rule:nonzero;fill:#8b5cf6;fill-opacity:1;" d="M 161.050781 300.621094 L 134.921875 300.621094 C 131.484375 300.621094 128.707031 297.851562 128.707031 294.4375 C 128.707031 291.003906 131.484375 288.222656 134.921875 288.222656 L 161.050781 288.222656 C 164.488281 288.222656 167.265625 291.003906 167.265625 294.4375 C 167.265625 297.851562 164.488281 300.621094 161.050781 300.621094 Z M 213 269.378906 C 213 273.210938 209.882812 276.335938 206.039062 276.335938 L 89.933594 276.335938 C 86.097656 276.335938 82.972656 273.210938 82.972656 269.378906 L 82.972656 97.070312 C 82.972656 93.234375 86.097656 90.109375 89.933594 90.109375 L 206.039062 90.109375 C 209.882812 90.109375 213 93.234375 213 97.070312 L 213 110.589844 L 229.699219 110.589844 L 229.699219 78.96875 C 229.699219 69.746094 222.226562 62.269531 213 62.269531 L 82.972656 62.269531 C 73.753906 62.269531 66.273438 69.746094 66.273438 78.96875 L 66.273438 295.816406 C 66.273438 305.035156 73.753906 312.515625 82.972656 312.515625 L 213 312.515625 C 222.226562 312.515625 229.699219 305.035156 229.699219 295.816406 L 229.699219 255.855469 L 213 255.855469 L 213 269.378906 "/></g><path style=" stroke:none;fill-rule:nonzero;fill:#8b5cf6;fill-opacity:1;" d="M 207.980469 195.082031 L 165.820312 195.082031 C 164.234375 195.082031 162.953125 196.363281 162.953125 197.949219 L 162.953125 238.664062 C 162.953125 240.238281 164.234375 241.527344 165.820312 241.527344 L 207.980469 241.527344 C 209.5625 241.527344 210.84375 240.238281 210.84375 238.664062 L 210.84375 197.949219 C 210.84375 196.363281 209.5625 195.082031 207.980469 195.082031 "/><path style=" stroke:none;fill-rule:nonzero;fill:#8b5cf6;fill-opacity:1;" d="M 210.84375 127.785156 C 210.84375 126.199219 209.5625 124.917969 207.980469 124.917969 L 165.820312 124.917969 C 164.234375 124.917969 162.953125 126.199219 162.953125 127.785156 L 162.953125 171.390625 C 162.953125 172.964844 164.234375 174.253906 165.820312 174.253906 L 207.980469 174.253906 C 209.5625 174.253906 210.84375 172.964844 210.84375 171.390625 L 210.84375 127.785156 "/><path style=" stroke:none;fill-rule:nonzero;fill:#8b5cf6;fill-opacity:1;" d="M 276.699219 193.636719 L 234.539062 195.082031 C 232.964844 195.082031 231.683594 196.363281 231.683594 197.949219 L 231.683594 238.664062 C 231.683594 240.238281 232.964844 241.527344 234.539062 241.527344 L 276.699219 241.527344 C 278.28125 241.527344 279.5625 240.238281 279.5625 238.664062 L 279.5625 196.503906 C 279.5625 194.917969 278.28125 193.636719 276.699219 193.636719 "/><path style=" stroke:none;fill-rule:nonzero;fill:#8b5cf6;fill-opacity:1;" d="M 265.816406 118.632812 C 265.019531 117.265625 263.269531 116.796875 261.902344 117.585938 L 225.398438 140.113281 C 224.019531 140.898438 223.554688 142.65625 224.347656 144.023438 L 245.429688 180.53125 C 246.21875 181.90625 247.964844 182.375 249.332031 181.578125 L 285.847656 159.054688 C 287.214844 158.265625 287.683594 156.515625 286.894531 155.140625 L 265.816406 118.632812 "/><path style=" stroke:none;fill-rule:nonzero;fill:#8b5cf6;fill-opacity:1;" d="M 320.46875 96.160156 C 323.828125 92.800781 323.828125 88.808594 320.46875 85.460938 C 317.109375 82.101562 311.671875 82.101562 308.3125 85.460938 L 291.023438 101.300781 C 287.667969 104.660156 287.667969 110.097656 291.023438 113.457031 C 294.382812 116.808594 299.820312 116.808594 303.179688 113.457031 L 320.46875 96.160156 "/><path style=" stroke:none;fill-rule:nonzero;fill:#8b5cf6;fill-opacity:1;" d="M 261.347656 103.34375 C 266.09375 103.34375 269.945312 99.492188 269.945312 94.75 L 269.945312 74.691406 C 269.945312 69.945312 266.09375 66.09375 261.347656 66.09375 C 256.605469 66.09375 252.761719 69.945312 252.761719 74.691406 L 252.761719 94.75 C 252.761719 99.492188 256.605469 103.34375 261.347656 103.34375 "/><g clip-rule="nonzero" clip-path="url(#1e254c3c4b)"><path style=" stroke:none;fill-rule:nonzero;fill:#8b5cf6;fill-opacity:1;" d="M 332.839844 135.980469 L 309.722656 134.535156 C 304.980469 134.535156 301.136719 138.378906 301.136719 143.125 C 301.136719 147.867188 304.980469 151.71875 309.722656 151.71875 L 332.839844 153.167969 C 337.582031 153.167969 341.425781 149.324219 341.425781 144.570312 C 341.425781 139.824219 337.582031 135.980469 332.839844 135.980469 "/></g></g></svg>