<svg xmlns="http://www.w3.org/2000/svg" xmlns:xlink="http://www.w3.org/1999/xlink" width="500" zoomAndPan="magnify" viewBox="0 0 375 374.999991" height="500" preserveAspectRatio="xMidYMid meet" version="1.2"><g id="1a88749279"><rect x="0" width="375" y="0" height="374.999991" style="fill:#ffffff;fill-opacity:1;stroke:none;"/><rect x="0" width="375" y="0" height="374.999991" style="fill:#e1f7ff;fill-opacity:1;stroke:none;"/><path style=" stroke:none;fill-rule:evenodd;fill:#8b5cf6;fill-opacity:1;" d="M 281.195312 97.863281 C 283.960938 97.84375 285.132812 98.710938 285.566406 100.082031 C 286.375 102.515625 287.261719 107.328125 282.957031 108.910156 C 279.410156 110.191406 271.957031 111.125 267.976562 111.738281 C 264.144531 112.304688 263.191406 110.039062 264.535156 106.675781 C 267 100.429688 272.609375 99.125 277.847656 98.210938 C 279.175781 97.992188 280.261719 97.863281 281.195312 97.863281 Z M 235.699219 50.429688 C 226.175781 50.429688 216.453125 50.382812 207.144531 51.695312 C 202.816406 52.277344 200.058594 54.820312 198.050781 57.757812 C 194.851562 62.480469 192.464844 67.375 190.445312 72.371094 C 192.617188 73.417969 194.449219 74.8125 196.03125 76.332031 C 198.101562 71.285156 200.855469 66.527344 203.925781 61.523438 C 205.6875 58.691406 208.296875 57.152344 211.128906 56.980469 C 218.632812 56.453125 227.507812 56.175781 235.703125 56.148438 C 243.925781 56.175781 252.796875 56.453125 260.285156 56.980469 C 263.132812 57.152344 265.742188 58.691406 267.503906 61.523438 C 271.261719 67.613281 274.617188 73.355469 276.726562 79.730469 C 276.726562 79.730469 253.171875 82.082031 235.707031 82.082031 C 221.160156 82.082031 205.171875 80.667969 199.351562 80.121094 C 203.347656 86.625 206.632812 93.847656 209.136719 100.261719 L 257.613281 100.261719 C 259.441406 100.523438 259.871094 102.414062 259.023438 104.480469 C 257.21875 108.871094 252.589844 111.828125 247.890625 111.828125 L 229.246094 111.828125 C 229.273438 113.027344 229.207031 114.222656 228.90625 115.332031 C 228.578125 116.4375 228.203125 117.683594 227.613281 118.921875 C 237.257812 118.398438 246.796875 118.355469 256.046875 118.355469 C 267.9375 118.355469 280.382812 118.375 292.820312 119.527344 L 292.820312 99.347656 C 292.820312 96.675781 291.734375 93.671875 290.253906 90.84375 L 292.144531 90.410156 C 297.125 89.257812 298.171875 87.585938 299.085938 84.195312 C 299.90625 81.128906 298 78.664062 294.820312 78.664062 L 283.40625 78.664062 C 280.863281 71.511719 277.921875 64.445312 273.382812 57.765625 C 271.398438 54.832031 268.597656 52.289062 264.289062 51.703125 C 254.96875 50.386719 245.25 50.429688 235.699219 50.429688 Z M 235.699219 50.429688 "/><path style=" stroke:none;fill-rule:evenodd;fill:#8b5cf6;fill-opacity:1;" d="M 127.785156 131.269531 L 176.15625 131.269531 C 178.199219 131.570312 178.675781 133.632812 177.746094 135.941406 C 175.742188 140.789062 170.632812 144.050781 165.429688 144.050781 L 138.535156 144.050781 C 133.332031 144.050781 128.203125 140.789062 126.222656 135.941406 C 125.261719 133.636719 125.746094 131.269531 127.785156 131.269531 Z M 105.390625 129.007812 C 111.199219 130.007812 117.394531 131.464844 120.132812 138.382812 C 121.613281 142.105469 120.542969 144.601562 116.328125 143.949219 C 111.929688 143.300781 103.671875 142.273438 99.753906 140.835938 C 94.988281 139.078125 95.996094 133.769531 96.859375 131.09375 C 99.53125 127.941406 101.882812 128.613281 105.390625 129.007812 Z M 151.972656 82.53125 C 161.042969 82.53125 170.847656 82.855469 179.132812 83.421875 C 182.289062 83.636719 185.15625 85.332031 187.117188 88.464844 C 191.265625 95.203125 194.96875 101.539062 197.296875 108.558594 C 197.296875 108.558594 171.285156 111.171875 151.972656 111.171875 C 132.679688 111.171875 106.667969 108.558594 106.667969 108.558594 C 108.992188 101.519531 112.695312 95.207031 116.847656 88.464844 C 118.78125 85.332031 121.675781 83.636719 124.808594 83.421875 C 133.089844 82.855469 142.902344 82.53125 151.972656 82.53125 Z M 151.972656 76.203125 C 141.445312 76.203125 130.703125 76.15625 120.394531 77.59375 C 115.628906 78.242188 112.5625 81.050781 110.347656 84.289062 C 105.339844 91.683594 102.101562 99.492188 99.273438 107.378906 L 86.664062 107.378906 C 83.136719 107.378906 81.050781 110.101562 81.964844 113.519531 C 82.957031 117.261719 84.09375 119.105469 89.597656 120.386719 L 91.703125 120.867188 C 90.070312 124.003906 88.855469 127.3125 88.855469 130.265625 L 88.855469 154.535156 C 88.855469 155.734375 89.15625 156.839844 89.574219 157.863281 C 102.972656 156.710938 116.320312 156.710938 129.113281 156.710938 C 144.925781 156.710938 161.5625 156.644531 178.046875 158.867188 C 180.046875 153.816406 182.375 148.859375 184.660156 143.683594 C 190.335938 130.722656 200.074219 122.085938 210.996094 120.386719 C 212.628906 120.148438 214.296875 120.085938 215.957031 119.871094 C 219.960938 119.324219 221.132812 116.824219 222 113.519531 C 222.914062 110.105469 220.808594 107.378906 217.300781 107.378906 L 204.691406 107.378906 C 201.859375 99.492188 198.625 91.679688 193.601562 84.289062 C 191.398438 81.050781 188.332031 78.242188 183.570312 77.59375 C 173.261719 76.160156 162.515625 76.203125 151.972656 76.203125 Z M 151.972656 76.203125 "/><path style=" stroke:none;fill-rule:evenodd;fill:#8b5cf6;fill-opacity:1;" d="M 325.5625 200.730469 C 329.804688 200.6875 331.585938 202.035156 332.257812 204.121094 C 333.484375 207.824219 334.851562 215.195312 328.261719 217.605469 C 322.847656 219.585938 311.449219 221.003906 305.363281 221.917969 C 299.535156 222.808594 298.074219 219.351562 300.09375 214.191406 C 303.878906 204.644531 312.449219 202.648438 320.476562 201.253906 C 322.472656 200.902344 324.152344 200.75 325.5625 200.730469 Z M 256.039062 128.203125 C 241.464844 128.203125 226.585938 128.136719 212.367188 130.117188 C 205.75 131.046875 201.507812 134.921875 198.46875 139.398438 C 193.667969 146.46875 190.09375 153.84375 187.011719 161.300781 C 190.339844 162.78125 193.222656 164.738281 195.6875 166.9375 C 198.820312 159.542969 202.929688 152.515625 207.445312 145.191406 C 210.121094 140.839844 214.128906 138.488281 218.472656 138.210938 C 229.941406 137.425781 243.484375 136.964844 256.039062 136.945312 C 268.582031 136.964844 282.136719 137.421875 293.617188 138.210938 C 297.941406 138.484375 301.945312 140.835938 304.621094 145.191406 C 310.386719 154.492188 315.496094 163.242188 318.714844 172.984375 C 318.714844 172.984375 282.742188 176.589844 256.039062 176.589844 C 234.507812 176.589844 211.519531 174.589844 201.640625 173.703125 C 201.667969 173.738281 201.730469 173.804688 201.753906 173.851562 L 201.753906 173.898438 C 208.582031 183.941406 212.5625 194.230469 216.5 204.382812 L 289.484375 204.382812 C 292.316406 204.800781 292.984375 207.671875 291.660156 210.847656 C 288.921875 217.566406 281.828125 222.066406 274.632812 222.066406 L 247.335938 222.066406 C 247.378906 223.917969 247.164062 225.742188 246.710938 227.484375 L 246.683594 227.484375 C 245.769531 230.917969 244.296875 235.359375 240.550781 239.054688 C 238.8125 240.773438 236.308594 241.140625 234.199219 242.164062 C 234.875 244.667969 236.183594 246.773438 236.417969 249.472656 L 308.171875 249.472656 L 308.171875 264.394531 C 308.171875 267.476562 310.625 269.941406 313.691406 269.941406 L 329.390625 269.941406 C 332.457031 269.941406 334.9375 267.476562 334.9375 264.394531 L 334.9375 248.6875 C 339.460938 246.929688 343.335938 242.183594 343.335938 236.578125 L 343.335938 202.992188 C 343.335938 198.90625 341.683594 194.34375 339.398438 190.011719 L 342.308594 189.339844 C 349.925781 187.554688 351.507812 184.988281 352.878906 179.816406 C 354.144531 175.117188 351.246094 171.359375 346.378906 171.359375 L 328.957031 171.359375 C 325.039062 160.441406 320.5625 149.625 313.597656 139.40625 C 310.554688 134.929688 306.316406 131.054688 299.703125 130.125 C 285.480469 128.136719 270.601562 128.203125 256.039062 128.203125 Z M 256.039062 128.203125 "/><path style=" stroke:none;fill-rule:evenodd;fill:#8b5cf6;fill-opacity:1;" d="M 129.136719 167.589844 C 145.25 167.589844 161.667969 167.523438 177.417969 169.722656 C 184.703125 170.714844 189.398438 175.027344 192.769531 179.984375 C 200.453125 191.273438 205.410156 203.210938 209.734375 215.277344 L 229.003906 215.277344 C 234.378906 215.277344 237.59375 219.453125 236.183594 224.652344 C 234.660156 230.367188 232.921875 233.199219 224.480469 235.164062 L 221.28125 235.902344 C 223.785156 240.6875 225.636719 245.753906 225.636719 250.277344 L 225.636719 287.378906 C 225.636719 293.574219 221.347656 298.816406 216.34375 300.773438 L 216.34375 318.148438 C 216.34375 321.539062 213.605469 324.261719 210.210938 324.261719 L 192.855469 324.261719 C 189.460938 324.261719 186.746094 321.539062 186.746094 318.148438 L 186.746094 301.621094 L 71.527344 301.621094 L 71.527344 318.148438 C 71.527344 321.539062 68.785156 324.261719 65.410156 324.261719 L 48.054688 324.261719 C 44.660156 324.261719 41.945312 321.539062 41.945312 318.148438 L 41.945312 300.773438 C 36.949219 298.816406 32.636719 293.597656 32.636719 287.378906 L 32.636719 250.277344 C 32.636719 245.753906 34.46875 240.6875 36.984375 235.902344 L 33.765625 235.164062 C 25.347656 233.199219 23.609375 230.375 22.085938 224.652344 C 20.699219 219.453125 23.898438 215.277344 29.265625 215.277344 L 48.535156 215.277344 C 52.882812 203.207031 57.824219 191.273438 65.5 179.984375 C 68.871094 175.027344 73.566406 170.714844 80.859375 169.722656 C 96.597656 167.523438 113.023438 167.589844 129.136719 167.589844 Z M 129.136719 177.261719 C 115.257812 177.285156 100.273438 177.765625 87.59375 178.628906 C 82.792969 178.957031 78.378906 181.574219 75.441406 186.355469 C 69.066406 196.667969 63.4375 206.316406 59.851562 217.105469 C 59.851562 217.105469 99.625 221.082031 129.140625 221.082031 C 158.644531 221.082031 198.429688 217.105469 198.429688 217.105469 C 194.859375 206.339844 189.207031 196.664062 182.839844 186.355469 C 179.878906 181.574219 175.464844 178.957031 170.65625 178.628906 C 157.972656 177.765625 142.988281 177.285156 129.136719 177.261719 Z M 200.335938 248.335938 C 191.460938 249.882812 182 252.101562 177.824219 262.671875 C 175.589844 268.351562 177.199219 272.175781 183.652344 271.195312 C 190.371094 270.175781 202.964844 268.609375 208.96875 266.410156 C 216.253906 263.738281 214.738281 255.617188 213.382812 251.515625 C 212.390625 248.425781 209.207031 246.8125 200.335938 248.335938 Z M 44.882812 251.515625 C 43.535156 255.617188 41.988281 263.742188 49.296875 266.410156 C 55.28125 268.609375 67.890625 270.175781 74.613281 271.195312 C 81.070312 272.175781 82.6875 268.351562 80.441406 262.671875 C 76.265625 252.101562 66.804688 249.882812 57.910156 248.335938 C 49.035156 246.8125 45.886719 248.425781 44.882812 251.515625 Z M 166.109375 251.792969 L 92.144531 251.792969 C 89.011719 251.792969 88.3125 255.421875 89.75 258.949219 C 92.796875 266.367188 100.625 271.347656 108.5625 271.347656 L 149.695312 271.347656 C 157.652344 271.347656 165.480469 266.367188 168.527344 258.949219 C 169.957031 255.421875 169.214844 252.25 166.109375 251.792969 Z M 166.109375 251.792969 "/></g></svg>