<svg xmlns="http://www.w3.org/2000/svg" xmlns:xlink="http://www.w3.org/1999/xlink" width="390" zoomAndPan="magnify" viewBox="0 0 292.5 374.999991" height="500" preserveAspectRatio="xMidYMid meet" version="1.2"><defs><clipPath id="e71982ac07"><path d="M 14.058594 8.847656 L 278 8.847656 L 278 368 L 14.058594 368 Z M 14.058594 8.847656 "/></clipPath></defs><g id="ac45f4f123"><g clip-rule="nonzero" clip-path="url(#e71982ac07)"><path style=" stroke:none;fill-rule:nonzero;fill:#8b5cf6;fill-opacity:1;" d="M 145.902344 8.847656 C 73.128906 8.847656 14.070312 67.683594 14.070312 140.242188 C 14.070312 204.105469 116.015625 334.859375 140.589844 365.464844 C 143.316406 368.84375 148.417969 368.84375 151.144531 365.464844 C 175.71875 334.859375 277.660156 204.035156 277.660156 140.242188 C 277.734375 67.683594 218.675781 8.847656 145.902344 8.847656 Z M 145.902344 245.632812 C 117.527344 245.632812 90.941406 234.640625 70.898438 214.667969 C 50.855469 194.695312 39.792969 168.117188 39.792969 139.882812 C 39.792969 111.648438 50.855469 85.066406 70.898438 65.09375 C 90.941406 45.050781 117.527344 33.992188 145.902344 33.992188 C 174.277344 33.992188 200.863281 44.980469 220.90625 64.953125 C 240.949219 84.925781 252.015625 111.507812 252.015625 139.742188 C 252.015625 167.972656 240.949219 194.554688 220.90625 214.527344 C 200.863281 234.640625 174.277344 245.632812 145.902344 245.632812 Z M 145.902344 245.632812 "/></g><path style=" stroke:none;fill-rule:nonzero;fill:#8b5cf6;fill-opacity:1;" d="M 195.257812 157.050781 L 194.46875 157.050781 C 195.613281 155.253906 196.261719 153.101562 196.261719 150.800781 L 196.261719 142.46875 C 196.261719 136.503906 191.808594 131.621094 186.0625 130.90625 L 185.558594 128.53125 L 186.925781 128.53125 L 186.925781 126.808594 L 195.691406 126.808594 C 196.191406 126.808594 196.550781 126.375 196.550781 125.949219 L 196.550781 119.769531 C 196.550781 119.265625 196.117188 118.902344 195.691406 118.902344 L 185.628906 118.902344 C 185.128906 118.902344 184.769531 119.335938 184.769531 119.769531 L 184.769531 124.726562 L 179.597656 102.167969 C 179.234375 100.441406 177.730469 99.292969 176.003906 99.292969 L 160.128906 99.292969 L 158.6875 93.113281 C 158.1875 90.960938 156.75 89.519531 155.097656 89.519531 L 136.777344 89.519531 C 135.128906 89.519531 133.691406 90.960938 133.1875 93.113281 L 131.75 99.292969 L 115.871094 99.292969 C 114.148438 99.292969 112.640625 100.515625 112.28125 102.167969 L 106.824219 126.089844 L 106.824219 119.769531 C 106.824219 119.265625 106.390625 118.902344 105.957031 118.902344 L 95.828125 118.902344 C 95.324219 118.902344 94.96875 119.335938 94.96875 119.769531 L 94.96875 125.949219 C 94.96875 126.445312 95.398438 126.808594 95.828125 126.808594 L 104.59375 126.808594 L 104.59375 128.53125 L 106.246094 128.53125 L 105.671875 130.976562 C 99.925781 131.695312 95.46875 136.652344 95.46875 142.539062 L 95.46875 150.875 C 95.46875 153.171875 96.113281 155.332031 97.265625 157.125 L 96.476562 157.125 C 94.105469 157.125 92.234375 159.066406 92.234375 161.363281 C 92.234375 163.734375 94.175781 165.601562 96.476562 165.601562 L 97.121094 165.601562 L 97.121094 173.507812 C 97.121094 176.164062 99.277344 178.316406 101.9375 178.316406 L 108.542969 178.316406 C 111.203125 178.316406 113.359375 176.164062 113.359375 173.507812 L 113.359375 165.601562 L 178.304688 165.601562 L 178.304688 173.507812 C 178.304688 176.164062 180.457031 178.316406 183.113281 178.316406 L 189.726562 178.316406 C 192.382812 178.316406 194.539062 176.164062 194.539062 173.507812 L 194.539062 165.601562 L 195.1875 165.601562 C 197.558594 165.601562 199.425781 163.664062 199.425781 161.363281 C 199.570312 158.917969 197.628906 157.050781 195.257812 157.050781 Z M 153.445312 94.476562 L 153.734375 94.476562 C 154.382812 94.476562 154.882812 94.980469 154.882812 95.628906 L 154.882812 95.917969 C 154.882812 96.5625 154.382812 97.0625 153.734375 97.0625 L 153.445312 97.0625 C 152.800781 97.0625 152.296875 96.5625 152.296875 95.917969 L 152.296875 95.628906 C 152.296875 95.054688 152.800781 94.476562 153.445312 94.476562 Z M 149.710938 93.113281 C 149.710938 92.46875 150.214844 91.964844 150.859375 91.964844 L 151.144531 91.964844 C 151.792969 91.964844 152.296875 92.46875 152.296875 93.113281 L 152.296875 93.402344 C 152.296875 94.050781 151.792969 94.550781 151.144531 94.550781 L 150.929688 94.550781 C 150.285156 94.550781 149.78125 94.050781 149.78125 93.402344 L 149.78125 93.113281 Z M 148.34375 94.476562 L 148.632812 94.476562 C 149.277344 94.476562 149.78125 94.980469 149.78125 95.628906 L 149.78125 95.917969 C 149.78125 96.5625 149.277344 97.0625 148.632812 97.0625 L 148.34375 97.0625 C 147.699219 97.0625 147.195312 96.5625 147.195312 95.917969 L 147.195312 95.628906 C 147.195312 95.054688 147.699219 94.476562 148.34375 94.476562 Z M 144.609375 93.113281 C 144.609375 92.46875 145.113281 91.964844 145.757812 91.964844 L 146.046875 91.964844 C 146.691406 91.964844 147.195312 92.46875 147.195312 93.113281 L 147.195312 93.402344 C 147.195312 94.050781 146.691406 94.550781 146.046875 94.550781 L 145.757812 94.550781 C 145.113281 94.550781 144.609375 94.050781 144.609375 93.402344 Z M 143.171875 94.476562 L 143.460938 94.476562 C 144.105469 94.476562 144.609375 94.980469 144.609375 95.628906 L 144.609375 95.917969 C 144.609375 96.5625 144.105469 97.0625 143.460938 97.0625 L 143.171875 97.0625 C 142.527344 97.0625 142.023438 96.5625 142.023438 95.917969 L 142.023438 95.628906 C 142.023438 95.054688 142.527344 94.476562 143.171875 94.476562 Z M 139.4375 93.113281 C 139.4375 92.46875 139.941406 91.964844 140.589844 91.964844 L 140.875 91.964844 C 141.519531 91.964844 142.023438 92.46875 142.023438 93.113281 L 142.023438 93.402344 C 142.023438 94.050781 141.519531 94.550781 140.875 94.550781 L 140.589844 94.550781 C 139.941406 94.550781 139.4375 94.050781 139.4375 93.402344 Z M 136.921875 95.628906 C 136.921875 94.980469 137.421875 94.476562 138.074219 94.476562 L 138.359375 94.476562 C 139.003906 94.476562 139.507812 94.980469 139.507812 95.628906 L 139.507812 95.917969 C 139.507812 96.5625 139.003906 97.0625 138.359375 97.0625 L 138.074219 97.0625 C 137.421875 97.0625 136.921875 96.5625 136.921875 95.917969 Z M 116.085938 105.976562 C 116.375 104.894531 117.378906 104.105469 118.457031 104.105469 L 173.703125 104.105469 C 174.851562 104.105469 175.789062 104.894531 176.074219 105.976562 L 180.171875 128.101562 L 112.351562 128.101562 Z M 109.910156 154.109375 C 105.816406 154.109375 102.511719 150.800781 102.511719 146.707031 C 102.511719 142.613281 105.816406 139.308594 109.910156 139.308594 C 114.003906 139.308594 117.308594 142.613281 117.308594 146.707031 C 117.308594 150.800781 114.003906 154.109375 109.910156 154.109375 Z M 167.097656 155.832031 L 124.707031 155.832031 C 124.203125 155.832031 123.847656 155.472656 123.847656 154.96875 C 123.847656 154.464844 124.203125 154.109375 124.707031 154.109375 L 167.097656 154.109375 C 167.601562 154.109375 167.957031 154.464844 167.957031 154.96875 C 167.957031 155.472656 167.601562 155.832031 167.097656 155.832031 Z M 167.097656 150.515625 L 124.707031 150.515625 C 124.203125 150.515625 123.847656 150.15625 123.847656 149.652344 C 123.847656 149.152344 124.203125 148.789062 124.707031 148.789062 L 167.097656 148.789062 C 167.601562 148.789062 167.957031 149.152344 167.957031 149.652344 C 167.957031 150.082031 167.601562 150.515625 167.097656 150.515625 Z M 167.097656 145.199219 L 124.707031 145.199219 C 124.203125 145.199219 123.847656 144.839844 123.847656 144.335938 C 123.847656 143.832031 124.203125 143.476562 124.707031 143.476562 L 167.097656 143.476562 C 167.601562 143.476562 167.957031 143.832031 167.957031 144.335938 C 167.957031 144.769531 167.601562 145.199219 167.097656 145.199219 Z M 181.898438 154.109375 C 177.800781 154.109375 174.496094 150.800781 174.496094 146.707031 C 174.496094 142.613281 177.800781 139.308594 181.898438 139.308594 C 185.988281 139.308594 189.292969 142.613281 189.292969 146.707031 C 189.363281 150.800781 186.0625 154.109375 181.898438 154.109375 Z M 181.898438 154.109375 "/></g></svg>