<svg xmlns="http://www.w3.org/2000/svg" xmlns:xlink="http://www.w3.org/1999/xlink" width="500" zoomAndPan="magnify" viewBox="0 0 375 374.999991" height="500" preserveAspectRatio="xMidYMid meet" version="1.2"><defs><clipPath id="287c3c2d70"><path d="M 65.191406 35.484375 L 309.691406 35.484375 L 309.691406 339.382812 L 65.191406 339.382812 Z M 65.191406 35.484375 "/></clipPath></defs><g id="a241f01031"><rect x="0" width="375" y="0" height="374.999991" style="fill:#ffffff;fill-opacity:1;stroke:none;"/><rect x="0" width="375" y="0" height="374.999991" style="fill:#e1f7ff;fill-opacity:1;stroke:none;"/><g clip-rule="nonzero" clip-path="url(#287c3c2d70)"><path style=" stroke:none;fill-rule:nonzero;fill:#8b5cf6;fill-opacity:1;" d="M 177.238281 149.796875 L 201.441406 149.796875 L 201.441406 164.796875 C 214.820312 169.84375 223.671875 182.65625 223.671875 196.957031 L 199.847656 196.957031 C 199.847656 191.128906 195.152344 186.433594 189.324219 186.433594 C 183.523438 186.433594 178.832031 191.128906 178.832031 196.957031 C 178.832031 201.058594 181.230469 204.835938 185.007812 206.535156 L 203.679688 216.464844 C 220.433594 225.3125 226.828125 246.113281 217.925781 262.867188 C 214.335938 269.695312 208.507812 275.117188 201.441406 278.21875 L 201.441406 293.921875 L 177.238281 293.921875 L 177.238281 279.515625 C 162.964844 275.007812 153.253906 261.761719 153.253906 246.789062 L 177.105469 246.789062 C 177.105469 252.589844 181.796875 257.28125 187.597656 257.28125 C 193.398438 257.28125 198.09375 252.589844 198.09375 246.789062 C 198.09375 242.902344 195.960938 239.316406 192.507812 237.507812 L 173.246094 227.28125 C 156.492188 218.40625 150.097656 197.632812 159 180.875 C 162.914062 173.457031 169.414062 167.765625 177.238281 164.796875 Z M 198.472656 35.511719 C 196.554688 35.589844 194.640625 36.160156 192.996094 37.15625 L 182.769531 43.363281 C 180.316406 44.820312 177.292969 45.035156 174.675781 43.902344 L 164.691406 39.613281 C 162.777344 38.773438 160.539062 38.9375 158.757812 40.070312 L 145 48.703125 C 143 49.945312 140.546875 50.324219 138.253906 49.703125 L 131.402344 47.867188 C 128.785156 47.164062 126.003906 47.8125 123.980469 49.59375 L 108.359375 63.40625 C 106.6875 64.890625 106.523438 67.453125 108.007812 69.128906 C 108.386719 69.585938 108.898438 69.9375 109.4375 70.179688 C 125.140625 76.871094 138.929688 87.394531 149.53125 100.746094 C 150.230469 101.636719 150.097656 102.90625 149.207031 103.605469 C 148.855469 103.878906 148.398438 104.039062 147.9375 104.039062 L 141.894531 104.039062 C 138.65625 104.066406 136.039062 106.738281 136.066406 109.972656 C 136.09375 113.183594 138.683594 115.800781 141.894531 115.828125 L 144.59375 115.828125 C 145.699219 115.828125 146.617188 116.71875 146.617188 117.851562 C 146.617188 118.527344 146.292969 119.121094 145.726562 119.523438 C 102.019531 149.796875 73.042969 197.039062 65.8125 249.703125 C 61.875 278.488281 76.765625 306.574219 102.800781 319.5 C 156.222656 345.992188 218.976562 345.992188 272.421875 319.5 C 298.457031 306.574219 313.324219 278.488281 309.359375 249.703125 C 302.15625 197.039062 273.152344 149.796875 229.445312 119.523438 C 228.554688 118.878906 228.3125 117.609375 228.957031 116.691406 C 229.335938 116.152344 229.957031 115.828125 230.632812 115.828125 L 233.300781 115.828125 C 236.539062 115.800781 239.183594 113.132812 239.128906 109.894531 C 239.101562 106.65625 236.511719 104.066406 233.300781 104.039062 L 222.347656 104.039062 C 221.214844 104.039062 220.296875 103.121094 220.324219 102.015625 C 220.324219 101.746094 220.351562 101.503906 220.460938 101.261719 C 228.285156 81.699219 243.472656 65.972656 262.738281 57.472656 C 264.816406 56.554688 265.730469 54.179688 264.839844 52.128906 C 264.816406 52.078125 264.761719 51.996094 264.734375 51.941406 C 259.984375 42.417969 249.195312 37.507812 238.886719 40.152344 L 225.316406 45.65625 C 222.699219 46.734375 219.757812 46.464844 217.382812 44.953125 L 205.164062 37.265625 C 203.167969 35.996094 200.847656 35.375 198.472656 35.484375 L 198.472656 35.511719 "/></g></g></svg>