<svg xmlns="http://www.w3.org/2000/svg" xmlns:xlink="http://www.w3.org/1999/xlink" width="500" zoomAndPan="magnify" viewBox="0 0 375 374.999991" height="500" preserveAspectRatio="xMidYMid meet" version="1.2"><defs><clipPath id="a7bc77bffd"><path d="M 21.441406 225 L 122 225 L 122 353 L 21.441406 353 Z M 21.441406 225 "/></clipPath><clipPath id="2f5548f1ad"><path d="M 253 225 L 353.691406 225 L 353.691406 353 L 253 353 Z M 253 225 "/></clipPath></defs><g id="43805027e3"><rect x="0" width="375" y="0" height="374.999991" style="fill:#ffffff;fill-opacity:1;stroke:none;"/><rect x="0" width="375" y="0" height="374.999991" style="fill:#e1f7ff;fill-opacity:1;stroke:none;"/><path style=" stroke:none;fill-rule:nonzero;fill:#8b5cf6;fill-opacity:1;" d="M 49.117188 186.886719 C 49.117188 187.976562 49.171875 189.058594 49.277344 190.144531 C 49.382812 191.226562 49.542969 192.300781 49.753906 193.367188 C 49.96875 194.433594 50.230469 195.488281 50.546875 196.527344 C 50.863281 197.570312 51.230469 198.59375 51.644531 199.597656 C 52.0625 200.601562 52.527344 201.582031 53.039062 202.542969 C 53.550781 203.503906 54.109375 204.433594 54.714844 205.339844 C 55.320312 206.242188 55.964844 207.117188 56.65625 207.957031 C 57.347656 208.796875 58.074219 209.601562 58.84375 210.371094 C 59.613281 211.140625 60.417969 211.871094 61.261719 212.558594 C 62.101562 213.25 62.972656 213.898438 63.878906 214.5 C 64.78125 215.105469 65.714844 215.664062 66.671875 216.175781 C 67.632812 216.691406 68.613281 217.152344 69.621094 217.570312 C 70.625 217.988281 71.648438 218.351562 72.6875 218.667969 C 73.730469 218.984375 74.78125 219.25 75.847656 219.460938 C 76.917969 219.671875 77.992188 219.832031 79.074219 219.9375 C 80.15625 220.046875 81.242188 220.097656 82.328125 220.097656 C 83.417969 220.097656 84.5 220.046875 85.582031 219.9375 C 86.667969 219.832031 87.742188 219.671875 88.808594 219.460938 C 89.875 219.25 90.929688 218.984375 91.96875 218.667969 C 93.011719 218.351562 94.03125 217.988281 95.039062 217.570312 C 96.042969 217.152344 97.023438 216.691406 97.984375 216.175781 C 98.945312 215.664062 99.875 215.105469 100.78125 214.5 C 101.683594 213.898438 102.554688 213.25 103.398438 212.558594 C 104.238281 211.871094 105.042969 211.140625 105.8125 210.371094 C 106.582031 209.601562 107.3125 208.796875 108 207.957031 C 108.691406 207.117188 109.339844 206.242188 109.941406 205.339844 C 110.546875 204.433594 111.105469 203.503906 111.617188 202.542969 C 112.128906 201.582031 112.59375 200.601562 113.011719 199.597656 C 113.425781 198.59375 113.792969 197.570312 114.109375 196.527344 C 114.425781 195.488281 114.6875 194.433594 114.902344 193.367188 C 115.113281 192.300781 115.273438 191.226562 115.378906 190.144531 C 115.484375 189.058594 115.539062 187.976562 115.539062 186.886719 C 115.539062 185.800781 115.484375 184.714844 115.378906 183.632812 C 115.273438 182.550781 115.113281 181.476562 114.902344 180.410156 C 114.6875 179.339844 114.425781 178.289062 114.109375 177.246094 C 113.792969 176.207031 113.425781 175.183594 113.011719 174.179688 C 112.59375 173.171875 112.128906 172.191406 111.617188 171.230469 C 111.105469 170.273438 110.546875 169.339844 109.941406 168.4375 C 109.339844 167.53125 108.691406 166.660156 108 165.820312 C 107.3125 164.976562 106.582031 164.171875 105.8125 163.402344 C 105.042969 162.636719 104.238281 161.90625 103.398438 161.214844 C 102.554688 160.523438 101.683594 159.878906 100.78125 159.273438 C 99.875 158.667969 98.945312 158.109375 97.984375 157.597656 C 97.023438 157.085938 96.042969 156.621094 95.039062 156.203125 C 94.03125 155.789062 93.011719 155.421875 91.96875 155.105469 C 90.929688 154.789062 89.875 154.527344 88.808594 154.316406 C 87.742188 154.101562 86.667969 153.941406 85.582031 153.835938 C 84.5 153.730469 83.417969 153.675781 82.328125 153.675781 C 81.242188 153.675781 80.15625 153.730469 79.074219 153.835938 C 77.992188 153.941406 76.917969 154.101562 75.847656 154.316406 C 74.78125 154.527344 73.730469 154.789062 72.6875 155.105469 C 71.648438 155.421875 70.625 155.789062 69.621094 156.203125 C 68.613281 156.621094 67.632812 157.085938 66.671875 157.597656 C 65.714844 158.109375 64.78125 158.667969 63.878906 159.273438 C 62.972656 159.878906 62.101562 160.523438 61.261719 161.214844 C 60.417969 161.90625 59.613281 162.636719 58.84375 163.402344 C 58.074219 164.171875 57.347656 164.976562 56.65625 165.820312 C 55.964844 166.660156 55.320312 167.53125 54.714844 168.4375 C 54.109375 169.339844 53.550781 170.273438 53.039062 171.230469 C 52.527344 172.191406 52.0625 173.171875 51.644531 174.179688 C 51.230469 175.183594 50.863281 176.207031 50.546875 177.246094 C 50.230469 178.289062 49.96875 179.339844 49.753906 180.410156 C 49.542969 181.476562 49.382812 182.550781 49.277344 183.632812 C 49.171875 184.714844 49.117188 185.800781 49.117188 186.886719 Z M 82.328125 164.746094 C 83.054688 164.746094 83.777344 164.78125 84.5 164.855469 C 85.21875 164.925781 85.9375 165.03125 86.648438 165.171875 C 87.359375 165.3125 88.0625 165.488281 88.753906 165.699219 C 89.449219 165.910156 90.132812 166.15625 90.800781 166.433594 C 91.472656 166.710938 92.125 167.019531 92.765625 167.359375 C 93.40625 167.703125 94.027344 168.074219 94.628906 168.476562 C 95.230469 168.882812 95.8125 169.3125 96.375 169.773438 C 96.933594 170.234375 97.472656 170.71875 97.984375 171.230469 C 98.496094 171.746094 98.984375 172.28125 99.445312 172.839844 C 99.902344 173.402344 100.335938 173.984375 100.738281 174.585938 C 101.140625 175.191406 101.511719 175.8125 101.855469 176.449219 C 102.195312 177.089844 102.507812 177.746094 102.785156 178.414062 C 103.0625 179.085938 103.304688 179.765625 103.515625 180.460938 C 103.726562 181.15625 103.902344 181.855469 104.042969 182.566406 C 104.183594 183.28125 104.292969 183.996094 104.363281 184.71875 C 104.433594 185.4375 104.46875 186.164062 104.46875 186.886719 C 104.46875 187.613281 104.433594 188.335938 104.363281 189.058594 C 104.292969 189.78125 104.183594 190.496094 104.042969 191.207031 C 103.902344 191.917969 103.726562 192.621094 103.515625 193.316406 C 103.304688 194.007812 103.0625 194.691406 102.785156 195.359375 C 102.507812 196.03125 102.195312 196.683594 101.855469 197.324219 C 101.511719 197.964844 101.140625 198.585938 100.738281 199.1875 C 100.335938 199.792969 99.902344 200.371094 99.445312 200.933594 C 98.984375 201.492188 98.496094 202.03125 97.984375 202.542969 C 97.472656 203.054688 96.933594 203.542969 96.375 204.003906 C 95.8125 204.460938 95.230469 204.894531 94.628906 205.296875 C 94.027344 205.699219 93.40625 206.070312 92.765625 206.414062 C 92.125 206.753906 91.472656 207.066406 90.800781 207.34375 C 90.132812 207.621094 89.449219 207.863281 88.753906 208.074219 C 88.0625 208.285156 87.359375 208.460938 86.648438 208.601562 C 85.9375 208.746094 85.21875 208.851562 84.5 208.921875 C 83.777344 208.992188 83.054688 209.027344 82.328125 209.027344 C 81.601562 209.027344 80.878906 208.992188 80.160156 208.921875 C 79.4375 208.851562 78.71875 208.746094 78.007812 208.601562 C 77.296875 208.460938 76.59375 208.285156 75.902344 208.074219 C 75.207031 207.863281 74.527344 207.621094 73.855469 207.34375 C 73.1875 207.066406 72.53125 206.753906 71.890625 206.414062 C 71.253906 206.070312 70.628906 205.699219 70.027344 205.296875 C 69.425781 204.894531 68.84375 204.460938 68.28125 204.003906 C 67.722656 203.542969 67.183594 203.054688 66.671875 202.542969 C 66.160156 202.03125 65.671875 201.492188 65.214844 200.933594 C 64.753906 200.371094 64.320312 199.792969 63.917969 199.1875 C 63.515625 198.585938 63.144531 197.964844 62.800781 197.324219 C 62.460938 196.683594 62.152344 196.03125 61.875 195.359375 C 61.597656 194.691406 61.351562 194.007812 61.140625 193.316406 C 60.929688 192.621094 60.753906 191.917969 60.613281 191.207031 C 60.472656 190.496094 60.367188 189.78125 60.292969 189.058594 C 60.222656 188.335938 60.1875 187.613281 60.1875 186.886719 C 60.1875 186.164062 60.222656 185.4375 60.292969 184.71875 C 60.367188 183.996094 60.472656 183.28125 60.613281 182.566406 C 60.753906 181.855469 60.929688 181.15625 61.140625 180.460938 C 61.351562 179.765625 61.597656 179.085938 61.875 178.414062 C 62.152344 177.746094 62.460938 177.089844 62.800781 176.449219 C 63.144531 175.8125 63.515625 175.191406 63.917969 174.585938 C 64.320312 173.984375 64.753906 173.402344 65.214844 172.839844 C 65.671875 172.28125 66.160156 171.746094 66.671875 171.230469 C 67.1875 170.71875 67.722656 170.234375 68.28125 169.773438 C 68.84375 169.3125 69.425781 168.882812 70.027344 168.476562 C 70.628906 168.074219 71.253906 167.703125 71.890625 167.363281 C 72.53125 167.019531 73.1875 166.710938 73.855469 166.433594 C 74.527344 166.15625 75.207031 165.910156 75.902344 165.699219 C 76.59375 165.488281 77.296875 165.3125 78.007812 165.171875 C 78.71875 165.03125 79.4375 164.925781 80.160156 164.855469 C 80.878906 164.78125 81.601562 164.746094 82.328125 164.746094 Z M 82.328125 164.746094 "/><path style=" stroke:none;fill-rule:nonzero;fill:#8b5cf6;fill-opacity:1;" d="M 115.539062 352.941406 C 115.902344 352.941406 116.261719 352.90625 116.621094 352.835938 C 116.976562 352.765625 117.320312 352.660156 117.65625 352.519531 C 117.992188 352.382812 118.3125 352.210938 118.613281 352.007812 C 118.917969 351.808594 119.195312 351.578125 119.453125 351.320312 C 119.710938 351.0625 119.941406 350.785156 120.140625 350.480469 C 120.34375 350.179688 120.515625 349.859375 120.652344 349.523438 C 120.792969 349.191406 120.898438 348.84375 120.96875 348.488281 C 121.039062 348.128906 121.074219 347.769531 121.074219 347.40625 L 121.074219 341.429688 C 133.695312 339.382812 143.214844 330.359375 143.214844 319.730469 L 143.214844 314.195312 C 143.214844 313.832031 143.179688 313.472656 143.109375 313.117188 C 143.039062 312.761719 142.933594 312.414062 142.792969 312.078125 C 142.65625 311.742188 142.484375 311.421875 142.28125 311.121094 C 142.082031 310.820312 141.851562 310.539062 141.59375 310.28125 C 141.335938 310.023438 141.058594 309.796875 140.753906 309.59375 C 140.453125 309.390625 140.132812 309.222656 139.796875 309.082031 C 139.460938 308.941406 139.117188 308.839844 138.761719 308.765625 C 138.402344 308.695312 138.042969 308.660156 137.679688 308.660156 C 137.316406 308.660156 136.957031 308.695312 136.601562 308.765625 C 136.242188 308.839844 135.898438 308.941406 135.5625 309.082031 C 135.226562 309.222656 134.90625 309.390625 134.605469 309.59375 C 134.304688 309.796875 134.023438 310.023438 133.765625 310.28125 C 133.507812 310.539062 133.28125 310.820312 133.078125 311.121094 C 132.875 311.421875 132.707031 311.742188 132.566406 312.078125 C 132.425781 312.414062 132.320312 312.761719 132.25 313.117188 C 132.179688 313.472656 132.144531 313.832031 132.144531 314.195312 L 132.144531 319.730469 C 132.144531 324.4375 127.441406 328.53125 121.074219 330.082031 L 121.074219 269.914062 C 121.074219 269.550781 121.039062 269.191406 120.96875 268.835938 C 120.898438 268.480469 120.792969 268.132812 120.652344 267.796875 C 120.515625 267.460938 120.34375 267.140625 120.140625 266.839844 C 119.941406 266.539062 119.710938 266.257812 119.453125 266 C 119.195312 265.742188 118.917969 265.515625 118.613281 265.3125 C 118.3125 265.109375 117.992188 264.941406 117.65625 264.800781 C 117.320312 264.660156 116.976562 264.558594 116.621094 264.484375 C 116.261719 264.414062 115.902344 264.378906 115.539062 264.378906 C 115.175781 264.378906 114.816406 264.414062 114.460938 264.484375 C 114.101562 264.558594 113.757812 264.660156 113.421875 264.800781 C 113.085938 264.941406 112.765625 265.109375 112.464844 265.3125 C 112.164062 265.515625 111.882812 265.742188 111.625 266 C 111.367188 266.257812 111.140625 266.539062 110.9375 266.839844 C 110.734375 267.140625 110.566406 267.460938 110.425781 267.796875 C 110.285156 268.132812 110.179688 268.480469 110.109375 268.835938 C 110.039062 269.191406 110.003906 269.550781 110.003906 269.914062 L 110.003906 347.40625 C 110.003906 347.769531 110.039062 348.128906 110.109375 348.488281 C 110.179688 348.84375 110.285156 349.191406 110.425781 349.523438 C 110.566406 349.859375 110.734375 350.179688 110.9375 350.480469 C 111.140625 350.785156 111.367188 351.0625 111.625 351.320312 C 111.882812 351.578125 112.164062 351.808594 112.464844 352.007812 C 112.765625 352.210938 113.085938 352.382812 113.421875 352.519531 C 113.757812 352.660156 114.101562 352.765625 114.460938 352.835938 C 114.816406 352.90625 115.175781 352.941406 115.539062 352.941406 Z M 115.539062 352.941406 "/><g clip-rule="nonzero" clip-path="url(#a7bc77bffd)"><path style=" stroke:none;fill-rule:nonzero;fill:#8b5cf6;fill-opacity:1;" d="M 60.1875 236.703125 L 104.46875 236.703125 C 107.707031 236.695312 110.878906 237.136719 113.988281 238.03125 C 114.339844 238.132812 114.695312 238.199219 115.054688 238.234375 C 115.417969 238.265625 115.78125 238.261719 116.140625 238.222656 C 116.503906 238.179688 116.855469 238.105469 117.203125 237.996094 C 117.550781 237.890625 117.882812 237.746094 118.199219 237.570312 C 118.519531 237.398438 118.816406 237.191406 119.097656 236.960938 C 119.375 236.726562 119.628906 236.46875 119.855469 236.183594 C 120.082031 235.902344 120.28125 235.597656 120.449219 235.277344 C 120.617188 234.953125 120.75 234.617188 120.851562 234.269531 C 120.953125 233.917969 121.023438 233.5625 121.054688 233.203125 C 121.085938 232.839844 121.082031 232.476562 121.042969 232.117188 C 121.003906 231.753906 120.929688 231.402344 120.820312 231.054688 C 120.710938 230.707031 120.566406 230.375 120.394531 230.058594 C 120.21875 229.738281 120.015625 229.441406 119.78125 229.160156 C 119.546875 228.882812 119.289062 228.628906 119.003906 228.402344 C 118.722656 228.175781 118.417969 227.976562 118.097656 227.808594 C 117.773438 227.640625 117.4375 227.507812 117.089844 227.40625 C 112.964844 226.222656 108.757812 225.632812 104.46875 225.632812 L 60.1875 225.632812 C 38.820312 225.632812 21.441406 240.523438 21.441406 258.84375 L 21.441406 319.730469 C 21.441406 330.414062 30.960938 339.382812 43.582031 341.429688 L 43.582031 347.40625 C 43.582031 347.769531 43.617188 348.128906 43.6875 348.488281 C 43.757812 348.84375 43.863281 349.191406 44.003906 349.523438 C 44.144531 349.859375 44.3125 350.179688 44.515625 350.480469 C 44.71875 350.785156 44.945312 351.0625 45.203125 351.320312 C 45.460938 351.578125 45.742188 351.808594 46.042969 352.007812 C 46.34375 352.210938 46.664062 352.382812 47 352.519531 C 47.335938 352.660156 47.679688 352.765625 48.039062 352.835938 C 48.394531 352.90625 48.753906 352.941406 49.117188 352.941406 C 49.480469 352.941406 49.839844 352.90625 50.199219 352.835938 C 50.554688 352.765625 50.898438 352.660156 51.234375 352.519531 C 51.570312 352.382812 51.890625 352.210938 52.191406 352.007812 C 52.496094 351.808594 52.773438 351.578125 53.03125 351.320312 C 53.289062 351.0625 53.519531 350.785156 53.71875 350.480469 C 53.921875 350.179688 54.09375 349.859375 54.230469 349.523438 C 54.371094 349.191406 54.476562 348.84375 54.546875 348.488281 C 54.617188 348.128906 54.652344 347.769531 54.652344 347.40625 L 54.652344 269.914062 C 54.652344 269.550781 54.617188 269.191406 54.546875 268.835938 C 54.476562 268.480469 54.371094 268.132812 54.230469 267.796875 C 54.09375 267.460938 53.921875 267.140625 53.71875 266.839844 C 53.519531 266.539062 53.289062 266.257812 53.03125 266 C 52.773438 265.742188 52.496094 265.515625 52.191406 265.3125 C 51.890625 265.109375 51.570312 264.941406 51.234375 264.800781 C 50.898438 264.660156 50.554688 264.558594 50.199219 264.484375 C 49.839844 264.414062 49.480469 264.378906 49.117188 264.378906 C 48.753906 264.378906 48.394531 264.414062 48.039062 264.484375 C 47.679688 264.558594 47.335938 264.660156 47 264.800781 C 46.664062 264.941406 46.34375 265.109375 46.042969 265.3125 C 45.742188 265.515625 45.460938 265.742188 45.203125 266 C 44.945312 266.257812 44.71875 266.539062 44.515625 266.839844 C 44.3125 267.140625 44.144531 267.460938 44.003906 267.796875 C 43.863281 268.132812 43.757812 268.480469 43.6875 268.835938 C 43.617188 269.191406 43.582031 269.550781 43.582031 269.914062 L 43.582031 330.082031 C 37.21875 328.53125 32.511719 324.546875 32.511719 319.730469 L 32.511719 258.84375 C 32.511719 246.613281 44.910156 236.703125 60.1875 236.703125 Z M 60.1875 236.703125 "/></g><path style=" stroke:none;fill-rule:nonzero;fill:#8b5cf6;fill-opacity:1;" d="M 292.664062 220.097656 C 293.753906 220.097656 294.835938 220.046875 295.917969 219.9375 C 297.003906 219.832031 298.078125 219.671875 299.144531 219.460938 C 300.210938 219.25 301.265625 218.984375 302.304688 218.667969 C 303.347656 218.351562 304.367188 217.988281 305.375 217.570312 C 306.378906 217.152344 307.359375 216.691406 308.320312 216.175781 C 309.28125 215.664062 310.210938 215.105469 311.117188 214.5 C 312.019531 213.898438 312.890625 213.25 313.734375 212.558594 C 314.574219 211.871094 315.378906 211.140625 316.148438 210.371094 C 316.917969 209.601562 317.648438 208.796875 318.335938 207.957031 C 319.027344 207.117188 319.675781 206.242188 320.277344 205.339844 C 320.882812 204.433594 321.441406 203.503906 321.953125 202.542969 C 322.464844 201.582031 322.929688 200.601562 323.347656 199.597656 C 323.761719 198.59375 324.128906 197.570312 324.445312 196.527344 C 324.761719 195.488281 325.023438 194.433594 325.238281 193.367188 C 325.449219 192.300781 325.609375 191.226562 325.714844 190.144531 C 325.820312 189.058594 325.875 187.976562 325.875 186.886719 C 325.875 185.800781 325.820312 184.714844 325.714844 183.632812 C 325.609375 182.550781 325.449219 181.476562 325.238281 180.410156 C 325.023438 179.339844 324.761719 178.289062 324.445312 177.246094 C 324.128906 176.207031 323.761719 175.183594 323.347656 174.179688 C 322.929688 173.171875 322.464844 172.191406 321.953125 171.230469 C 321.441406 170.273438 320.882812 169.339844 320.277344 168.4375 C 319.675781 167.53125 319.027344 166.660156 318.335938 165.820312 C 317.648438 164.976562 316.917969 164.171875 316.148438 163.402344 C 315.378906 162.636719 314.574219 161.90625 313.734375 161.214844 C 312.890625 160.523438 312.019531 159.878906 311.117188 159.273438 C 310.210938 158.667969 309.277344 158.109375 308.320312 157.597656 C 307.359375 157.085938 306.378906 156.621094 305.375 156.203125 C 304.367188 155.789062 303.347656 155.421875 302.304688 155.105469 C 301.265625 154.789062 300.210938 154.527344 299.144531 154.316406 C 298.078125 154.101562 297.003906 153.941406 295.917969 153.835938 C 294.835938 153.730469 293.753906 153.675781 292.664062 153.675781 C 291.578125 153.675781 290.492188 153.730469 289.410156 153.835938 C 288.328125 153.941406 287.253906 154.101562 286.183594 154.316406 C 285.117188 154.527344 284.066406 154.789062 283.023438 155.105469 C 281.984375 155.421875 280.960938 155.789062 279.957031 156.203125 C 278.949219 156.621094 277.96875 157.085938 277.007812 157.597656 C 276.050781 158.109375 275.117188 158.667969 274.214844 159.273438 C 273.308594 159.878906 272.4375 160.523438 271.597656 161.214844 C 270.753906 161.90625 269.949219 162.636719 269.179688 163.402344 C 268.410156 164.171875 267.683594 164.976562 266.992188 165.820312 C 266.300781 166.660156 265.65625 167.53125 265.050781 168.4375 C 264.445312 169.339844 263.886719 170.273438 263.375 171.230469 C 262.863281 172.191406 262.398438 173.171875 261.980469 174.179688 C 261.566406 175.183594 261.199219 176.207031 260.882812 177.246094 C 260.566406 178.289062 260.304688 179.339844 260.089844 180.410156 C 259.878906 181.476562 259.71875 182.550781 259.613281 183.632812 C 259.507812 184.714844 259.453125 185.800781 259.453125 186.886719 C 259.453125 187.976562 259.507812 189.058594 259.613281 190.144531 C 259.71875 191.226562 259.878906 192.300781 260.089844 193.367188 C 260.304688 194.433594 260.566406 195.488281 260.882812 196.527344 C 261.199219 197.570312 261.566406 198.59375 261.980469 199.597656 C 262.398438 200.601562 262.863281 201.582031 263.375 202.542969 C 263.886719 203.503906 264.445312 204.433594 265.050781 205.339844 C 265.65625 206.242188 266.300781 207.117188 266.992188 207.957031 C 267.683594 208.796875 268.410156 209.601562 269.179688 210.371094 C 269.949219 211.140625 270.753906 211.871094 271.597656 212.558594 C 272.4375 213.25 273.308594 213.898438 274.214844 214.5 C 275.117188 215.105469 276.050781 215.664062 277.007812 216.175781 C 277.96875 216.691406 278.949219 217.152344 279.957031 217.570312 C 280.960938 217.988281 281.984375 218.351562 283.023438 218.667969 C 284.066406 218.984375 285.117188 219.25 286.183594 219.460938 C 287.253906 219.671875 288.328125 219.832031 289.410156 219.9375 C 290.492188 220.046875 291.578125 220.097656 292.664062 220.097656 Z M 292.664062 164.746094 C 293.390625 164.746094 294.113281 164.78125 294.835938 164.855469 C 295.554688 164.925781 296.273438 165.03125 296.984375 165.171875 C 297.695312 165.3125 298.398438 165.488281 299.089844 165.699219 C 299.785156 165.910156 300.46875 166.15625 301.136719 166.433594 C 301.808594 166.710938 302.460938 167.019531 303.101562 167.359375 C 303.742188 167.703125 304.363281 168.074219 304.964844 168.476562 C 305.566406 168.882812 306.148438 169.3125 306.710938 169.773438 C 307.269531 170.234375 307.808594 170.71875 308.320312 171.230469 C 308.832031 171.746094 309.320312 172.28125 309.78125 172.839844 C 310.238281 173.402344 310.671875 173.984375 311.074219 174.585938 C 311.476562 175.191406 311.847656 175.8125 312.191406 176.449219 C 312.53125 177.089844 312.84375 177.746094 313.121094 178.414062 C 313.398438 179.085938 313.640625 179.765625 313.851562 180.460938 C 314.0625 181.15625 314.238281 181.855469 314.378906 182.566406 C 314.519531 183.28125 314.628906 183.996094 314.699219 184.71875 C 314.769531 185.4375 314.804688 186.164062 314.804688 186.886719 C 314.804688 187.613281 314.769531 188.335938 314.699219 189.058594 C 314.628906 189.78125 314.519531 190.496094 314.378906 191.207031 C 314.238281 191.917969 314.0625 192.621094 313.851562 193.316406 C 313.640625 194.007812 313.398438 194.691406 313.121094 195.359375 C 312.84375 196.03125 312.53125 196.683594 312.191406 197.324219 C 311.847656 197.964844 311.476562 198.585938 311.074219 199.1875 C 310.671875 199.792969 310.238281 200.371094 309.78125 200.933594 C 309.320312 201.492188 308.832031 202.03125 308.320312 202.542969 C 307.808594 203.054688 307.269531 203.542969 306.710938 204.003906 C 306.148438 204.460938 305.566406 204.894531 304.964844 205.296875 C 304.363281 205.699219 303.742188 206.070312 303.101562 206.414062 C 302.460938 206.753906 301.808594 207.066406 301.136719 207.34375 C 300.46875 207.621094 299.785156 207.863281 299.089844 208.074219 C 298.398438 208.285156 297.695312 208.460938 296.984375 208.601562 C 296.273438 208.746094 295.554688 208.851562 294.835938 208.921875 C 294.113281 208.992188 293.390625 209.027344 292.664062 209.027344 C 291.9375 209.027344 291.214844 208.992188 290.496094 208.921875 C 289.773438 208.851562 289.054688 208.746094 288.34375 208.601562 C 287.632812 208.460938 286.929688 208.285156 286.238281 208.074219 C 285.542969 207.863281 284.863281 207.621094 284.191406 207.34375 C 283.523438 207.066406 282.867188 206.753906 282.226562 206.414062 C 281.589844 206.070312 280.964844 205.699219 280.363281 205.296875 C 279.761719 204.894531 279.179688 204.460938 278.617188 204.003906 C 278.058594 203.542969 277.519531 203.054688 277.007812 202.542969 C 276.496094 202.03125 276.007812 201.492188 275.550781 200.933594 C 275.089844 200.371094 274.65625 199.792969 274.253906 199.1875 C 273.851562 198.585938 273.480469 197.964844 273.136719 197.324219 C 272.796875 196.683594 272.488281 196.03125 272.210938 195.359375 C 271.933594 194.691406 271.6875 194.007812 271.476562 193.316406 C 271.265625 192.621094 271.089844 191.917969 270.949219 191.207031 C 270.808594 190.496094 270.703125 189.78125 270.628906 189.058594 C 270.558594 188.335938 270.523438 187.613281 270.523438 186.886719 C 270.523438 186.164062 270.558594 185.4375 270.628906 184.71875 C 270.703125 183.996094 270.808594 183.28125 270.949219 182.566406 C 271.089844 181.855469 271.265625 181.15625 271.476562 180.460938 C 271.6875 179.765625 271.933594 179.085938 272.210938 178.414062 C 272.488281 177.746094 272.796875 177.089844 273.136719 176.449219 C 273.480469 175.8125 273.851562 175.191406 274.253906 174.585938 C 274.65625 173.984375 275.089844 173.402344 275.550781 172.839844 C 276.007812 172.28125 276.496094 171.746094 277.007812 171.230469 C 277.523438 170.71875 278.058594 170.234375 278.617188 169.773438 C 279.179688 169.3125 279.761719 168.882812 280.363281 168.476562 C 280.964844 168.074219 281.589844 167.703125 282.226562 167.363281 C 282.867188 167.019531 283.523438 166.710938 284.191406 166.433594 C 284.863281 166.15625 285.542969 165.910156 286.238281 165.699219 C 286.929688 165.488281 287.632812 165.3125 288.34375 165.171875 C 289.054688 165.03125 289.773438 164.925781 290.496094 164.855469 C 291.214844 164.78125 291.9375 164.746094 292.664062 164.746094 Z M 292.664062 164.746094 "/><path style=" stroke:none;fill-rule:nonzero;fill:#8b5cf6;fill-opacity:1;" d="M 259.453125 352.941406 C 259.816406 352.941406 260.175781 352.90625 260.535156 352.835938 C 260.890625 352.765625 261.234375 352.660156 261.570312 352.519531 C 261.90625 352.382812 262.226562 352.210938 262.527344 352.007812 C 262.832031 351.808594 263.109375 351.578125 263.367188 351.320312 C 263.625 351.0625 263.855469 350.785156 264.054688 350.480469 C 264.257812 350.179688 264.429688 349.859375 264.566406 349.523438 C 264.707031 349.191406 264.8125 348.84375 264.882812 348.488281 C 264.953125 348.128906 264.988281 347.769531 264.988281 347.40625 L 264.988281 269.914062 C 264.988281 269.550781 264.953125 269.191406 264.882812 268.835938 C 264.8125 268.480469 264.707031 268.132812 264.566406 267.796875 C 264.429688 267.460938 264.257812 267.140625 264.054688 266.839844 C 263.855469 266.539062 263.625 266.257812 263.367188 266 C 263.109375 265.742188 262.832031 265.515625 262.527344 265.3125 C 262.226562 265.109375 261.90625 264.941406 261.570312 264.800781 C 261.234375 264.660156 260.890625 264.558594 260.535156 264.484375 C 260.175781 264.414062 259.816406 264.378906 259.453125 264.378906 C 259.089844 264.378906 258.730469 264.414062 258.375 264.484375 C 258.015625 264.558594 257.671875 264.660156 257.335938 264.800781 C 257 264.941406 256.679688 265.109375 256.378906 265.3125 C 256.078125 265.515625 255.796875 265.742188 255.539062 266 C 255.28125 266.257812 255.054688 266.539062 254.851562 266.839844 C 254.648438 267.140625 254.480469 267.460938 254.339844 267.796875 C 254.199219 268.132812 254.09375 268.480469 254.023438 268.835938 C 253.953125 269.191406 253.917969 269.550781 253.917969 269.914062 L 253.917969 330.082031 C 247.554688 328.53125 242.847656 324.546875 242.847656 319.730469 L 242.847656 314.195312 C 242.847656 313.832031 242.8125 313.472656 242.742188 313.117188 C 242.671875 312.761719 242.566406 312.414062 242.425781 312.078125 C 242.289062 311.742188 242.117188 311.421875 241.914062 311.121094 C 241.714844 310.820312 241.484375 310.539062 241.226562 310.28125 C 240.96875 310.023438 240.691406 309.796875 240.386719 309.59375 C 240.085938 309.390625 239.765625 309.222656 239.429688 309.082031 C 239.09375 308.941406 238.75 308.839844 238.394531 308.765625 C 238.035156 308.695312 237.675781 308.660156 237.3125 308.660156 C 236.949219 308.660156 236.589844 308.695312 236.234375 308.765625 C 235.875 308.839844 235.53125 308.941406 235.195312 309.082031 C 234.859375 309.222656 234.539062 309.390625 234.238281 309.59375 C 233.9375 309.796875 233.65625 310.023438 233.398438 310.28125 C 233.140625 310.539062 232.914062 310.820312 232.710938 311.121094 C 232.507812 311.421875 232.339844 311.742188 232.199219 312.078125 C 232.058594 312.414062 231.953125 312.761719 231.882812 313.117188 C 231.8125 313.472656 231.777344 313.832031 231.777344 314.195312 L 231.777344 319.730469 C 231.777344 330.414062 241.296875 339.382812 253.917969 341.429688 L 253.917969 347.40625 C 253.917969 347.769531 253.953125 348.128906 254.023438 348.488281 C 254.09375 348.84375 254.199219 349.191406 254.339844 349.523438 C 254.480469 349.859375 254.648438 350.179688 254.851562 350.480469 C 255.054688 350.785156 255.28125 351.0625 255.539062 351.320312 C 255.796875 351.578125 256.078125 351.808594 256.378906 352.007812 C 256.679688 352.210938 257 352.382812 257.335938 352.519531 C 257.671875 352.660156 258.015625 352.765625 258.375 352.835938 C 258.730469 352.90625 259.089844 352.941406 259.453125 352.941406 Z M 259.453125 352.941406 "/><g clip-rule="nonzero" clip-path="url(#2f5548f1ad)"><path style=" stroke:none;fill-rule:nonzero;fill:#8b5cf6;fill-opacity:1;" d="M 314.804688 225.632812 L 270.523438 225.632812 C 266.234375 225.632812 262.027344 226.222656 257.902344 227.40625 C 257.554688 227.507812 257.21875 227.640625 256.894531 227.808594 C 256.574219 227.976562 256.269531 228.171875 255.984375 228.402344 C 255.703125 228.628906 255.441406 228.882812 255.210938 229.160156 C 254.976562 229.4375 254.769531 229.738281 254.59375 230.054688 C 254.421875 230.375 254.277344 230.707031 254.167969 231.054688 C 254.058594 231.402344 253.984375 231.753906 253.945312 232.117188 C 253.90625 232.480469 253.902344 232.839844 253.933594 233.203125 C 253.964844 233.566406 254.03125 233.921875 254.132812 234.269531 C 254.234375 234.621094 254.371094 234.957031 254.539062 235.277344 C 254.707031 235.601562 254.902344 235.902344 255.132812 236.1875 C 255.359375 236.472656 255.613281 236.730469 255.890625 236.964844 C 256.171875 237.195312 256.46875 237.402344 256.789062 237.574219 C 257.109375 237.75 257.441406 237.890625 257.789062 238 C 258.132812 238.109375 258.488281 238.183594 258.851562 238.222656 C 259.210938 238.261719 259.574219 238.265625 259.9375 238.234375 C 260.296875 238.203125 260.65625 238.132812 261.003906 238.03125 C 264.113281 237.136719 267.289062 236.695312 270.523438 236.703125 L 314.804688 236.703125 C 330.082031 236.703125 342.480469 246.613281 342.480469 258.84375 L 342.480469 319.730469 C 342.480469 324.4375 337.777344 328.53125 331.410156 330.082031 L 331.410156 269.914062 C 331.410156 269.550781 331.375 269.191406 331.304688 268.835938 C 331.234375 268.480469 331.128906 268.132812 330.988281 267.796875 C 330.851562 267.460938 330.679688 267.140625 330.476562 266.839844 C 330.277344 266.539062 330.046875 266.257812 329.789062 266 C 329.53125 265.742188 329.253906 265.515625 328.949219 265.3125 C 328.648438 265.109375 328.328125 264.941406 327.992188 264.800781 C 327.65625 264.660156 327.3125 264.558594 326.957031 264.484375 C 326.597656 264.414062 326.238281 264.378906 325.875 264.378906 C 325.511719 264.378906 325.152344 264.414062 324.796875 264.484375 C 324.4375 264.558594 324.09375 264.660156 323.757812 264.800781 C 323.421875 264.941406 323.101562 265.109375 322.800781 265.3125 C 322.5 265.515625 322.21875 265.742188 321.960938 266 C 321.703125 266.257812 321.476562 266.539062 321.273438 266.839844 C 321.070312 267.140625 320.902344 267.460938 320.761719 267.796875 C 320.621094 268.132812 320.515625 268.480469 320.445312 268.835938 C 320.375 269.191406 320.339844 269.550781 320.339844 269.914062 L 320.339844 347.40625 C 320.339844 347.769531 320.375 348.128906 320.445312 348.488281 C 320.515625 348.84375 320.621094 349.191406 320.761719 349.523438 C 320.902344 349.859375 321.070312 350.179688 321.273438 350.480469 C 321.476562 350.785156 321.703125 351.0625 321.960938 351.320312 C 322.21875 351.578125 322.5 351.808594 322.800781 352.007812 C 323.101562 352.210938 323.421875 352.382812 323.757812 352.519531 C 324.09375 352.660156 324.4375 352.765625 324.796875 352.835938 C 325.152344 352.90625 325.511719 352.941406 325.875 352.941406 C 326.238281 352.941406 326.597656 352.90625 326.957031 352.835938 C 327.3125 352.765625 327.65625 352.660156 327.992188 352.519531 C 328.328125 352.382812 328.648438 352.210938 328.949219 352.007812 C 329.253906 351.808594 329.53125 351.578125 329.789062 351.320312 C 330.046875 351.0625 330.277344 350.785156 330.476562 350.480469 C 330.679688 350.179688 330.851562 349.859375 330.988281 349.523438 C 331.128906 349.191406 331.234375 348.84375 331.304688 348.488281 C 331.375 348.128906 331.410156 347.769531 331.410156 347.40625 L 331.410156 341.429688 C 344.03125 339.382812 353.550781 330.359375 353.550781 319.730469 L 353.550781 258.84375 C 353.550781 240.523438 336.171875 225.632812 314.804688 225.632812 Z M 314.804688 225.632812 "/></g><path style=" stroke:none;fill-rule:nonzero;fill:#8b5cf6;fill-opacity:1;" d="M 220.707031 175.816406 C 220.707031 174.730469 220.652344 173.644531 220.546875 172.5625 C 220.441406 171.480469 220.28125 170.40625 220.070312 169.339844 C 219.855469 168.269531 219.59375 167.21875 219.277344 166.175781 C 218.960938 165.136719 218.59375 164.113281 218.179688 163.109375 C 217.761719 162.101562 217.296875 161.121094 216.785156 160.160156 C 216.273438 159.203125 215.714844 158.269531 215.109375 157.367188 C 214.507812 156.460938 213.859375 155.589844 213.167969 154.75 C 212.480469 153.90625 211.75 153.101562 210.980469 152.332031 C 210.210938 151.566406 209.40625 150.835938 208.566406 150.144531 C 207.722656 149.453125 206.851562 148.808594 205.949219 148.203125 C 205.042969 147.597656 204.113281 147.039062 203.152344 146.527344 C 202.191406 146.015625 201.210938 145.550781 200.207031 145.132812 C 199.199219 144.71875 198.179688 144.351562 197.136719 144.035156 C 196.097656 143.71875 195.042969 143.457031 193.976562 143.246094 C 192.910156 143.03125 191.835938 142.871094 190.75 142.765625 C 189.667969 142.660156 188.585938 142.605469 187.496094 142.605469 C 186.410156 142.605469 185.324219 142.660156 184.242188 142.765625 C 183.160156 142.871094 182.085938 143.03125 181.015625 143.246094 C 179.949219 143.457031 178.898438 143.71875 177.855469 144.035156 C 176.816406 144.351562 175.792969 144.71875 174.789062 145.132812 C 173.78125 145.550781 172.800781 146.015625 171.839844 146.527344 C 170.882812 147.039062 169.949219 147.597656 169.046875 148.203125 C 168.140625 148.808594 167.269531 149.453125 166.429688 150.144531 C 165.585938 150.835938 164.78125 151.566406 164.011719 152.332031 C 163.242188 153.101562 162.515625 153.90625 161.824219 154.75 C 161.132812 155.589844 160.488281 156.460938 159.882812 157.367188 C 159.277344 158.269531 158.71875 159.203125 158.207031 160.160156 C 157.695312 161.121094 157.230469 162.101562 156.8125 163.109375 C 156.398438 164.113281 156.03125 165.136719 155.714844 166.175781 C 155.398438 167.21875 155.136719 168.269531 154.921875 169.339844 C 154.710938 170.40625 154.550781 171.480469 154.445312 172.5625 C 154.339844 173.644531 154.285156 174.730469 154.285156 175.816406 C 154.285156 176.90625 154.339844 177.988281 154.445312 179.074219 C 154.550781 180.15625 154.710938 181.230469 154.921875 182.296875 C 155.136719 183.363281 155.398438 184.417969 155.714844 185.457031 C 156.03125 186.5 156.398438 187.523438 156.8125 188.527344 C 157.230469 189.53125 157.695312 190.511719 158.207031 191.472656 C 158.71875 192.433594 159.277344 193.363281 159.882812 194.269531 C 160.488281 195.171875 161.132812 196.046875 161.824219 196.886719 C 162.515625 197.726562 163.242188 198.53125 164.011719 199.300781 C 164.78125 200.070312 165.585938 200.800781 166.429688 201.488281 C 167.269531 202.179688 168.140625 202.828125 169.046875 203.429688 C 169.949219 204.035156 170.882812 204.59375 171.839844 205.105469 C 172.800781 205.621094 173.78125 206.082031 174.789062 206.5 C 175.792969 206.917969 176.816406 207.28125 177.855469 207.597656 C 178.898438 207.914062 179.949219 208.179688 181.015625 208.390625 C 182.085938 208.601562 183.160156 208.761719 184.242188 208.867188 C 185.324219 208.976562 186.410156 209.027344 187.496094 209.027344 C 188.585938 209.027344 189.667969 208.976562 190.75 208.867188 C 191.835938 208.761719 192.910156 208.601562 193.976562 208.390625 C 195.042969 208.179688 196.097656 207.914062 197.136719 207.597656 C 198.179688 207.28125 199.199219 206.917969 200.207031 206.5 C 201.210938 206.082031 202.191406 205.621094 203.152344 205.105469 C 204.113281 204.59375 205.042969 204.035156 205.949219 203.429688 C 206.851562 202.828125 207.722656 202.179688 208.566406 201.488281 C 209.40625 200.800781 210.210938 200.070312 210.980469 199.300781 C 211.75 198.53125 212.480469 197.726562 213.167969 196.886719 C 213.859375 196.046875 214.507812 195.171875 215.109375 194.269531 C 215.714844 193.363281 216.273438 192.433594 216.785156 191.472656 C 217.296875 190.511719 217.761719 189.53125 218.179688 188.527344 C 218.59375 187.523438 218.960938 186.5 219.277344 185.457031 C 219.59375 184.417969 219.855469 183.363281 220.070312 182.296875 C 220.28125 181.230469 220.441406 180.15625 220.546875 179.074219 C 220.652344 177.988281 220.707031 176.90625 220.707031 175.816406 Z M 165.355469 175.816406 C 165.355469 175.09375 165.390625 174.367188 165.460938 173.648438 C 165.535156 172.925781 165.640625 172.210938 165.78125 171.496094 C 165.921875 170.785156 166.097656 170.085938 166.308594 169.390625 C 166.519531 168.695312 166.765625 168.015625 167.042969 167.34375 C 167.320312 166.675781 167.628906 166.019531 167.96875 165.378906 C 168.3125 164.742188 168.683594 164.121094 169.085938 163.515625 C 169.488281 162.914062 169.921875 162.332031 170.382812 161.769531 C 170.839844 161.210938 171.328125 160.675781 171.839844 160.160156 C 172.351562 159.648438 172.890625 159.164062 173.449219 158.703125 C 174.011719 158.242188 174.59375 157.8125 175.195312 157.40625 C 175.796875 157.003906 176.421875 156.632812 177.058594 156.289062 C 177.699219 155.949219 178.355469 155.640625 179.023438 155.363281 C 179.695312 155.085938 180.375 154.839844 181.070312 154.628906 C 181.761719 154.417969 182.464844 154.242188 183.175781 154.101562 C 183.886719 153.960938 184.605469 153.855469 185.328125 153.785156 C 186.046875 153.710938 186.769531 153.675781 187.496094 153.675781 C 188.222656 153.675781 188.945312 153.710938 189.667969 153.785156 C 190.386719 153.855469 191.105469 153.960938 191.816406 154.101562 C 192.527344 154.242188 193.230469 154.417969 193.921875 154.628906 C 194.617188 154.839844 195.300781 155.085938 195.96875 155.363281 C 196.640625 155.640625 197.292969 155.949219 197.933594 156.289062 C 198.574219 156.632812 199.195312 157.003906 199.796875 157.40625 C 200.398438 157.8125 200.980469 158.242188 201.542969 158.703125 C 202.101562 159.164062 202.640625 159.648438 203.152344 160.160156 C 203.664062 160.675781 204.152344 161.210938 204.613281 161.769531 C 205.070312 162.332031 205.503906 162.914062 205.90625 163.515625 C 206.308594 164.121094 206.679688 164.742188 207.023438 165.378906 C 207.363281 166.019531 207.675781 166.675781 207.953125 167.34375 C 208.230469 168.015625 208.472656 168.695312 208.683594 169.390625 C 208.894531 170.085938 209.070312 170.785156 209.210938 171.496094 C 209.351562 172.210938 209.460938 172.925781 209.53125 173.648438 C 209.601562 174.367188 209.636719 175.09375 209.636719 175.816406 C 209.636719 176.542969 209.601562 177.265625 209.53125 177.988281 C 209.460938 178.710938 209.351562 179.425781 209.210938 180.136719 C 209.070312 180.847656 208.894531 181.550781 208.683594 182.246094 C 208.472656 182.9375 208.230469 183.621094 207.953125 184.289062 C 207.675781 184.960938 207.363281 185.613281 207.023438 186.253906 C 206.679688 186.894531 206.308594 187.515625 205.90625 188.117188 C 205.503906 188.722656 205.070312 189.300781 204.613281 189.863281 C 204.152344 190.421875 203.664062 190.960938 203.152344 191.472656 C 202.640625 191.984375 202.101562 192.472656 201.542969 192.933594 C 200.980469 193.390625 200.398438 193.824219 199.796875 194.226562 C 199.195312 194.628906 198.574219 195 197.933594 195.34375 C 197.292969 195.683594 196.640625 195.996094 195.96875 196.273438 C 195.300781 196.550781 194.617188 196.792969 193.921875 197.003906 C 193.230469 197.214844 192.527344 197.390625 191.816406 197.53125 C 191.105469 197.675781 190.386719 197.78125 189.667969 197.851562 C 188.945312 197.921875 188.222656 197.957031 187.496094 197.957031 C 186.769531 197.957031 186.046875 197.921875 185.328125 197.851562 C 184.605469 197.78125 183.886719 197.675781 183.175781 197.53125 C 182.464844 197.390625 181.761719 197.214844 181.070312 197.003906 C 180.375 196.792969 179.695312 196.550781 179.023438 196.273438 C 178.355469 195.996094 177.699219 195.683594 177.058594 195.34375 C 176.421875 195 175.796875 194.628906 175.195312 194.226562 C 174.59375 193.824219 174.011719 193.390625 173.449219 192.933594 C 172.890625 192.472656 172.351562 191.984375 171.839844 191.472656 C 171.328125 190.960938 170.839844 190.421875 170.382812 189.863281 C 169.921875 189.300781 169.488281 188.722656 169.085938 188.117188 C 168.683594 187.515625 168.3125 186.894531 167.96875 186.253906 C 167.628906 185.613281 167.320312 184.960938 167.042969 184.289062 C 166.765625 183.621094 166.519531 182.9375 166.308594 182.246094 C 166.097656 181.550781 165.921875 180.847656 165.78125 180.136719 C 165.640625 179.425781 165.535156 178.710938 165.460938 177.988281 C 165.390625 177.265625 165.355469 176.542969 165.355469 175.816406 Z M 165.355469 175.816406 "/><path style=" stroke:none;fill-rule:nonzero;fill:#8b5cf6;fill-opacity:1;" d="M 220.707031 352.941406 C 221.070312 352.941406 221.429688 352.90625 221.789062 352.835938 C 222.144531 352.765625 222.488281 352.660156 222.824219 352.519531 C 223.160156 352.382812 223.480469 352.210938 223.78125 352.007812 C 224.085938 351.808594 224.363281 351.578125 224.621094 351.320312 C 224.878906 351.0625 225.109375 350.785156 225.308594 350.480469 C 225.511719 350.179688 225.683594 349.859375 225.820312 349.523438 C 225.960938 349.191406 226.066406 348.84375 226.136719 348.488281 C 226.207031 348.128906 226.242188 347.769531 226.242188 347.40625 L 226.242188 297.589844 L 231.777344 297.589844 C 232.320312 297.589844 232.863281 297.5625 233.40625 297.511719 C 233.945312 297.457031 234.484375 297.378906 235.015625 297.273438 C 235.550781 297.164062 236.078125 297.035156 236.597656 296.875 C 237.117188 296.71875 237.628906 296.535156 238.132812 296.328125 C 238.636719 296.117188 239.125 295.886719 239.605469 295.628906 C 240.085938 295.375 240.550781 295.09375 241.003906 294.792969 C 241.457031 294.488281 241.890625 294.167969 242.3125 293.820312 C 242.734375 293.476562 243.136719 293.113281 243.519531 292.726562 C 243.902344 292.34375 244.269531 291.941406 244.613281 291.519531 C 244.960938 291.097656 245.28125 290.664062 245.585938 290.210938 C 245.886719 289.757812 246.167969 289.292969 246.421875 288.8125 C 246.679688 288.332031 246.910156 287.84375 247.121094 287.339844 C 247.328125 286.835938 247.511719 286.324219 247.667969 285.804688 C 247.824219 285.285156 247.957031 284.757812 248.0625 284.226562 C 248.171875 283.691406 248.25 283.152344 248.304688 282.613281 C 248.355469 282.070312 248.382812 281.527344 248.382812 280.984375 L 248.382812 247.773438 C 248.382812 229.453125 231.003906 214.5625 209.636719 214.5625 L 165.355469 214.5625 C 143.988281 214.5625 126.609375 229.453125 126.609375 247.773438 L 126.609375 280.984375 C 126.609375 281.527344 126.636719 282.070312 126.691406 282.613281 C 126.742188 283.152344 126.824219 283.691406 126.929688 284.226562 C 127.035156 284.757812 127.167969 285.285156 127.324219 285.804688 C 127.484375 286.324219 127.664062 286.835938 127.875 287.339844 C 128.082031 287.84375 128.3125 288.332031 128.570312 288.8125 C 128.828125 289.292969 129.105469 289.757812 129.410156 290.210938 C 129.710938 290.664062 130.035156 291.097656 130.378906 291.519531 C 130.722656 291.941406 131.089844 292.34375 131.472656 292.726562 C 131.859375 293.113281 132.261719 293.476562 132.679688 293.820312 C 133.101562 294.167969 133.539062 294.488281 133.988281 294.792969 C 134.441406 295.09375 134.90625 295.375 135.386719 295.628906 C 135.867188 295.886719 136.359375 296.117188 136.859375 296.328125 C 137.363281 296.535156 137.875 296.71875 138.394531 296.875 C 138.914062 297.035156 139.441406 297.164062 139.976562 297.273438 C 140.507812 297.378906 141.046875 297.457031 141.585938 297.511719 C 142.128906 297.5625 142.671875 297.589844 143.214844 297.589844 L 148.75 297.589844 L 148.75 347.40625 C 148.75 347.769531 148.785156 348.128906 148.855469 348.488281 C 148.925781 348.84375 149.03125 349.191406 149.171875 349.523438 C 149.3125 349.859375 149.480469 350.179688 149.683594 350.480469 C 149.886719 350.785156 150.113281 351.0625 150.371094 351.320312 C 150.628906 351.578125 150.910156 351.808594 151.210938 352.007812 C 151.511719 352.210938 151.832031 352.382812 152.167969 352.519531 C 152.503906 352.660156 152.847656 352.765625 153.207031 352.835938 C 153.5625 352.90625 153.921875 352.941406 154.285156 352.941406 C 154.648438 352.941406 155.007812 352.90625 155.367188 352.835938 C 155.722656 352.765625 156.066406 352.660156 156.402344 352.519531 C 156.738281 352.382812 157.058594 352.210938 157.359375 352.007812 C 157.664062 351.808594 157.941406 351.578125 158.199219 351.320312 C 158.457031 351.0625 158.6875 350.785156 158.886719 350.480469 C 159.089844 350.179688 159.261719 349.859375 159.398438 349.523438 C 159.539062 349.191406 159.644531 348.84375 159.714844 348.488281 C 159.785156 348.128906 159.820312 347.769531 159.820312 347.40625 L 159.820312 297.589844 L 215.171875 297.589844 L 215.171875 347.40625 C 215.171875 347.769531 215.207031 348.128906 215.277344 348.488281 C 215.347656 348.84375 215.453125 349.191406 215.59375 349.523438 C 215.734375 349.859375 215.902344 350.179688 216.105469 350.480469 C 216.308594 350.785156 216.535156 351.0625 216.792969 351.320312 C 217.050781 351.578125 217.332031 351.808594 217.632812 352.007812 C 217.933594 352.210938 218.253906 352.382812 218.589844 352.519531 C 218.925781 352.660156 219.269531 352.765625 219.628906 352.835938 C 219.984375 352.90625 220.34375 352.941406 220.707031 352.941406 Z M 137.679688 247.773438 C 137.679688 235.542969 150.078125 225.632812 165.355469 225.632812 L 209.636719 225.632812 C 224.914062 225.632812 237.3125 235.542969 237.3125 247.773438 L 237.3125 280.984375 C 237.3125 281.347656 237.277344 281.707031 237.207031 282.066406 C 237.136719 282.421875 237.03125 282.769531 236.890625 283.101562 C 236.753906 283.4375 236.582031 283.757812 236.378906 284.058594 C 236.179688 284.363281 235.949219 284.640625 235.691406 284.898438 C 235.433594 285.15625 235.15625 285.386719 234.851562 285.585938 C 234.550781 285.789062 234.230469 285.960938 233.894531 286.097656 C 233.558594 286.238281 233.214844 286.34375 232.859375 286.414062 C 232.5 286.484375 232.140625 286.519531 231.777344 286.519531 L 205.265625 286.519531 L 159.820312 266.316406 L 159.820312 264.988281 L 203.492188 269.804688 L 220.707031 269.804688 C 221.070312 269.804688 221.429688 269.769531 221.789062 269.699219 C 222.144531 269.628906 222.488281 269.523438 222.824219 269.382812 C 223.160156 269.242188 223.480469 269.074219 223.78125 268.871094 C 224.085938 268.667969 224.363281 268.441406 224.621094 268.183594 C 224.878906 267.925781 225.109375 267.644531 225.308594 267.34375 C 225.511719 267.042969 225.683594 266.722656 225.820312 266.386719 C 225.960938 266.050781 226.066406 265.707031 226.136719 265.347656 C 226.207031 264.992188 226.242188 264.632812 226.242188 264.269531 L 226.242188 253.199219 C 226.242188 252.835938 226.207031 252.476562 226.136719 252.117188 C 226.066406 251.761719 225.960938 251.417969 225.820312 251.082031 C 225.683594 250.746094 225.511719 250.425781 225.308594 250.125 C 225.109375 249.820312 224.878906 249.542969 224.621094 249.285156 C 224.363281 249.027344 224.085938 248.796875 223.78125 248.597656 C 223.480469 248.394531 223.160156 248.222656 222.824219 248.085938 C 222.488281 247.945312 222.144531 247.839844 221.789062 247.769531 C 221.429688 247.699219 221.070312 247.664062 220.707031 247.664062 C 220.34375 247.664062 219.984375 247.699219 219.628906 247.769531 C 219.269531 247.839844 218.925781 247.945312 218.589844 248.085938 C 218.253906 248.222656 217.933594 248.394531 217.632812 248.597656 C 217.332031 248.796875 217.050781 249.027344 216.792969 249.285156 C 216.535156 249.542969 216.308594 249.820312 216.105469 250.125 C 215.902344 250.425781 215.734375 250.746094 215.59375 251.082031 C 215.453125 251.417969 215.347656 251.761719 215.277344 252.117188 C 215.207031 252.476562 215.171875 252.835938 215.171875 253.199219 L 215.171875 258.734375 L 204.433594 258.734375 L 159.820312 253.917969 L 159.820312 253.308594 C 159.820312 252.945312 159.785156 252.585938 159.714844 252.230469 C 159.644531 251.875 159.539062 251.527344 159.398438 251.191406 C 159.261719 250.855469 159.089844 250.535156 158.886719 250.234375 C 158.6875 249.933594 158.457031 249.652344 158.199219 249.394531 C 157.941406 249.136719 157.664062 248.910156 157.359375 248.707031 C 157.058594 248.503906 156.738281 248.335938 156.402344 248.195312 C 156.066406 248.054688 155.722656 247.953125 155.367188 247.878906 C 155.007812 247.808594 154.648438 247.773438 154.285156 247.773438 C 153.921875 247.773438 153.5625 247.808594 153.207031 247.878906 C 152.847656 247.953125 152.503906 248.054688 152.167969 248.195312 C 151.832031 248.335938 151.511719 248.503906 151.210938 248.707031 C 150.910156 248.910156 150.628906 249.136719 150.371094 249.394531 C 150.113281 249.652344 149.886719 249.933594 149.683594 250.234375 C 149.480469 250.535156 149.3125 250.855469 149.171875 251.191406 C 149.03125 251.527344 148.925781 251.875 148.855469 252.230469 C 148.785156 252.585938 148.75 252.945312 148.75 253.308594 L 148.75 269.914062 C 148.726562 270.117188 148.726562 270.320312 148.75 270.523438 C 148.664062 270.964844 148.664062 271.410156 148.75 271.851562 C 148.894531 272.191406 149.078125 272.503906 149.304688 272.792969 C 149.457031 273.089844 149.640625 273.367188 149.859375 273.625 C 150.203125 273.929688 150.570312 274.207031 150.964844 274.453125 C 150.964844 274.453125 151.351562 274.785156 151.574219 274.839844 L 177.589844 286.410156 L 143.214844 286.410156 C 142.851562 286.410156 142.492188 286.375 142.136719 286.304688 C 141.777344 286.234375 141.433594 286.128906 141.097656 285.988281 C 140.761719 285.847656 140.441406 285.679688 140.140625 285.476562 C 139.839844 285.273438 139.558594 285.046875 139.300781 284.789062 C 139.042969 284.53125 138.816406 284.25 138.613281 283.949219 C 138.410156 283.648438 138.242188 283.328125 138.101562 282.992188 C 137.960938 282.65625 137.855469 282.3125 137.785156 281.953125 C 137.714844 281.597656 137.679688 281.238281 137.679688 280.875 Z M 137.679688 247.773438 "/><path style=" stroke:none;fill-rule:nonzero;fill:#8b5cf6;fill-opacity:1;" d="M 181.960938 330.800781 L 181.960938 347.40625 C 181.960938 347.769531 181.996094 348.128906 182.066406 348.488281 C 182.136719 348.84375 182.242188 349.191406 182.382812 349.523438 C 182.523438 349.859375 182.691406 350.179688 182.894531 350.480469 C 183.097656 350.785156 183.324219 351.0625 183.582031 351.320312 C 183.839844 351.578125 184.121094 351.808594 184.421875 352.007812 C 184.722656 352.210938 185.042969 352.382812 185.378906 352.519531 C 185.714844 352.660156 186.058594 352.765625 186.417969 352.835938 C 186.773438 352.90625 187.132812 352.941406 187.496094 352.941406 C 187.859375 352.941406 188.21875 352.90625 188.578125 352.835938 C 188.933594 352.765625 189.277344 352.660156 189.613281 352.519531 C 189.949219 352.382812 190.269531 352.210938 190.570312 352.007812 C 190.875 351.808594 191.152344 351.578125 191.410156 351.320312 C 191.667969 351.0625 191.898438 350.785156 192.097656 350.480469 C 192.300781 350.179688 192.472656 349.859375 192.609375 349.523438 C 192.75 349.191406 192.855469 348.84375 192.925781 348.488281 C 192.996094 348.128906 193.03125 347.769531 193.03125 347.40625 L 193.03125 330.800781 C 193.03125 330.4375 192.996094 330.078125 192.925781 329.722656 C 192.855469 329.367188 192.75 329.019531 192.609375 328.683594 C 192.472656 328.347656 192.300781 328.027344 192.097656 327.726562 C 191.898438 327.425781 191.667969 327.144531 191.410156 326.886719 C 191.152344 326.628906 190.875 326.402344 190.570312 326.199219 C 190.269531 325.996094 189.949219 325.828125 189.613281 325.6875 C 189.277344 325.546875 188.933594 325.445312 188.578125 325.371094 C 188.21875 325.300781 187.859375 325.265625 187.496094 325.265625 C 187.132812 325.265625 186.773438 325.300781 186.417969 325.371094 C 186.058594 325.445312 185.714844 325.546875 185.378906 325.6875 C 185.042969 325.828125 184.722656 325.996094 184.421875 326.199219 C 184.121094 326.402344 183.839844 326.628906 183.582031 326.886719 C 183.324219 327.144531 183.097656 327.425781 182.894531 327.726562 C 182.691406 328.027344 182.523438 328.347656 182.382812 328.683594 C 182.242188 329.019531 182.136719 329.367188 182.066406 329.722656 C 181.996094 330.078125 181.960938 330.4375 181.960938 330.800781 Z M 181.960938 330.800781 "/><path style=" stroke:none;fill-rule:nonzero;fill:#8b5cf6;fill-opacity:1;" d="M 286.574219 99.875 C 287.152344 99.148438 287.527344 98.332031 287.691406 97.417969 C 287.859375 96.507812 287.800781 95.609375 287.515625 94.726562 C 287.226562 93.851562 286.75 93.09375 286.085938 92.457031 C 285.417969 91.820312 284.640625 91.378906 283.753906 91.128906 L 227.074219 75.1875 L 224.75 73.527344 L 192.089844 24.484375 C 191.964844 24.296875 191.828125 24.121094 191.679688 23.949219 C 191.53125 23.777344 191.375 23.617188 191.207031 23.464844 C 191.039062 23.3125 190.863281 23.171875 190.675781 23.042969 C 190.492188 22.914062 190.300781 22.792969 190.097656 22.6875 C 189.898438 22.582031 189.695312 22.488281 189.484375 22.40625 C 189.273438 22.324219 189.058594 22.257812 188.839844 22.203125 C 188.617188 22.148438 188.398438 22.105469 188.171875 22.078125 C 187.949219 22.050781 187.722656 22.039062 187.496094 22.039062 C 187.269531 22.039062 187.046875 22.050781 186.820312 22.078125 C 186.597656 22.105469 186.375 22.148438 186.15625 22.203125 C 185.9375 22.257812 185.71875 22.324219 185.507812 22.40625 C 185.296875 22.488281 185.09375 22.582031 184.894531 22.6875 C 184.695312 22.792969 184.5 22.914062 184.316406 23.042969 C 184.132812 23.171875 183.957031 23.3125 183.789062 23.464844 C 183.621094 23.617188 183.460938 23.777344 183.3125 23.949219 C 183.164062 24.121094 183.027344 24.296875 182.902344 24.484375 L 150.246094 73.527344 L 147.921875 75.1875 L 91.238281 91.074219 C 91.019531 91.136719 90.804688 91.210938 90.59375 91.296875 C 90.382812 91.386719 90.179688 91.488281 89.980469 91.601562 C 89.785156 91.714844 89.59375 91.839844 89.410156 91.976562 C 89.230469 92.113281 89.054688 92.257812 88.890625 92.417969 C 88.726562 92.574219 88.574219 92.742188 88.429688 92.921875 C 88.285156 93.097656 88.152344 93.285156 88.03125 93.476562 C 87.910156 93.671875 87.804688 93.871094 87.707031 94.078125 C 87.613281 94.285156 87.527344 94.496094 87.460938 94.714844 C 87.390625 94.933594 87.332031 95.152344 87.289062 95.375 C 87.25 95.601562 87.21875 95.828125 87.207031 96.054688 C 87.191406 96.28125 87.191406 96.507812 87.203125 96.738281 C 87.21875 96.964844 87.246094 97.191406 87.289062 97.414062 C 87.328125 97.640625 87.382812 97.859375 87.453125 98.078125 C 87.523438 98.296875 87.605469 98.507812 87.699219 98.714844 C 87.796875 98.921875 87.902344 99.125 88.023438 99.316406 C 88.144531 99.511719 88.273438 99.695312 88.417969 99.875 L 124.894531 146.039062 L 125.78125 148.75 L 123.398438 207.589844 C 123.359375 208.511719 123.542969 209.394531 123.945312 210.226562 C 124.347656 211.058594 124.921875 211.75 125.667969 212.292969 C 126.644531 213 127.730469 213.351562 128.933594 213.34375 C 129.597656 213.34375 130.246094 213.234375 130.871094 213.011719 L 145.152344 207.476562 C 145.511719 207.367188 145.855469 207.21875 146.1875 207.039062 C 146.515625 206.855469 146.824219 206.640625 147.109375 206.398438 C 147.398438 206.152344 147.65625 205.878906 147.886719 205.582031 C 148.117188 205.285156 148.316406 204.96875 148.480469 204.628906 C 148.648438 204.289062 148.777344 203.9375 148.871094 203.574219 C 148.964844 203.210938 149.023438 202.839844 149.039062 202.460938 C 149.058594 202.085938 149.039062 201.710938 148.980469 201.339844 C 148.921875 200.96875 148.828125 200.605469 148.695312 200.25 C 148.5625 199.898438 148.398438 199.5625 148.195312 199.242188 C 147.996094 198.925781 147.765625 198.628906 147.503906 198.359375 C 147.242188 198.085938 146.957031 197.84375 146.648438 197.628906 C 146.335938 197.417969 146.007812 197.238281 145.660156 197.089844 C 145.3125 196.945312 144.953125 196.835938 144.585938 196.761719 C 144.214844 196.6875 143.84375 196.652344 143.464844 196.65625 C 143.089844 196.660156 142.714844 196.703125 142.347656 196.78125 C 141.980469 196.859375 141.621094 196.976562 141.277344 197.128906 L 134.800781 199.507812 L 136.851562 147.976562 C 136.957031 147.328125 136.957031 146.683594 136.851562 146.039062 L 135.355469 141.445312 C 135.117188 140.832031 134.804688 140.257812 134.414062 139.726562 L 102.253906 99.488281 L 152.070312 85.539062 C 152.71875 85.386719 153.308594 85.109375 153.84375 84.707031 L 157.773438 81.886719 C 158.300781 81.484375 158.746094 81.007812 159.101562 80.445312 L 187.496094 37.550781 L 216.113281 80.445312 C 216.46875 81.007812 216.914062 81.484375 217.441406 81.886719 L 221.371094 84.707031 C 221.910156 85.105469 222.503906 85.398438 223.144531 85.59375 L 272.960938 99.542969 L 241.023438 140.003906 C 240.605469 140.519531 240.292969 141.09375 240.082031 141.722656 L 238.585938 146.257812 C 238.507812 146.90625 238.507812 147.550781 238.585938 148.195312 L 240.6875 199.730469 L 234.214844 197.347656 C 233.871094 197.21875 233.519531 197.128906 233.160156 197.066406 C 232.800781 197.007812 232.4375 196.984375 232.074219 197 C 231.710938 197.011719 231.347656 197.058594 230.996094 197.144531 C 230.640625 197.226562 230.296875 197.34375 229.964844 197.496094 C 229.632812 197.648438 229.316406 197.832031 229.023438 198.046875 C 228.726562 198.257812 228.457031 198.5 228.207031 198.765625 C 227.957031 199.035156 227.738281 199.324219 227.546875 199.636719 C 227.359375 199.945312 227.199219 200.273438 227.074219 200.613281 C 226.949219 200.953125 226.859375 201.304688 226.804688 201.660156 C 226.746094 202.019531 226.726562 202.378906 226.742188 202.738281 C 226.757812 203.101562 226.804688 203.457031 226.890625 203.808594 C 226.976562 204.160156 227.09375 204.5 227.246094 204.832031 C 227.398438 205.160156 227.578125 205.46875 227.792969 205.761719 C 228.003906 206.054688 228.242188 206.324219 228.507812 206.570312 C 228.773438 206.816406 229.058594 207.035156 229.367188 207.226562 C 229.675781 207.414062 230 207.574219 230.339844 207.699219 L 244.621094 213.234375 C 245.492188 213.558594 246.390625 213.660156 247.3125 213.53125 C 248.234375 213.402344 249.070312 213.066406 249.824219 212.515625 C 250.570312 211.96875 251.144531 211.28125 251.546875 210.449219 C 251.949219 209.613281 252.128906 208.734375 252.09375 207.808594 L 249.214844 148.75 L 250.097656 146.039062 Z M 286.574219 99.875 "/></g></svg>