<svg xmlns="http://www.w3.org/2000/svg" xmlns:xlink="http://www.w3.org/1999/xlink" width="500" zoomAndPan="magnify" viewBox="0 0 375 374.999991" height="500" preserveAspectRatio="xMidYMid meet" version="1.2"><defs><clipPath id="a30ea22009"><path d="M 31.324219 45.535156 L 217 45.535156 L 217 329.203125 L 31.324219 329.203125 Z M 31.324219 45.535156 "/></clipPath><clipPath id="7defc7c876"><path d="M 297 127 L 343.226562 127 L 343.226562 149 L 297 149 Z M 297 127 "/></clipPath></defs><g id="6d8b6d8454"><rect x="0" width="375" y="0" height="374.999991" style="fill:#ffffff;fill-opacity:1;stroke:none;"/><rect x="0" width="375" y="0" height="374.999991" style="fill:#e1f7ff;fill-opacity:1;stroke:none;"/><g clip-rule="nonzero" clip-path="url(#a30ea22009)"><path style=" stroke:none;fill-rule:nonzero;fill:#8b5cf6;fill-opacity:1;" d="M 138.753906 315.722656 L 109.140625 315.722656 C 105.246094 315.722656 102.09375 312.582031 102.09375 308.714844 C 102.09375 304.820312 105.246094 301.671875 109.140625 301.671875 L 138.753906 301.671875 C 142.652344 301.671875 145.800781 304.820312 145.800781 308.714844 C 145.800781 312.582031 142.652344 315.722656 138.753906 315.722656 Z M 197.640625 280.308594 C 197.640625 284.65625 194.109375 288.195312 189.753906 288.195312 L 58.144531 288.195312 C 53.796875 288.195312 50.253906 284.65625 50.253906 280.308594 L 50.253906 84.992188 C 50.253906 80.644531 53.796875 77.105469 58.144531 77.105469 L 189.753906 77.105469 C 194.109375 77.105469 197.640625 80.644531 197.640625 84.992188 L 197.640625 100.320312 L 216.570312 100.320312 L 216.570312 64.476562 C 216.570312 54.023438 208.101562 45.546875 197.640625 45.546875 L 50.253906 45.546875 C 39.804688 45.546875 31.324219 54.023438 31.324219 64.476562 L 31.324219 310.277344 C 31.324219 320.726562 39.804688 329.203125 50.253906 329.203125 L 197.640625 329.203125 C 208.101562 329.203125 216.570312 320.726562 216.570312 310.277344 L 216.570312 264.980469 L 197.640625 264.980469 L 197.640625 280.308594 "/></g><path style=" stroke:none;fill-rule:nonzero;fill:#8b5cf6;fill-opacity:1;" d="M 191.949219 196.09375 L 144.164062 196.09375 C 142.367188 196.09375 140.914062 197.546875 140.914062 199.34375 L 140.914062 245.492188 C 140.914062 247.277344 142.367188 248.738281 144.164062 248.738281 L 191.949219 248.738281 C 193.746094 248.738281 195.199219 247.277344 195.199219 245.492188 L 195.199219 199.34375 C 195.199219 197.546875 193.746094 196.09375 191.949219 196.09375 "/><path style=" stroke:none;fill-rule:nonzero;fill:#8b5cf6;fill-opacity:1;" d="M 195.199219 119.808594 C 195.199219 118.011719 193.746094 116.5625 191.949219 116.5625 L 144.164062 116.5625 C 142.367188 116.5625 140.914062 118.011719 140.914062 119.808594 L 140.914062 169.238281 C 140.914062 171.023438 142.367188 172.484375 144.164062 172.484375 L 191.949219 172.484375 C 193.746094 172.484375 195.199219 171.023438 195.199219 169.238281 L 195.199219 119.808594 "/><path style=" stroke:none;fill-rule:nonzero;fill:#8b5cf6;fill-opacity:1;" d="M 269.84375 194.457031 L 222.054688 196.09375 C 220.269531 196.09375 218.816406 197.546875 218.816406 199.34375 L 218.816406 245.492188 C 218.816406 247.277344 220.269531 248.738281 222.054688 248.738281 L 269.84375 248.738281 C 271.640625 248.738281 273.09375 247.277344 273.09375 245.492188 L 273.09375 197.703125 C 273.09375 195.90625 271.640625 194.457031 269.84375 194.457031 "/><path style=" stroke:none;fill-rule:nonzero;fill:#8b5cf6;fill-opacity:1;" d="M 257.511719 109.4375 C 256.605469 107.886719 254.625 107.355469 253.074219 108.25 L 211.695312 133.78125 C 210.132812 134.675781 209.605469 136.667969 210.507812 138.21875 L 234.402344 179.597656 C 235.292969 181.160156 237.277344 181.6875 238.828125 180.785156 L 280.214844 155.253906 C 281.765625 154.359375 282.296875 152.378906 281.402344 150.816406 L 257.511719 109.4375 "/><path style=" stroke:none;fill-rule:nonzero;fill:#8b5cf6;fill-opacity:1;" d="M 319.457031 83.964844 C 323.265625 80.15625 323.265625 75.632812 319.457031 71.835938 C 315.652344 68.027344 309.488281 68.027344 305.679688 71.835938 L 286.085938 89.792969 C 282.277344 93.597656 282.277344 99.761719 286.085938 103.570312 C 289.890625 107.367188 296.054688 107.367188 299.863281 103.570312 L 319.457031 83.964844 "/><path style=" stroke:none;fill-rule:nonzero;fill:#8b5cf6;fill-opacity:1;" d="M 252.445312 92.109375 C 257.824219 92.109375 262.191406 87.742188 262.191406 82.363281 L 262.191406 59.628906 C 262.191406 54.25 257.824219 49.882812 252.445312 49.882812 C 247.070312 49.882812 242.710938 54.25 242.710938 59.628906 L 242.710938 82.363281 C 242.710938 87.742188 247.070312 92.109375 252.445312 92.109375 "/><g clip-rule="nonzero" clip-path="url(#7defc7c876)"><path style=" stroke:none;fill-rule:nonzero;fill:#8b5cf6;fill-opacity:1;" d="M 333.480469 129.101562 L 307.28125 127.464844 C 301.902344 127.464844 297.546875 131.820312 297.546875 137.199219 C 297.546875 142.574219 301.902344 146.941406 307.28125 146.941406 L 333.480469 148.582031 C 338.859375 148.582031 343.214844 144.222656 343.214844 138.835938 C 343.214844 133.457031 338.859375 129.101562 333.480469 129.101562 "/></g></g></svg>