<svg xmlns="http://www.w3.org/2000/svg" xmlns:xlink="http://www.w3.org/1999/xlink" width="1024" zoomAndPan="magnify" viewBox="0 0 768 767.999994" height="1024" preserveAspectRatio="xMidYMid meet" version="1.2"><defs><clipPath id="942231efb2"><path d="M 4.109375 205.136719 L 746 205.136719 L 746 562.886719 L 4.109375 562.886719 Z M 4.109375 205.136719 "/></clipPath></defs><g id="79295698f5"><g clip-rule="nonzero" clip-path="url(#942231efb2)"><path style=" stroke:none;fill-rule:nonzero;fill:#8b5cf6;fill-opacity:1;" d="M 480.320312 340.660156 L 480.320312 258.414062 L 677.34375 258.414062 L 708.441406 310.597656 C 712.757812 320.714844 716.046875 330.765625 718.660156 340.660156 Z M 612.605469 543.8125 C 584.425781 543.8125 561.503906 520.886719 561.503906 492.714844 C 561.503906 464.535156 584.425781 441.613281 612.605469 441.613281 C 640.777344 441.613281 663.699219 464.535156 663.699219 492.714844 C 663.699219 520.886719 640.777344 543.8125 612.605469 543.8125 Z M 518.007812 398.117188 L 484.695312 398.117188 C 479.449219 398.117188 475.195312 393.871094 475.195312 388.617188 C 475.195312 383.363281 479.449219 379.109375 484.695312 379.109375 L 518.007812 379.109375 C 523.253906 379.109375 527.507812 383.363281 527.507812 388.617188 C 527.507812 393.871094 523.253906 398.117188 518.007812 398.117188 Z M 445.164062 350.167969 C 445.164062 355.414062 440.910156 359.667969 435.664062 359.667969 L 223.78125 359.667969 C 219.957031 359.667969 216.503906 357.375 215.015625 353.851562 C 213.539062 350.324219 214.308594 346.257812 216.984375 343.523438 L 315.984375 242.261719 C 317.777344 240.4375 320.226562 239.40625 322.78125 239.40625 L 435.664062 239.40625 C 440.910156 239.40625 445.164062 243.652344 445.164062 248.90625 Z M 374.960938 398.117188 L 334.808594 398.117188 C 329.558594 398.117188 325.308594 393.871094 325.308594 388.617188 C 325.308594 383.363281 329.558594 379.109375 334.808594 379.109375 L 374.960938 379.109375 C 380.210938 379.109375 384.46875 383.363281 384.46875 388.617188 C 384.46875 393.871094 380.210938 398.117188 374.960938 398.117188 Z M 134.488281 543.8125 C 106.316406 543.8125 83.394531 520.886719 83.394531 492.714844 C 83.394531 464.535156 106.316406 441.613281 134.488281 441.613281 C 162.667969 441.613281 185.589844 464.535156 185.589844 492.714844 C 185.589844 520.886719 162.667969 543.8125 134.488281 543.8125 Z M 725.660156 302.515625 C 725.496094 302.136719 725.304688 301.765625 725.089844 301.410156 L 670.503906 209.808594 C 668.792969 206.929688 665.6875 205.167969 662.339844 205.167969 L 310.753906 205.167969 C 308.234375 205.167969 305.8125 206.171875 304.035156 207.949219 L 176.84375 335.140625 L 42.742188 350.496094 C 40.054688 350.804688 37.621094 352.246094 36.058594 354.453125 C 34.757812 356.289062 4.246094 399.949219 4.246094 440.429688 C 4.246094 483.914062 38.773438 500.617188 40.238281 501.3125 C 41.503906 501.910156 42.882812 502.214844 44.277344 502.214844 L 65.109375 502.214844 C 69.773438 536.382812 99.0625 562.820312 134.488281 562.820312 C 169.921875 562.820312 199.21875 536.382812 203.882812 502.214844 L 543.214844 502.214844 C 547.878906 536.382812 577.171875 562.820312 612.605469 562.820312 C 648.921875 562.820312 678.867188 535.050781 682.355469 499.632812 L 729.246094 483.660156 C 732.050781 482.714844 734.246094 480.507812 735.1875 477.703125 C 736.371094 474.207031 763.667969 390.886719 725.660156 302.515625 "/></g></g></svg>