<svg xmlns="http://www.w3.org/2000/svg" xmlns:xlink="http://www.w3.org/1999/xlink" width="1024" zoomAndPan="magnify" viewBox="0 0 768 767.999994" height="1024" preserveAspectRatio="xMidYMid meet" version="1.2"><defs><clipPath id="180838cc2e"><path d="M 8.238281 171.382812 L 759.738281 171.382812 L 759.738281 596.632812 L 8.238281 596.632812 Z M 8.238281 171.382812 "/></clipPath></defs><g id="8f49422155"><g clip-rule="nonzero" clip-path="url(#180838cc2e)"><path style=" stroke:none;fill-rule:nonzero;fill:#2563eb;fill-opacity:1;" d="M 618.835938 576.007812 C 599.285156 576.007812 583.375 560.101562 583.375 540.550781 C 583.375 521.003906 599.285156 505.097656 618.835938 505.097656 C 638.378906 505.097656 654.289062 521.003906 654.289062 540.550781 C 654.289062 560.101562 638.378906 576.007812 618.835938 576.007812 Z M 580.722656 351.667969 C 578.765625 353.828125 575.996094 355.058594 573.09375 355.058594 L 237.359375 355.058594 C 233.199219 355.058594 229.441406 352.550781 227.851562 348.707031 C 226.253906 344.859375 227.140625 340.445312 230.085938 337.5 L 333.863281 233.714844 C 335.683594 231.890625 338.132812 230.816406 340.703125 230.710938 L 561.238281 221.445312 C 566.640625 221.222656 571.355469 225.257812 571.90625 230.6875 L 583.328125 343.734375 C 583.621094 346.632812 582.675781 349.511719 580.722656 351.667969 Z M 130.335938 576.007812 C 110.789062 576.007812 94.875 560.101562 94.875 540.550781 C 94.875 521.003906 110.789062 505.097656 130.335938 505.097656 C 149.878906 505.097656 165.792969 521.003906 165.792969 540.550781 C 165.792969 560.101562 149.878906 576.007812 130.335938 576.007812 Z M 754.878906 416.683594 L 726.828125 396.386719 C 722.964844 372.410156 704.191406 257.292969 694.910156 221.710938 C 683.085938 176.425781 642.027344 171.632812 640.277344 171.457031 C 639.753906 171.410156 639.214844 171.398438 638.722656 171.410156 L 331.382812 186.238281 C 328.929688 186.355469 326.613281 187.339844 324.832031 189.015625 L 170.96875 333.597656 L 49.117188 364.449219 C 44.546875 365.609375 41.351562 369.714844 41.351562 374.421875 L 41.351562 436.613281 L 16.417969 442.222656 C 11.726562 443.277344 8.394531 447.449219 8.394531 452.257812 L 8.394531 540.550781 C 8.394531 546.234375 12.992188 550.839844 18.679688 550.839844 L 75.292969 550.839844 C 80.140625 576.828125 102.953125 596.582031 130.335938 596.582031 C 157.710938 596.582031 180.523438 576.828125 185.371094 550.839844 L 563.789062 550.839844 C 568.640625 576.828125 591.457031 596.582031 618.835938 596.582031 C 646.214844 596.582031 669.023438 576.828125 673.875 550.839844 L 730.699219 550.839844 C 735.761719 550.839844 740.066406 547.148438 740.863281 542.152344 L 759.011719 426.613281 C 759.605469 422.789062 758.007812 418.953125 754.878906 416.683594 "/></g></g></svg>