<svg xmlns="http://www.w3.org/2000/svg" xmlns:xlink="http://www.w3.org/1999/xlink" width="1024" zoomAndPan="magnify" viewBox="0 0 768 767.999994" height="1024" preserveAspectRatio="xMidYMid meet" version="1.2"><defs><clipPath id="5279702421"><path d="M 20.957031 63.011719 L 746.957031 63.011719 L 746.957031 705 L 20.957031 705 Z M 20.957031 63.011719 "/></clipPath></defs><g id="afcfb83126"><g clip-rule="nonzero" clip-path="url(#5279702421)"><path style=" stroke:none;fill-rule:nonzero;fill:#2563eb;fill-opacity:1;" d="M 615.835938 684.933594 C 589.722656 684.933594 568.480469 663.6875 568.480469 637.574219 C 568.480469 611.453125 589.722656 590.210938 615.835938 590.210938 C 641.953125 590.210938 663.195312 611.453125 663.195312 637.574219 C 663.195312 663.6875 641.953125 684.933594 615.835938 684.933594 Z M 236.445312 496.097656 L 216.507812 496.097656 L 216.507812 478.328125 L 161.664062 478.328125 L 161.664062 458.398438 L 236.445312 458.398438 Z M 169.140625 684.933594 C 143.027344 684.933594 121.785156 663.6875 121.785156 637.574219 C 121.785156 611.453125 143.027344 590.210938 169.140625 590.210938 C 195.261719 590.210938 216.507812 611.453125 216.507812 637.574219 C 216.507812 663.6875 195.261719 684.933594 169.140625 684.933594 Z M 40.894531 397.484375 L 40.894531 261.097656 L 90.875 157.484375 L 216.507812 157.484375 L 216.507812 397.484375 Z M 114.207031 63.203125 L 20.957031 256.542969 L 20.957031 647.542969 L 102.671875 647.542969 C 107.511719 679.925781 135.433594 704.863281 169.140625 704.863281 C 202.855469 704.863281 230.777344 679.925781 235.621094 647.542969 L 549.367188 647.542969 C 554.210938 679.925781 582.128906 704.863281 615.835938 704.863281 C 649.570312 704.863281 677.5 679.898438 682.316406 647.480469 L 746.957031 647.050781 L 746.957031 63.203125 L 114.207031 63.203125 "/></g></g></svg>